<?xml version="1.0" encoding="utf-8"?>
<!-- Generated by IcoMoon.io -->
<!DOCTYPE svg PUBLIC "-//W3C//DTD SVG 1.1//EN" "http://www.w3.org/Graphics/SVG/1.1/DTD/svg11.dtd">
<svg version="1.1" xmlns="http://www.w3.org/2000/svg" xmlns:xlink="http://www.w3.org/1999/xlink" width="752" height="80" viewBox="0 0 752 80">
<g transform="translate(0 0)">
	<path d="M32 26v-24h-32v24h14v2h-6v2h16v-2h-6v-2h14zM4 6h24v16h-24v-16z" fill="#000000" />
</g>
<g transform="translate(48 0)">
	<path d="M28 22v-16c0-1.1-0.9-2-2-2h-20c-1.1 0-2 0.9-2 2v16h-4v6h32v-6h-4zM20 26h-8v-2h8v2zM26 22h-20v-15.996c0.001-0.001 0.002-0.003 0.004-0.004h19.993c0.001 0.001 0.003 0.002 0.004 0.004v15.996z" fill="#000000" />
</g>
<g transform="translate(96 0)">
	<path d="M23 0h-14c-1.65 0-3 1.35-3 3v26c0 1.65 1.35 3 3 3h14c1.65 0 3-1.35 3-3v-26c0-1.65-1.35-3-3-3zM12 1.5h8v1h-8v-1zM16 30c-1.105 0-2-0.895-2-2s0.895-2 2-2 2 0.895 2 2-0.895 2-2 2zM24 24h-16v-20h16v20z" fill="#000000" />
</g>
<g transform="translate(144 0)">
	<path d="M24 0h-18c-1.1 0-2 0.9-2 2v28c0 1.1 0.9 2 2 2h18c1.1 0 2-0.9 2-2v-28c0-1.1-0.9-2-2-2zM15 30.556c-0.859 0-1.556-0.697-1.556-1.556s0.697-1.556 1.556-1.556 1.556 0.697 1.556 1.556-0.697 1.556-1.556 1.556zM24 26h-18v-22h18v22z" fill="#000000" />
</g>
<g transform="translate(192 0)">
	<path d="M25 0h-20c-1.65 0-3 1.35-3 3v26c0 1.65 1.35 3 3 3h20c1.65 0 3-1.35 3-3v-26c0-1.65-1.35-3-3-3zM15 31c-0.552 0-1-0.448-1-1s0.448-1 1-1 1 0.448 1 1-0.448 1-1 1zM24 28h-18v-24h18v24z" fill="#000000" />
</g>
<g transform="translate(240 0)">
	<path d="M30.662 9.003c-2.775-0.399-5.731-0.688-8.815-0.851l5.153-5.153-2-2-7.017 7.017c-0.656-0.011-1.317-0.017-1.983-0.017v0l-8-8-2 2 6.069 6.069c-3.779 0.133-7.386 0.454-10.731 0.935-0.86 3.366-1.338 7.086-1.338 10.997s0.477 7.63 1.338 10.997c4.489 0.645 9.448 1.003 14.662 1.003 5.214 0 10.173-0.358 14.662-1.003 0.86-3.366 1.338-7.086 1.338-10.997s-0.477-7.63-1.338-10.997zM26.997 27.331c-3.367 0.43-7.086 0.669-10.997 0.669-3.911 0-7.63-0.239-10.997-0.669-0.645-2.244-1.003-4.724-1.003-7.331 0-2.607 0.358-5.087 1.003-7.331 3.366-0.43 7.086-0.669 10.997-0.669 3.91 0 7.63 0.239 10.996 0.669 0.645 2.244 1.004 4.724 1.004 7.331 0 2.607-0.358 5.087-1.003 7.331z" fill="#000000" />
</g>
<g transform="translate(288 0)">
	<path d="M30.5 24h-0.5v-6.5c0-1.93-1.57-3.5-3.5-3.5h-8.5v-4h0.5c0.825 0 1.5-0.675 1.5-1.5v-5c0-0.825-0.675-1.5-1.5-1.5h-5c-0.825 0-1.5 0.675-1.5 1.5v5c0 0.825 0.675 1.5 1.5 1.5h0.5v4h-8.5c-1.93 0-3.5 1.57-3.5 3.5v6.5h-0.5c-0.825 0-1.5 0.675-1.5 1.5v5c0 0.825 0.675 1.5 1.5 1.5h5c0.825 0 1.5-0.675 1.5-1.5v-5c0-0.825-0.675-1.5-1.5-1.5h-0.5v-6h8v6h-0.5c-0.825 0-1.5 0.675-1.5 1.5v5c0 0.825 0.675 1.5 1.5 1.5h5c0.825 0 1.5-0.675 1.5-1.5v-5c0-0.825-0.675-1.5-1.5-1.5h-0.5v-6h8v6h-0.5c-0.825 0-1.5 0.675-1.5 1.5v5c0 0.825 0.675 1.5 1.5 1.5h5c0.825 0 1.5-0.675 1.5-1.5v-5c0-0.825-0.675-1.5-1.5-1.5zM6 30h-4v-4h4v4zM18 30h-4v-4h4v4zM14 8v-4h4v4h-4zM30 30h-4v-4h4v4z" fill="#000000" />
</g>
<g transform="translate(336 0)">
	<path d="M19.463 21.96c-0.691-0.11-0.707-2.010-0.707-2.010s2.030-2.010 2.473-4.713c1.19 0 1.926-2.873 0.735-3.884 0.050-1.064 1.53-8.354-5.964-8.354-7.494 0-6.014 7.29-5.965 8.354-1.19 1.011-0.455 3.884 0.735 3.884 0.442 2.703 2.473 4.713 2.473 4.713s-0.016 1.9-0.707 2.010c-2.226 0.354-10.537 4.020-10.537 8.040h28c0-4.020-8.311-7.685-10.537-8.040z" fill="#000000" />
</g>
<g transform="translate(384 0)">
	<path d="M22.969 25.168c-0.592-0.093-0.606-1.708-0.606-1.708s1.74-1.708 2.119-4.005c1.020 0 1.65-2.442 0.63-3.301 0.043-0.904 1.311-7.099-5.112-7.099-6.424 0-5.155 6.195-5.112 7.099-1.020 0.859-0.39 3.301 0.63 3.301 0.379 2.297 2.12 4.005 2.12 4.005s-0.014 1.615-0.606 1.708c-1.908 0.301-9.031 3.416-9.031 6.832h24c0-3.416-7.124-6.531-9.031-6.832zM10.752 25.713c1.378-0.848 3.051-1.635 4.423-2.107-0.492-0.701-1.040-1.654-1.385-2.783-0.481-0.393-0.873-0.954-1.125-1.644-0.252-0.691-0.348-1.464-0.269-2.178 0.056-0.512 0.202-0.99 0.427-1.409-0.136-1.456-0.232-4.314 1.639-6.398 0.725-0.808 1.642-1.389 2.741-1.74-0.196-2.024-1.224-4.399-5.202-4.399-6.424 0-5.155 6.195-5.112 7.099-1.020 0.859-0.39 3.301 0.63 3.301 0.379 2.297 2.12 4.005 2.12 4.005s-0.014 1.615-0.606 1.708c-1.908 0.301-9.031 3.416-9.031 6.832h10.3c0.147-0.096 0.297-0.192 0.452-0.287z" fill="#000000" />
</g>
<g transform="translate(432 0)">
	<path d="M6 28h20c3.314 0 6-2.686 6-6h-32c0 3.314 2.686 6 6 6zM26 24h2v2h-2v-2zM30 4h-28l-2 16h32z" fill="#000000" />
</g>
<g transform="translate(480 0)">
	<path d="M30 30h-8q0 0.844-0.578 1.422t-1.422 0.578h-8q-0.813 0-1.406-0.594t-0.594-1.406h-8q-0.813 0-1.406-0.594t-0.594-1.406v-4q0-0.844 0.594-1.422t1.406-0.578h8q0-0.844 0.594-1.422t1.406-0.578v-2h-6q-0.813 0-1.406-0.594t-0.594-1.406v-14q0-0.844 0.594-1.422t1.406-0.578h20q0.844 0 1.422 0.578t0.578 1.422v14q0 0.844-0.578 1.422t-1.422 0.578h-6v2q0.844 0 1.422 0.578t0.578 1.422h8q0.844 0 1.422 0.594t0.578 1.406v4q0 0.813-0.578 1.406t-1.422 0.594zM10 24h-7q-0.406 0-0.703 0.297t-0.297 0.703 0.297 0.703 0.703 0.297h7v-2zM26 14v-12h-20v12h20zM14 18v2h2v-2h-2zM20 22h-8v8h8v-8zM29 24h-7v2h7q0.406 0 0.703-0.297t0.297-0.703-0.297-0.703-0.703-0.297z" fill="#000000" />
</g>
<g transform="translate(528 0)">
	<path d="M30 26h-8q0 0.844-0.578 1.422t-1.422 0.578h-8q-0.844 0-1.422-0.578t-0.578-1.422h-8q-0.844 0-1.422-0.594t-0.578-1.406v-4q0-0.844 0.578-1.422t1.422-0.578h8q0-0.844 0.578-1.422t1.422-0.578v-10q0-0.844 0.578-1.422t1.422-0.578h4q0.844 0 1.422 0.578t0.578 1.422v10q0.844 0 1.422 0.578t0.578 1.422h8q0.844 0 1.422 0.578t0.578 1.422v4q0 0.813-0.578 1.406t-1.422 0.594zM10 20h-7q-0.406 0-0.703 0.297t-0.297 0.703 0.297 0.703 0.703 0.297h7v-2zM16 7q0-0.406-0.297-0.703t-0.703-0.297-0.703 0.297-0.297 0.703v9h2v-9zM20 18h-8v8h8v-8zM29 20h-7v2h7q0.406 0 0.703-0.297t0.297-0.703-0.297-0.703-0.703-0.297z" fill="#000000" />
</g>
<g transform="translate(576 0)">
	<path d="M24 32h-16q-0.813 0-1.406-0.578t-0.594-1.422v-28q0-0.844 0.594-1.422t1.406-0.578h16q0.844 0 1.422 0.578t0.578 1.422v28q0 0.844-0.578 1.422t-1.422 0.578zM16.016 28q0.828 0 1.406-0.578t0.578-1.406-0.578-1.422-1.406-0.594-1.422 0.594-0.594 1.422 0.594 1.406 1.422 0.578zM24 3q0-0.406-0.297-0.703t-0.703-0.297h-14q-0.406 0-0.703 0.297t-0.297 0.703v2q0 0.406 0.297 0.703t0.703 0.297h14q0.406 0 0.703-0.297t0.297-0.703v-2zM24 9q0-0.406-0.297-0.703t-0.703-0.297h-14q-0.406 0-0.703 0.297t-0.297 0.703v2q0 0.406 0.297 0.703t0.703 0.297h14q0.406 0 0.703-0.297t0.297-0.703v-2zM24 15q0-0.406-0.297-0.703t-0.703-0.297h-14q-0.406 0-0.703 0.297t-0.297 0.703v2q0 0.406 0.297 0.703t0.703 0.297h14q0.406 0 0.703-0.297t0.297-0.703v-2z" fill="#000000" />
</g>
<g transform="translate(624 0)">
	<path d="M30 32h-10q-0.844 0-1.422-0.594t-0.578-1.406v-28q0-0.813 0.578-1.406t1.422-0.594h10q0.813 0 1.406 0.594t0.594 1.406v28q0 0.844-0.578 1.422t-1.422 0.578zM20 26.016q0 0.828 0.578 1.406t1.406 0.578 1.422-0.578 0.594-1.406-0.594-1.422-1.406-0.594-1.406 0.594-0.594 1.422zM30 3q0-0.406-0.297-0.703t-0.703-0.297h-8q-0.406 0-0.703 0.297t-0.297 0.703v2q0 0.406 0.297 0.703t0.703 0.297h8q0.406 0 0.703-0.297t0.297-0.703v-2zM30 9q0-0.406-0.297-0.703t-0.703-0.297h-8q-0.406 0-0.703 0.297t-0.297 0.703v2q0 0.406 0.297 0.703t0.703 0.297h8q0.406 0 0.703-0.297t0.297-0.703v-2zM30 15q0-0.406-0.297-0.703t-0.703-0.297h-8q-0.406 0-0.703 0.297t-0.297 0.703v2q0 0.406 0.297 0.703t0.703 0.297h8q0.406 0 0.703-0.297t0.297-0.703v-2zM12 32h-10q-0.844 0-1.422-0.594t-0.578-1.406v-28q0-0.813 0.578-1.406t1.422-0.594h10q0.844 0 1.422 0.594t0.578 1.406v28q0 0.844-0.578 1.422t-1.422 0.578zM2 26.016q0 0.828 0.578 1.406t1.422 0.578 1.422-0.578 0.578-1.406-0.578-1.422-1.406-0.594-1.422 0.594-0.594 1.422zM12 3q0-0.406-0.297-0.703t-0.703-0.297h-8q-0.406 0-0.703 0.297t-0.297 0.703v2q0 0.406 0.297 0.703t0.703 0.297h8q0.406 0 0.703-0.297t0.297-0.703v-2zM12 9q0-0.406-0.297-0.703t-0.703-0.297h-8q-0.406 0-0.703 0.297t-0.297 0.703v2q0 0.406 0.297 0.703t0.703 0.297h8q0.406 0 0.703-0.297t0.297-0.703v-2zM12 15q0-0.406-0.297-0.703t-0.703-0.297h-8q-0.406 0-0.703 0.297t-0.297 0.703v2q0 0.406 0.297 0.703t0.703 0.297h8q0.406 0 0.703-0.297t0.297-0.703v-2z" fill="#000000" />
</g>
<g transform="translate(672 0)">
	<path d="M31 16h-5v8h2q0.813 0 1.406 0.594t0.594 1.406v4q0 0.844-0.594 1.422t-1.406 0.578h-6q-0.844 0-1.422-0.578t-0.578-1.422v-4q0-0.813 0.578-1.406t1.422-0.594h2v-8h-14v8h2q0.813 0 1.406 0.594t0.594 1.406v4q0 0.844-0.594 1.422t-1.406 0.578h-6q-0.844 0-1.422-0.578t-0.578-1.422v-4q0-0.813 0.578-1.406t1.422-0.594h2v-8h-7q-0.406 0-0.703-0.297t-0.297-0.703 0.297-0.703 0.703-0.297h15v-6h-2q-0.844 0-1.422-0.578t-0.578-1.422v-4q0-0.813 0.578-1.406t1.422-0.594h6q0.813 0 1.406 0.594t0.594 1.406v4q0 0.844-0.594 1.422t-1.406 0.578h-2v6h13q0.406 0 0.703 0.297t0.297 0.703-0.297 0.703-0.703 0.297z" fill="#000000" />
</g>
<g transform="translate(720 0)">
	<path d="M20 25.969v2.031h3q0.406 0 0.703 0.297t0.297 0.703-0.297 0.703-0.703 0.297h-14q-0.406 0-0.703-0.297t-0.297-0.703 0.297-0.703 0.703-0.297h3v-2.031q-12-0.219-12-2.969v-17q0-0.844 0.578-1.422t1.422-0.578h28q0.813 0 1.406 0.578t0.594 1.422v17q0 2.75-12 2.969zM30 6h-28v16h28v-16zM4 20v-12h18z" fill="#000000" />
</g>
<g transform="translate(0 48)">
	<path d="M32 29.906q0 0.375-0.422 0.688t-1.297 0.516-1.797 0.375-2.359 0.266-2.5 0.141-2.734 0.078-2.531 0.031h-4.719t-2.531-0.031-2.734-0.078-2.5-0.141-2.359-0.266-1.797-0.375-1.297-0.516-0.422-0.688q0.063-2.75 3.438-4.859t8.563-2.797v-1.031q-1.625-0.719-2.813-2.031t-1.875-3.078-1-3.781-0.313-4.359q0-2 0.781-3.563t2.156-2.516 3.156-1.438 3.906-0.484 3.906 0.484 3.156 1.438 2.156 2.516 0.781 3.563q0 10.938-6 13.313v0.969q5.188 0.688 8.563 2.797t3.438 4.859z" fill="#000000" />
</g>
<g transform="translate(48 48)">
	<path d="M32 18.313q0 0.313-0.266 0.563t-0.813 0.422-1.125 0.297-1.469 0.203-1.563 0.109-1.703 0.063-1.578 0.031h-5.484v-4h-0.031q-0.031-1.438-0.563-2.5 0.844-0.219 1.594-0.313v-0.969q-3-1.813-3-7.5 0-2.344 1.672-3.531t4.328-1.188 4.328 1.188 1.672 3.531q0 5.906-3 7.594v0.875q3.156 0.438 5.063 1.75t1.938 3.375zM13 24.313v0.875q3.156 0.438 5.063 1.766t1.938 3.359q0 0.313-0.266 0.563t-0.813 0.422-1.125 0.297-1.469 0.203-1.563 0.125-1.703 0.063-1.578 0.016h-2.969t-1.578-0.016-1.703-0.063-1.563-0.125-1.469-0.203-1.125-0.297-0.813-0.422-0.266-0.563q0.031-2.031 1.938-3.359t5.063-1.766v-0.969q-3-1.813-3-7.5 0-2.344 1.672-3.531t4.328-1.188 4.328 1.188 1.672 3.531q0 5.906-3 7.594z" fill="#000000" />
</g>
<g transform="translate(96 48)">
	<path d="M30 24h-12v4h2q1.656 0 2.828 1.172t1.172 2.828h-16q0-1.656 1.172-2.828t2.828-1.172h2v-4h-12q-0.844 0-1.422-0.578t-0.578-1.422v-20q0-0.813 0.578-1.406t1.422-0.594h28q0.813 0 1.406 0.594t0.594 1.406v20q0 0.844-0.578 1.422t-1.422 0.578zM28 4h-24v16h24v-16zM6 18v-12.031h16z" fill="#000000" />
</g>
<g transform="translate(144 48)">
	<path d="M30 32h-2q-0.844 0-1.422-0.578t-0.578-1.422v-2q0-0.813 0.578-1.406t1.422-0.594v-8h-10v8q0.813 0 1.406 0.594t0.594 1.406v2q0 0.844-0.594 1.422t-1.406 0.578h-2q-0.844 0-1.422-0.578t-0.578-1.422v-2q0-0.813 0.578-1.406t1.422-0.594v-8h-10v8q0.813 0 1.406 0.594t0.594 1.406v2q0 0.844-0.594 1.422t-1.406 0.578h-2q-0.844 0-1.422-0.578t-0.578-1.422v-2q0-0.813 0.578-1.406t1.422-0.594v-9q0-0.406 0.297-0.703t0.703-0.297h11v-6h-2q-0.844 0-1.422-0.578t-0.578-1.422v-6q0-0.813 0.578-1.406t1.422-0.594h6q0.813 0 1.406 0.594t0.594 1.406v6q0 0.844-0.594 1.422t-1.406 0.578h-2v6h11q0.406 0 0.703 0.297t0.297 0.703v9q0.813 0 1.406 0.594t0.594 1.406v2q0 0.844-0.594 1.422t-1.406 0.578z" fill="#000000" />
</g>
<g transform="translate(192 48)">
	<path d="M24 32h-16q-1.656 0-2.828-1.172t-1.172-2.828v-24q0-1.656 1.172-2.828t2.828-1.172h16q1.656 0 2.828 1.172t1.172 2.828v24q0 1.656-1.172 2.828t-2.828 1.172zM16.016 30q0.828 0 1.406-0.578t0.578-1.406-0.578-1.422-1.406-0.594-1.422 0.594-0.594 1.422 0.594 1.406 1.422 0.578zM26 4h-20v20h20v-20zM8 22v-16.031h12z" fill="#000000" />
</g>
<g transform="translate(240 48)">
	<path d="M18.5 32h-5q-4.5 0-7-0.984t-2.5-3.016v-24q0-2.031 2.5-3.016t7-0.984h5q4.531 0 7.016 0.984t2.484 3.016v24q0 2.031-2.5 3.016t-7 0.984zM26 4h-20v24h20v-24zM8 26v-20.031h12z" fill="#000000" />
</g>
<g transform="translate(288 48)">
	<path d="M30 26.031h-12v3.969h3q0.406 0 0.703 0.297t0.297 0.703-0.297 0.703-0.703 0.297h-10q-0.406 0-0.703-0.297t-0.297-0.703 0.297-0.703 0.703-0.297h3v-3.969h-12q-0.844 0-1.422-0.594t-0.578-1.406v-22q0-0.844 0.578-1.422t1.422-0.578h28q0.844 0 1.422 0.578t0.578 1.422v22q0 0.813-0.578 1.406t-1.422 0.594zM30 2.031h-28v18h28v-18zM4 18v-14h20z" fill="#000000" />
</g>
<g transform="translate(336 48)">
	<path d="M28 28h-24q-1.656 0-2.828-1.172t-1.172-2.828v-16q0-1.656 1.172-2.828t2.828-1.172h24q1.656 0 2.828 1.172t1.172 2.828v16q0 1.656-1.172 2.828t-2.828 1.172zM28 8h-24v16h24v-16zM6 22v-12h16z" fill="#000000" />
</g>
<g transform="translate(384 48)">
	<path d="M28 30h-10v-8h8q0.844 0 1.422-0.578t0.578-1.422v-12q0-0.813-0.578-1.406t-1.422-0.594h-18q-0.844 0-1.422 0.594t-0.578 1.406v12q0 0.844 0.594 1.422t1.406 0.578h8v8h-10q-1.656 0-2.828-1.172t-1.172-2.828v-20q0-1.656 1.172-2.828t2.828-1.172h22q1.656 0 2.828 1.172t1.172 2.828v20q0 1.656-1.172 2.828t-2.828 1.172z" fill="#000000" />
</g>
<g transform="translate(432 48)">
	<path d="M28 32h-24q-1.656 0-2.828-1.172t-1.172-2.828v-24q0-1.656 1.172-2.828t2.828-1.172h24q1.656 0 2.828 1.172t1.172 2.828v24q0 1.656-1.172 2.828t-2.828 1.172zM4 27q0 0.406 0.297 0.703t0.703 0.297h11v-14h-12v13zM16 4h-11q-0.406 0-0.703 0.297t-0.297 0.703v5h12v-6zM28 5q0-0.406-0.297-0.703t-0.703-0.297h-7v24h7q0.406 0 0.703-0.297t0.297-0.703v-22z" fill="#000000" />
</g>
<g transform="translate(480 48)">
	<path d="M28 32h-24q-1.656 0-2.828-1.172t-1.172-2.828v-24q0-1.656 1.172-2.828t2.828-1.172h24q1.656 0 2.828 1.172t1.172 2.828v24q0 1.656-1.172 2.828t-2.828 1.172zM8 5q0-0.406-0.297-0.703t-0.703-0.297h-2q-0.406 0-0.703 0.297t-0.297 0.703v2q0 0.406 0.297 0.703t0.703 0.297h2q0.406 0 0.703-0.297t0.297-0.703v-2zM14 5q0-0.406-0.297-0.703t-0.703-0.297h-2q-0.406 0-0.703 0.297t-0.297 0.703v2q0 0.406 0.297 0.703t0.703 0.297h2q0.406 0 0.703-0.297t0.297-0.703v-2zM28 5q0-0.406-0.297-0.703t-0.703-0.297h-10q-0.406 0-0.703 0.297t-0.297 0.703v2q0 0.406 0.297 0.703t0.703 0.297h10q0.406 0 0.703-0.297t0.297-0.703v-2zM28 11q0-0.406-0.297-0.703t-0.703-0.297h-22q-0.406 0-0.703 0.297t-0.297 0.703v16q0 0.406 0.297 0.703t0.703 0.297h22q0.406 0 0.703-0.297t0.297-0.703v-16z" fill="#000000" />
</g>
</svg>
