<?xml version="1.0" standalone="no"?>
<!DOCTYPE svg PUBLIC "-//W3C//DTD SVG 1.1//EN" "http://www.w3.org/Graphics/SVG/1.1/DTD/svg11.dtd" >
<svg>
<metadata>
Created by FontForge 20090914 at Mon Mar  3 21:34:29 2014
 By www-data
</metadata>
<defs>
<font id="icomoon" horiz-adv-x="512" >
  <font-face 
    font-family="icomoon"
    font-weight="400"
    font-stretch="normal"
    units-per-em="512"
    panose-1="0 0 0 0 0 0 0 0 0 0"
    ascent="480"
    descent="-32"
    bbox="-5.99805 -39 549 480"
    underline-thickness="0"
    underline-position="0"
    unicode-range="U+0001-U+FFFD"
  />
<missing-glyph horiz-adv-x="0" 
 />
    <glyph glyph-name=".notdef" unicode="&#xfffd;" horiz-adv-x="0" 
 />
    <glyph glyph-name="glyph1" horiz-adv-x="0" 
d="M0 0v0v0z" />
    <glyph glyph-name="glyph1" horiz-adv-x="0" 
d="M0 0v0v0z" />
    <glyph glyph-name="uni0001" horiz-adv-x="0" 
d="M0 0v0v0z" />
    <glyph glyph-name="space" unicode=" " horiz-adv-x="256" 
d="M0 0v0v0z" />
    <glyph glyph-name="uniE600" unicode="&#xe600;" 
d="M512 64v384h-512v-384h224v-32h-96v-32h256v32h-96v32h224v0zM64 384h384v-256h-384v256v0z" />
    <glyph glyph-name="uniE601" unicode="&#xe601;" 
d="M448 128l0.00195312 256c0 4.66699 -0.833008 8.83398 -2.5 12.501s-4 7 -7 10s-6.33301 5.33301 -10 7s-7.83398 2.5 -12.501 2.5h-320c-4.66699 0 -8.83398 -0.833008 -12.501 -2.5s-7 -4 -10 -7s-5.33301 -6.33301 -7 -10s-2.5 -7.83398 -2.5 -12.501v-256h-64v-96
h512v96h-64v0zM320.002 64h-128v32h128v-32v0zM416.002 128h-320v256v0v0v0v0h320v0v0v0v0v-256v0z" />
    <glyph glyph-name="uniE602" unicode="&#xe602;" 
d="M368 480h-224c-6.66699 0 -12.834 -1.33301 -18.501 -4s-10.667 -6.16699 -15 -10.5s-7.83301 -9.33301 -10.5 -15s-4 -11.834 -4 -18.501v-416c0 -6.66699 1.33301 -12.834 4 -18.501s6.16699 -10.667 10.5 -15s9.33301 -7.83301 15 -10.5s11.834 -4 18.501 -4h224
c6.66699 0 12.834 1.33301 18.501 4s10.667 6.16699 15 10.5s7.83301 9.33301 10.5 15s4 11.834 4 18.501v416c0 6.66699 -1.33301 12.834 -4 18.501s-6.16699 10.667 -10.5 15s-9.33301 7.83301 -15 10.5s-11.834 4 -18.501 4v0zM192 456h128v-16h-128v16v0zM256 0
c-4.66699 0 -8.83398 0.833008 -12.501 2.5s-7 4 -10 7s-5.33301 6.33301 -7 10s-2.5 7.83398 -2.5 12.501s0.833008 8.83398 2.5 12.501s4 7 7 10s6.33301 5.33301 10 7s7.83398 2.5 12.501 2.5s8.83398 -0.833008 12.501 -2.5s7 -4 10 -7s5.33301 -6.33301 7 -10
s2.5 -7.83398 2.5 -12.501s-0.833008 -8.83398 -2.5 -12.501s-4 -7 -7 -10s-6.33301 -5.33301 -10 -7s-7.83398 -2.5 -12.501 -2.5v0zM384 96h-256v320h256v-320v0z" />
    <glyph glyph-name="uniE603" unicode="&#xe603;" 
d="M384 480h-288c-4.66699 0 -8.83398 -0.833008 -12.501 -2.5s-7 -4 -10 -7s-5.33301 -6.33301 -7 -10s-2.5 -7.83398 -2.5 -12.501v-448c0 -4.66699 0.833008 -8.83398 2.5 -12.501s4 -7 7 -10s6.33301 -5.33301 10 -7s7.83398 -2.5 12.501 -2.5h288
c4.66699 0 8.83398 0.833008 12.501 2.5s7 4 10 7s5.33301 6.33301 7 10s2.5 7.83398 2.5 12.501v448c0 4.66699 -0.833008 8.83398 -2.5 12.501s-4 7 -7 10s-6.33301 5.33301 -10 7s-7.83398 2.5 -12.501 2.5v0zM240 -9c-3.33301 0 -6.5 0.666992 -9.5 2
s-5.66699 3.16602 -8 5.49902s-4.16602 5 -5.49902 8s-2 6.16699 -2 9.5s0.666992 6.5 2 9.5s3.16602 5.66699 5.49902 8s5 4.16602 8 5.49902s6.16699 2 9.5 2s6.5 -0.666992 9.5 -2s5.66699 -3.16602 8 -5.49902s4.16602 -5 5.49902 -8s2 -6.16699 2 -9.5
s-0.666992 -6.5 -2 -9.5s-3.16602 -5.66699 -5.49902 -8s-5 -4.16602 -8 -5.49902s-6.16699 -2 -9.5 -2v0zM384 64h-288v352h288v-352v0z" />
    <glyph glyph-name="uniE604" unicode="&#xe604;" 
d="M400 480h-320c-6.66699 0 -12.834 -1.33301 -18.501 -4s-10.667 -6.16699 -15 -10.5s-7.83301 -9.33301 -10.5 -15s-4 -11.834 -4 -18.501v-416c0 -6.66699 1.33301 -12.834 4 -18.501s6.16699 -10.667 10.5 -15s9.33301 -7.83301 15 -10.5s11.834 -4 18.501 -4h320
c6.66699 0 12.834 1.33301 18.501 4s10.667 6.16699 15 10.5s7.83301 9.33301 10.5 15s4 11.834 4 18.501v416c0 6.66699 -1.33301 12.834 -4 18.501s-6.16699 10.667 -10.5 15s-9.33301 7.83301 -15 10.5s-11.834 4 -18.501 4v0zM240 -16c-2 0 -4 0.5 -6 1.5
s-3.66699 2.16699 -5 3.5s-2.5 3 -3.5 5s-1.5 4 -1.5 6s0.5 4 1.5 6s2.16699 3.66699 3.5 5s3 2.5 5 3.5s4 1.5 6 1.5s4 -0.5 6 -1.5s3.66699 -2.16699 5 -3.5s2.5 -3 3.5 -5s1.5 -4 1.5 -6s-0.5 -4 -1.5 -6s-2.16699 -3.66699 -3.5 -5s-3 -2.5 -5 -3.5s-4 -1.5 -6 -1.5v0z
M384 32h-288v384h288v-384v0z" />
    <glyph glyph-name="uniE605" unicode="&#xe605;" 
d="M491 336l-34 4l-35 4c-12 1.33301 -24 2.5 -36 3.5s-24 1.83301 -36 2.5l82 82l-32 32l-112 -112h-8h-8h-8h-8v0l-128 128l-32 -32l97 -97c-15.333 -0.666992 -30.333 -1.5 -45 -2.5l-43.5 -3c-14.333 -1 -28.5 -2.33301 -42.5 -4s-27.667 -3.5 -41 -5.5
c-3.33301 -13.333 -6.33301 -27.166 -9 -41.499s-4.83398 -28.833 -6.50098 -43.5s-3 -29.667 -4 -45s-1.5 -30.666 -1.5 -45.999s0.5 -30.666 1.5 -45.999s2.33301 -30.333 4 -45s3.83398 -29.167 6.50098 -43.5s5.66699 -28.166 9 -41.499c18 -2.66699 36.5 -5 55.5 -7
s38.333 -3.66699 58 -5s39.667 -2.33301 60 -3s40.833 -1 61.5 -1s41.167 0.333008 61.5 1s40.333 1.66699 60 3s39 3 58 5s37.5 4.33301 55.5 7c3.33301 13.333 6.33301 27.166 9 41.499s4.83398 28.833 6.50098 43.5s3 29.667 4 45s1.5 30.666 1.5 45.999
s-0.5 30.666 -1.5 45.999s-2.33301 30.333 -4 45s-3.83398 29.167 -6.50098 43.5s-5.66699 28.166 -9 41.499v0zM432 43c-13.333 -2 -27.166 -3.66699 -41.499 -5s-28.833 -2.5 -43.5 -3.5s-29.667 -1.66699 -45 -2s-30.666 -0.5 -45.999 -0.5s-30.666 0.166992 -45.999 0.5
s-30.333 1 -45 2s-29.167 2.16699 -43.5 3.5s-28.166 3 -41.499 5c-2.66699 8.66699 -5 17.667 -7 27s-3.66699 19 -5 29s-2.33301 20 -3 30s-1 20.333 -1 31s0.333008 21 1 31s1.66699 20 3 30s3 19.667 5 29s4.33301 18.333 7 27c13.333 2 27.166 3.66699 41.499 5
s28.833 2.5 43.5 3.5s29.667 1.66699 45 2s30.666 0.5 45.999 0.5s30.666 -0.166992 45.999 -0.5s30.333 -1 45 -2s29.167 -2.16699 43.5 -3.5s28.166 -3 41.499 -5c2.66699 -8.66699 5 -17.667 7 -27s3.66699 -19 5 -29s2.33301 -20 3 -30s1 -20.333 1 -31
s-0.333008 -21 -1 -31s-1.66699 -20 -3 -30s-3 -19.667 -5 -29s-4.33301 -18.333 -7 -27v0z" />
    <glyph glyph-name="uniE606" unicode="&#xe606;" 
d="M488 96h-8v104c0 8 -1.5 15.333 -4.5 22s-7 12.5 -12 17.5s-10.833 9 -17.5 12s-14 4.5 -22 4.5h-136v64h8c3.33301 0 6.5 0.666992 9.5 2s5.5 3 7.5 5s3.66699 4.5 5 7.5s2 6.16699 2 9.5v80c0 3.33301 -0.666992 6.5 -2 9.5s-3 5.5 -5 7.5s-4.5 3.66699 -7.5 5
s-6.16699 2 -9.5 2h-80c-3.33301 0 -6.5 -0.666992 -9.5 -2s-5.5 -3 -7.5 -5s-3.66699 -4.5 -5 -7.5s-2 -6.16699 -2 -9.5v-80c0 -3.33301 0.666992 -6.5 2 -9.5s3 -5.5 5 -7.5s4.5 -3.66699 7.5 -5s6.16699 -2 9.5 -2h8v-64h-136c-8 0 -15.333 -1.5 -22 -4.5
s-12.5 -7 -17.5 -12s-9 -10.833 -12 -17.5s-4.5 -14 -4.5 -22v-104h-8c-3.33301 0 -6.5 -0.666992 -9.5 -2s-5.5 -3 -7.5 -5s-3.66699 -4.5 -5 -7.5s-2 -6.16699 -2 -9.5v-80c0 -3.33301 0.666992 -6.5 2 -9.5s3 -5.5 5 -7.5s4.5 -3.66699 7.5 -5s6.16699 -2 9.5 -2h80
c3.33301 0 6.5 0.666992 9.5 2s5.5 3 7.5 5s3.66699 4.5 5 7.5s2 6.16699 2 9.5v80c0 3.33301 -0.666992 6.5 -2 9.5s-3 5.5 -5 7.5s-4.5 3.66699 -7.5 5s-6.16699 2 -9.5 2h-8v96h128v-96h-8c-3.33301 0 -6.5 -0.666992 -9.5 -2s-5.5 -3 -7.5 -5s-3.66699 -4.5 -5 -7.5
s-2 -6.16699 -2 -9.5v-80c0 -3.33301 0.666992 -6.5 2 -9.5s3 -5.5 5 -7.5s4.5 -3.66699 7.5 -5s6.16699 -2 9.5 -2h80c3.33301 0 6.5 0.666992 9.5 2s5.5 3 7.5 5s3.66699 4.5 5 7.5s2 6.16699 2 9.5v80c0 3.33301 -0.666992 6.5 -2 9.5s-3 5.5 -5 7.5s-4.5 3.66699 -7.5 5
s-6.16699 2 -9.5 2h-8v96h128v-96h-8c-3.33301 0 -6.5 -0.666992 -9.5 -2s-5.5 -3 -7.5 -5s-3.66699 -4.5 -5 -7.5s-2 -6.16699 -2 -9.5v-80c0 -3.33301 0.666992 -6.5 2 -9.5s3 -5.5 5 -7.5s4.5 -3.66699 7.5 -5s6.16699 -2 9.5 -2h80c3.33301 0 6.5 0.666992 9.5 2
s5.5 3 7.5 5s3.66699 4.5 5 7.5s2 6.16699 2 9.5v80c0 3.33301 -0.666992 6.5 -2 9.5s-3 5.5 -5 7.5s-4.5 3.66699 -7.5 5s-6.16699 2 -9.5 2v0zM96 0h-64v64h64v-64v0zM288 0h-64v64h64v-64v0zM224 352v64h64v-64h-64v0zM480 0h-64v64h64v-64v0z" />
    <glyph glyph-name="uniE607" unicode="&#xe607;" 
d="M311 129c-2.66699 0.666992 -4.66309 2.66406 -5.99609 5.99707s-2.33301 7 -3 11s-1.16699 7.5 -1.5 10.5s-0.5 4.83301 -0.5 5.5c0 -0.666992 1.66699 1 5 5s7.33301 9.16699 12 15.5s9.16699 14.333 13.5 24s7.5 19.5 9.5 29.5
c4.66699 0.666992 8.83398 3.33398 12.501 8.00098s6.16699 10.5 7.5 17.5s1.5 13.833 0.5 20.5s-4.16699 12.334 -9.5 17.001c0.666992 4 1.66699 13.333 3 28s-0.333984 29.667 -5.00098 45s-13.834 29.333 -27.501 42s-35.5 18.667 -65.5 18
c-30 0.666992 -51.833 -5.33301 -65.5 -18s-22.834 -26.667 -27.501 -42s-6.33398 -30.333 -5.00098 -45s2.33301 -24 3 -28c-5.33301 -4.66699 -8.5 -10.334 -9.5 -17.001s-0.833008 -13.5 0.5 -20.5s3.83301 -12.833 7.5 -17.5s7.83398 -7.33398 12.501 -8.00098
c2 -10 5.16699 -19.833 9.5 -29.5s8.83301 -17.667 13.5 -24s8.66699 -11.5 12 -15.5s5 -5.66699 5 -5c0 -0.666992 -0.166992 -2.5 -0.5 -5.5s-0.833008 -6.5 -1.5 -10.5s-1.66699 -7.66699 -3 -11s-3.33301 -5.33301 -6 -6c-9.33301 -0.666992 -23.333 -5 -42 -13
s-37.334 -17.667 -56.001 -29s-35.167 -24.666 -49.5 -39.999s-21.5 -30.666 -21.5 -45.999l448 -1c0 16.667 -7.16699 32.334 -21.5 47.001s-30.833 28 -49.5 40s-37.334 21.667 -56.001 29s-32.667 12 -42 14v-1z" />
    <glyph glyph-name="uniE608" unicode="&#xe608;" 
d="M367 77c-2.66699 0.666992 -4.50098 2.5 -5.50098 5.5s-2 6.16699 -3 9.5s-1.33301 6.33301 -1 9s0.166016 4 -0.500977 4c0.666992 0 2.33398 1.5 5.00098 4.5s6 7.33301 10 13s7.66699 12.5 11 20.5s6.33301 16.667 9 26c3.33301 0 6.66602 2 9.99902 6s5.5 9 6.5 15
s1.16699 11.833 0.5 17.5s-3.33398 10.5 -8.00098 14.5c0.666992 3.33301 1.33398 11.166 2.00098 23.499s-0.666016 25.166 -3.99902 38.499s-11 25.166 -23 35.499s-30.667 15.5 -56 15.5c-26.667 0 -45.667 -5.16699 -57 -15.5s-19 -22.166 -23 -35.499
s-5.33301 -26.166 -4 -38.499s1.66602 -20.166 0.999023 -23.499c-3.33301 -4 -5.66602 -8.83301 -6.99902 -14.5s-1.16602 -11.5 0.500977 -17.5s3.83398 -11 6.50098 -15s6.33398 -6 11.001 -6c1.33301 -9.33301 4 -18 8 -26s7.66699 -14.833 11 -20.5
s6.66602 -10 9.99902 -13s4.66602 -4.5 3.99902 -4.5c0.666992 0 0.833984 -1.33301 0.500977 -4s-0.666016 -5.66699 -0.999023 -9s-1.33301 -6.5 -3 -9.5s-3.16699 -4.83301 -4.5 -5.5c-8.66699 -0.666992 -20.834 -4.33398 -36.501 -11.001s-31.667 -15 -48 -25
s-30.5 -21.333 -42.5 -34s-18.333 -25.667 -19 -39h385c-0.666992 13.333 -7 26.333 -19 39s-26.167 24 -42.5 34s-32.333 18.333 -48 25s-27.834 10.334 -36.501 11.001h1zM171.999 69c4.66699 3.33301 10.1641 6.50391 16.4971 9.50391l18.5 9c6 3 12.167 5.66699 18.5 8
s11.833 4.5 16.5 6.5c-1.33301 3.33301 -3.16602 6.5 -5.49902 9.5s-4.33301 6.5 -6 10.5s-3.5 8 -5.5 12s-3.33301 8.33301 -4 13c-2.66699 1.33301 -4.66699 3 -6 5s-3 4.16699 -5 6.5s-3.5 4.66602 -4.5 6.99902s-2.16699 4.83301 -3.5 7.5
c-0.666992 2.66699 -1.5 5.5 -2.5 8.5s-1.5 6 -1.5 9s-0.166992 6 -0.5 9s-0.166016 5.83301 0.500977 8.5c0 2 0.333008 4 1 6s1.16699 4 1.5 6s1 3.83301 2 5.5s1.5 3.5 1.5 5.5c0 5.33301 -0.166992 12.166 -0.5 20.499s0.5 17.166 2.5 26.499s4.66699 18.666 8 27.999
s9 18.333 17 27c2.66699 3.33301 5.83398 6.33301 9.50098 9l10.5 7.5c3.33301 2.33301 7.16602 4.5 11.499 6.5s8.16602 3.66699 11.499 5c0 8 -1.5 16.167 -4.5 24.5s-7.5 15.833 -13.5 22.5s-14.333 12.167 -25 16.5s-23.667 6.5 -39 6.5
c-26.667 0 -45.667 -5.16699 -57 -15.5s-19 -22.166 -23 -35.499s-5.33301 -26.166 -4 -38.499s1.66602 -20.166 0.999023 -23.499c-3.33301 -4 -5.66602 -8.83301 -6.99902 -14.5s-1.16602 -11.5 0.500977 -17.5s3.83398 -11 6.50098 -15s6.33398 -6 11.001 -6
c1.33301 -9.33301 4 -18 8 -26s7.66699 -14.833 11 -20.5s6.66602 -10 9.99902 -13s4.66602 -4.5 3.99902 -4.5c0.666992 0 0.833984 -1.33301 0.500977 -4s-0.666016 -5.66699 -0.999023 -9s-1.33301 -6.5 -3 -9.5s-3.16699 -4.83301 -4.5 -5.5
c-8.66699 -0.666992 -20.834 -4.33398 -36.501 -11.001s-31.667 -15 -48 -25s-30.5 -21.333 -42.5 -34s-18.333 -25.667 -19 -39h166c0 0.666992 0.333008 1.16699 1 1.5s1.16699 0.666016 1.5 0.999023s1 0.666016 2 0.999023s1.5 0.833008 1.5 1.5h1z" />
    <glyph glyph-name="uniE609" unicode="&#xe609;" 
d="M96 32h319.998c13.333 0 25.833 2.5 37.5 7.5s21.834 11.833 30.501 20.5s15.5 18.834 20.5 30.501s7.5 24.167 7.5 37.5h-512c0 -13.333 2.5 -25.833 7.5 -37.5s11.833 -21.834 20.5 -30.501s18.834 -15.5 30.501 -20.5s24.167 -7.5 37.5 -7.5v0zM415.998 96h32v-32h-32
v32v0zM479.998 416h-448l-32 -256h512z" />
    <glyph glyph-name="uniE60A" unicode="&#xe60a;" 
d="M480 0l-127.998 0.000976562c0 -8.66699 -3 -16.334 -9 -23.001c-6 -6 -13.667 -9 -23 -9h-128c-8.66699 0 -16 3 -22 9c-6.66699 6.66699 -10 14 -10 22l-128 1c-8.66699 -0.666992 -16 2.33301 -22 9c-6.66699 6 -10 13.333 -10 22v64c0 8.66699 3 16.334 9 23.001
c6.66699 5.33301 14 8.33301 22 9l129 -1c-0.666992 9.33301 2.33301 17 9 23c6 6 13.333 9 22 9v32h-96c-8.66699 0 -16 3 -22 9c-6.66699 6.66699 -10 14 -10 22v225c0 8 3 15.667 9 23c6.66699 4.66699 14 7.66699 22 9l321 -2c8 1.33301 15.667 -1.66699 23 -9
c4.66699 -4.66699 7.66699 -12.334 9 -23.001l-2 -222c1.33301 -10 -1.66699 -17.667 -9 -23c-4.66699 -7.33301 -12.334 -10.333 -23.001 -9l-94 -2l-2 -30c10 -1.33301 17.667 -4.33301 23 -9c6.66699 -7.33301 9.66699 -15 9 -23l129 -2c8 1.33301 15.667 -1.66699 23 -9
c4.66699 -5.33301 7.66699 -13 9 -23l-2 -62c1.33301 -10 -1.66699 -17.333 -9 -22c-4.66699 -8 -12.334 -11.333 -23.001 -10zM158.002 92.001l-113.999 2.00098c-2.66699 -1.33301 -6.33398 -3 -11.001 -5c-2 -4 -3.66699 -7.66699 -5 -11c1.33301 -5.33301 3 -9 5 -11
c4 -4.66699 7.66699 -6.33398 11 -5.00098l113 -2l-1 34zM413.003 252.002l-1 194l-319 -2l-1 -190l321 -2v0zM220.003 190.002l1 -34l31 2l1 30l-33 2v0zM317.003 124.002l-129 2l1 -130l127 2l1 126v0zM460.003 94.002l-111 -2.00098l-1 -30l113 -2
c3.33301 1.33301 7 3 11 5c2 4 3.66699 7.66699 5 11c-1.33301 4.66699 -3 8.33398 -5 11.001c-4 3.33301 -7.66699 5 -11 5z" />
    <glyph glyph-name="uniE60B" unicode="&#xe60b;" 
d="M480 64l-128 0.000976562c0 -8.66699 -3 -16.334 -9 -23.001c-6 -6 -13.667 -9 -23 -9h-128c-8.66699 0 -16.334 3 -23.001 9c-6 6 -9 13.667 -9 23l-128 -1c-8.66699 0.666992 -16.334 3.66699 -23.001 9c-6 7.33301 -9 14.666 -9 21.999v66c0 7.33301 3 15 9 23
c6 4 13.667 7 23 9l127 -3c0.666992 10.667 3.66699 18.334 9 23.001c6.66699 7.33301 14.334 10.333 23.001 9v162c0 7.33301 3 15 9 23c6 4 13.667 7 23 9l63 -3c9.33301 2 17 -1 23 -9c6 -4 9 -11.667 9 -23v-157c8.66699 -2 16.334 -5 23.001 -9
c5.33301 -8 8.33301 -15.667 9 -23l127 -3c9.33301 2 17 -1 23 -9c6 -4 9 -11.667 9 -23v-61c0 -10.667 -3 -18 -9 -22c-6 -8.66699 -13.667 -12 -23 -10zM157 156.001l-112.001 3.00098c-4 -2 -7.66699 -3.66699 -11 -5c-3.33301 -4.66699 -5 -8.33398 -5 -11.001
c0 -6 1.66699 -9.66699 5 -11c2.66699 -5.33301 6.33398 -7 11.001 -5l111 -3l1 35v-3zM251.999 364.002c0.666992 6 -0.999023 9.66699 -4.99902 11c-2 4.66699 -5.66699 6.33398 -11 5.00098c-3.33301 1.33301 -7 -0.333984 -11 -5.00098
c-2.66699 -1.33301 -4.33398 -5 -5.00098 -11l1 -142l31 -2l1 146zM316 188.002l-127 2l-1 -130l129 2l-1 126v0zM461 158.002l-113 -2.00098l1 -30l111 -2c4.66699 1.33301 8.33398 3 11.001 5c3.33301 4 5 7.66699 5 11c0 4.66699 -1.66699 8.33398 -5 11.001
c-2.66699 3.33301 -6.33398 5 -11.001 5z" />
    <glyph glyph-name="uniE60C" unicode="&#xe60c;" 
d="M384 -32l-255.999 0.000976562c-8.66699 0 -16 3 -22 9c-6.66699 6 -10 13.667 -10 23v447c0 9.33301 3 17 9 23c6.66699 6 14 9 22 9h257c8 0 15.667 -3 23 -9c4.66699 -6 7.66699 -13.667 9 -23l-2 -448c1.33301 -8.66699 -1.66699 -16.334 -9 -23.001
c-4.66699 -6 -12.334 -9 -23.001 -9zM256.001 31.001c7.33301 0 15 3.00195 23 9.00195c4 6 7 13.667 9 23c-2 8 -5 15.333 -9 22c-8 6 -15.667 9 -23 9c-10.667 0 -18 -3 -22 -9c-8.66699 -6.66699 -12 -14.334 -10 -23.001c-2 -8.66699 1 -16.334 9 -23.001
c4.66699 -6 12 -9 22 -9zM381.001 430.003c1.33301 4 -0.332031 7.66602 -4.99902 10.999c-1.33301 2.66699 -5 4.33398 -11 5.00098l-222 -1c-5.33301 0.666992 -9 -1 -11 -5c-4.66699 -2 -6.33398 -5.66699 -5.00098 -11l-2 -31c1.33301 -4.66699 3 -8.33398 5 -11.001
c4 -4 7.66699 -5.66699 11 -5l225 -1c3.33301 0.666992 7 2.33398 11 5.00098c2 3.33301 3.66699 7 5 11l-2 32zM382.003 333.002c-1.33301 4 -3.00098 7.66602 -5.00098 10.999c-4 2.66699 -7.66699 4.33398 -11 5.00098l-226 -1c-2.66699 0.666992 -6.33398 -1 -11.001 -5
c-2 -2 -3.66699 -5.66699 -5 -11l2 -31c-1.33301 -4.66699 0.333984 -8.33398 5.00098 -11.001c1.33301 -4 5 -5.66699 11 -5l221 -1c6 0.666992 9.66699 2.33398 11 5.00098c4.66699 3.33301 6.33398 7 5.00098 11l2 32zM379.002 236.001
c1.33301 4 -0.332031 7.66602 -4.99902 10.999c-1.33301 2.66699 -5 4.33398 -11 5.00098l-222 -1c-5.33301 0.666992 -9 -1 -11 -5c-4.66699 -2 -6.33398 -5.66699 -5.00098 -11l-2 -31c1.33301 -4.66699 3 -8.33398 5 -11.001c4 -4 7.66699 -5.66699 11 -5l225 -1
c3.33301 0.666992 7 2.33398 11 5.00098c2 3.33301 3.66699 7 5 11l-2 32z" />
    <glyph glyph-name="uniE60D" unicode="&#xe60d;" 
d="M480 -32l-159.998 0.00195312c-8.66699 0 -16.334 3 -23.001 9c-6 6.66699 -9 14 -9 22v449c0 8 3 15.333 9 22c6 6 13.667 9 23 9h159c9.33301 0 16.666 -3 21.999 -9c7.33301 -6.66699 10.333 -14.334 9 -23.001l2 -448c-1.33301 -8.66699 -4.33301 -16.334 -9 -23.001
c-7.33301 -6 -15 -9 -23 -9v1zM318.002 63.002c1.33301 -8.66699 4.33203 -16.332 8.99902 -22.999c7.33301 -6 15 -9 23 -9c9.33301 0 16.666 3 21.999 9c7.33301 6 10.333 13.667 9 23c1.33301 8 -1.66699 15.333 -9 22c-5.33301 6 -13 9 -23 9
c-7.33301 0 -14.666 -3 -21.999 -9c-5.33301 -6.66699 -8.66602 -14.334 -9.99902 -23.001zM479.001 430.004c-1.33301 4 -3.00098 7.66602 -5.00098 10.999c-4 2.66699 -7.66699 4.33398 -11 5.00098l-130 -1c-2.66699 0.666992 -6.33398 -1 -11.001 -5
c-2 -2 -3.66699 -5.66699 -5 -11l2 -31c-1.33301 -4.66699 0.333984 -8.33398 5.00098 -11.001c1.33301 -4 5 -5.66699 11 -5l125 -1c6 0.666992 9.66699 2.33398 11 5.00098c4.66699 3.33301 6.33398 7 5.00098 11l2 32zM476 333.003
c1.33301 4 -0.332031 7.66602 -4.99902 10.999c-1.33301 2.66699 -5 4.33398 -11 5.00098l-126 -1c-5.33301 0.666992 -9 -1 -11 -5c-4.66699 -2 -6.33398 -5.66699 -5.00098 -11l-2 -31c1.33301 -4.66699 3 -8.33398 5 -11.001c4 -4 7.66699 -5.66699 11 -5l129 -1
c3.33301 0.666992 7 2.33398 11 5.00098c2 3.33301 3.66699 7 5 11l-2 32zM477.002 236.002c-1.33301 4 -3.00098 7.66602 -5.00098 10.999c-4 2.66699 -7.66699 4.33398 -11 5.00098l-130 -1c-2.66699 0.666992 -6.33398 -1 -11.001 -5c-2 -2 -3.66699 -5.66699 -5 -11
l2 -31c-1.33301 -4.66699 0.333984 -8.33398 5.00098 -11.001c1.33301 -4 5 -5.66699 11 -5l125 -1c6 0.666992 9.66699 2.33398 11 5.00098c4.66699 3.33301 6.33398 7 5.00098 11l2 32zM186.001 -36.999l-157.999 0.00195312c-10 0 -17.667 3 -23 9
c-7.33301 6.66699 -10.333 14 -9 22l-2 449c1.33301 8 4.33301 15.333 9 22c7.33301 6 15 9 23 9h161c8 0 15.667 -3 23 -9c4.66699 -6.66699 7.66699 -14.334 9 -23.001l-2 -448c1.33301 -8.66699 -1.66699 -16.334 -9 -23.001c-4.66699 -6 -12.334 -9 -23.001 -9z
M27.002 58.0029c-1.33301 -8.66699 1.66406 -16.332 8.99707 -22.999c4.66699 -6 12.334 -9 23.001 -9c6.66699 0 14.334 3 23.001 9c3.33301 6 6.33301 13.667 9 23c-2.66699 8 -5.66699 15.333 -9 22c-8.66699 6 -16.334 9 -23.001 9c-11.333 0 -18.666 -3 -21.999 -9
c-9.33301 -6.66699 -12.666 -14.334 -9.99902 -23.001v1zM182.999 425.005c2.66699 4 0.999023 7.66602 -5.00098 10.999c0 2.66699 -3.66699 4.33398 -11 5.00098l-124 -1c-6.66699 0.666992 -10.334 -1 -11.001 -5c-6 -2 -7.66699 -5.66699 -5 -11l-4 -31
c2.66699 -4.66699 4.33398 -8.33398 5.00098 -11.001c5.33301 -4 9 -5.66699 11 -5l131 -1c2 0.666992 5.66699 2.33398 11 5.00098c0.666992 3.33301 2.33398 7 5.00098 11l-4 32zM185.998 328.004c-2.66699 4 -4.33203 7.66602 -4.99902 10.999
c-5.33301 2.66699 -9 4.33398 -11 5.00098l-132 -1c-1.33301 0.666992 -5 -1 -11 -5c-0.666992 -2 -2.33398 -5.66699 -5.00098 -11l4 -31c-2.66699 -4.66699 -1 -8.33398 5 -11.001c0 -4 3.66699 -5.66699 11 -5l123 -1c7.33301 0.666992 11 2.33398 11 5.00098
c6 3.33301 7.66699 7 5 11l4 32zM181 231.003c2.66699 4 0.999023 7.66602 -5.00098 10.999c0 2.66699 -3.66699 4.33398 -11 5.00098l-124 -1c-6.66699 0.666992 -10.334 -1 -11.001 -5c-6 -2 -7.66699 -5.66699 -5 -11l-4 -31
c2.66699 -4.66699 4.33398 -8.33398 5.00098 -11.001c5.33301 -4 9 -5.66699 11 -5l131 -1c2 0.666992 5.66699 2.33398 11 5.00098c0.666992 3.33301 2.33398 7 5.00098 11l-4 32z" />
    <glyph glyph-name="uniE60E" unicode="&#xe60e;" 
d="M496 224l-79.9961 0.00292969v-128h32c8.66699 0 16 -3 22 -9c6.66699 -6.66699 9.66699 -14.334 9 -23.001l1 -64c-0.666992 -8.66699 -3.66699 -16.334 -9 -23.001c-7.33301 -6 -15 -9 -23 -9h-97c-8 0 -15.667 3 -23 9c-5.33301 6 -8.33301 13.667 -9 23l1 63
c-0.666992 9.33301 2.33301 16.666 9 21.999c5.33301 7.33301 13 10.333 23 9l30 2l2 126l-226 2l2 -130l30 2c10 -1.33301 17.333 -4.33301 22 -9c8 -8 11 -15.667 9 -23l3 -66c-2 -7.33301 -5 -15 -9 -23c-8.66699 -4.66699 -16.334 -7.66699 -23.001 -9l-99 2
c-6.66699 -1.33301 -14.334 1.66699 -23.001 9c-4 4.66699 -7 12.334 -9 23.001l3 61c-2 10.667 1 18 9 22c4 8.66699 11.667 11.667 23 9l28 4l4 124l-116 4c-1.33301 -2.66699 -5 -1 -11 5c-0.666992 0 -2.33398 3.66699 -5.00098 11
c2.66699 0.666992 4.33398 4.33398 5.00098 11.001c5.33301 -0.666992 9 1 11 5l243 -6l-3 102l-29 -6c-10.667 4 -18.334 7 -23.001 9c-8 10 -11 17.667 -9 23l-3 69c2 5.33301 5 12.666 9 21.999c8 3.33301 15.667 6.33301 23 9l98 -4
c7.33301 2.66699 14.666 -0.333008 21.999 -9c5.33301 -4 8.33301 -11.667 9 -23l-1 -60c0.666992 -11.333 -2.33301 -19 -9 -23c-6 -8.66699 -13.667 -11.667 -23 -9l-31 -4l-1 -92l209 -4c3.33301 2.66699 7 1 11 -5c2 0 3.66699 -3.66699 5 -11
c-1.33301 -1.33301 -3 -5 -5 -11c-4 -0.666992 -7.66699 -2.33398 -11 -5.00098z" />
    <glyph glyph-name="uniE60F" unicode="&#xe60f;" 
d="M320 64l0.000976562 -31.999l48 -1c4 0.666992 7.66699 -1 11 -5c2.66699 -2 4.33398 -5.66699 5.00098 -11c-0.666992 -3.33301 -2.33398 -7 -5.00098 -11c-3.33301 -2.66699 -7 -4.33398 -11 -5.00098l-225 1c-3.33301 -0.666992 -7 1 -11 5
c-2.66699 2 -4.33398 5.66699 -5.00098 11c0.666992 2.66699 2.33398 6.33398 5.00098 11.001c3.33301 1.33301 7 3 11 5l48 -3v35c-128 0.666992 -192 16.334 -192 47.001v270c0 10 3 17.667 9 23c6 6.66699 13.667 9.66699 23 9l447 1
c9.33301 -0.666992 16.666 -3.66699 21.999 -9c7.33301 -6.66699 10.333 -14.334 9 -23.001l2 -273c-1.33301 -28.667 -65.333 -44.334 -192 -47.001zM477.001 382.001l-446 -1l-2 -255l450 -1l-2 257v0zM63.001 157.001l-2 193l290 -1z" />
    <glyph glyph-name="uniE610" unicode="&#xe610;" 
d="M512 1c0 -4 -2.33691 -7.66895 -7.00391 -11.002c-4 -3.33301 -10.667 -6.33301 -20 -9l-29 -6c-10 -1.33301 -22.667 -2.66602 -38 -3.99902c-15.333 -0.666992 -28.666 -1.33398 -39.999 -2.00098s-26 -1 -44 -1c-17.333 -0.666992 -30.666 -1 -39.999 -1h-76v0h-40
c-27.333 0.666992 -42 1 -44 1c-2 0.666992 -15.333 1.33398 -40 2.00098s-37.334 2 -38.001 4c-0.666992 1.33301 -10 3.33301 -28 6c-18.667 1.33301 -25.667 4 -21 8c4.66699 2 2.33398 5.33301 -6.99902 10c0.666992 28 19 53.667 55 77c36 21.333 81.667 36.333 137 45
v14c-17.333 9.33301 -32.333 20 -45 32c-12.667 16 -22.667 32.333 -30 49c-7.33301 20.667 -12.666 41 -15.999 61c-3.33301 22.667 -5 45.667 -5 69c0 22.667 4 41.334 12 56.001c8.66699 18 20 31.333 34 40c15.333 11.333 32 19 50 23c20 6 40.667 8.66699 62 8
c24 0 44.667 -2.66699 62 -8c20.667 -5.33301 37.334 -13 50.001 -23c16.667 -10 28 -23.333 34 -40c10.667 -16.667 14.667 -35.667 12 -57c2.66699 -116.667 -29.333 -187.667 -96 -213l4 -16c52.667 -7.33301 98.334 -22.333 137.001 -45
c33.333 -22 51.666 -47.667 54.999 -77v8z" />
    <glyph glyph-name="uniE611" unicode="&#xe611;" 
d="M512 187c0 -3.33301 -1.33398 -6.33301 -4.00098 -9s-7 -5 -13 -7l-18 -4c-6 -1.33301 -14 -2.66602 -24 -3.99902c-9.33301 -0.666992 -17.666 -1 -24.999 -1c-6.66699 -0.666992 -15.667 -1 -27 -1c-10.667 -0.666992 -19 -1 -25 -1h-88v64v0
c-0.666992 15.333 -3.66699 28.666 -9 39.999c8.66699 2 17 3.66699 25 5v14c-32 20 -48 59.667 -48 119c0 26 9 44.667 27 56c17.333 14 40.333 20.333 69 19c27.333 1.33301 50.333 -5 69 -19c16.667 -11.333 25.667 -30 27 -56c-1.33301 -62 -17.333 -102.667 -48 -122
l-2 -12c34.667 -6 61.667 -15.333 81 -28c20.667 -15.333 31 -33.333 31 -54zM205.999 88v-11.998c33.333 -6 60.333 -15.333 81 -28c19.333 -15.333 29.666 -33.333 30.999 -54c-1.33301 -4.66699 -2.66602 -7.66699 -3.99902 -9c-4 -4 -8.33301 -6.33301 -13 -7
c-7.33301 -2.66699 -13.333 -4 -18 -4c-7.33301 -2.66699 -15.333 -4 -24 -4c-10.667 -2 -19 -2.66699 -25 -2c-8 -1.33301 -17 -1.66602 -27 -0.999023c-12 -1.33301 -20.333 -1.33301 -25 0l-50 -2l2 2l-27 -2c-15.333 1.33301 -24.333 1.66602 -27 0.999023
c0 1.33301 -8.33301 2 -25 2c-14 1.33301 -22 2.33301 -24 3c1.33301 1.33301 -4.66699 2.66602 -18 3.99902c-10 2 -14.333 4.33301 -13 7c4.66699 2.66699 3.33398 5.66699 -3.99902 9c1.33301 21.333 11.666 39.333 30.999 54c20.667 13.333 47.667 22.666 81 27.999v14
c-32 20 -48 59.667 -48 119c0 26 9 44.667 27 56c17.333 14 40.333 20.333 69 19c27.333 1.33301 50.333 -5 69 -19c16.667 -11.333 25.667 -30 27 -56c-1.33301 -62 -17.333 -102.667 -48 -122z" />
    <glyph glyph-name="uniE612" unicode="&#xe612;" 
d="M480 96l-191.998 -0.000976562v-64h32c17.333 0 32.333 -6.33301 45 -19c12 -12 18.333 -27 19 -45h-257c0.666992 17.333 7 32.333 19 45c12.667 12 27.667 18.333 45 19l32 -1v65l-192 -1c-8.66699 0.666992 -16.334 3.66699 -23.001 9c-6 6.66699 -9 14.334 -9 23.001
v320c0 8.66699 3 16 9 22c6 6.66699 13.667 9.66699 23 9l447 1c9.33301 -0.666992 16.666 -3.66699 21.999 -9c7.33301 -7.33301 10.333 -15 9 -23l2 -321c-1.33301 -8 -4.33301 -15.667 -9 -23c-7.33301 -5.33301 -15 -8.33301 -23 -9zM445.002 414.999l-382 -1l-2 -255
l386 -1l-2 257v0zM95.002 189.999l-2 193h258z" />
    <glyph glyph-name="uniE613" unicode="&#xe613;" 
d="M480 -32l-32.001 -0.000976562c-8.66699 0 -16.334 3 -23.001 9c-6 6 -9 13.667 -9 23v31c0 9.33301 3 16.666 9 21.999c6 7.33301 13.667 10.333 23 9l-1 130l-159 -2l-1 -126c9.33301 -1.33301 16.666 -4.33301 21.999 -9c7.33301 -8 10.333 -15.667 9 -23l2 -34
c-1.33301 -7.33301 -4.33301 -15 -9 -23c-8 -4.66699 -15.667 -7.66699 -23 -9l-34 2c-7.33301 -1.33301 -15 1.66699 -23 9c-4.66699 4.66699 -7.66699 12.334 -9 23.001l2 29c-1.33301 10.667 1.66699 18 9 22c4.66699 8.66699 12.334 11.667 23.001 9l-3 132l-157 -4
l-3 -124c10.667 -2.66699 18 -5.66699 22 -9c8.66699 -9.33301 11.667 -17 9 -23l4 -36c-2.66699 -6 -5.66699 -13.667 -9 -23c-9.33301 -3.33301 -17 -6.33301 -23 -9l-36 4c-6 -2.66699 -13.667 0.333008 -23 9c-3.33301 3.33301 -6.33301 11 -9 23l4 27
c-2.66699 12 0.333008 19.333 9 22c3.33301 10 11 13 23 9l-5 150c3.33301 0 5 3.66699 5 11c6 -1.33301 9.66699 0.333984 11 5.00098l180 -7l-4 103l-28 -7c-11.333 4.66699 -19 7.66699 -23 9c-8.66699 10.667 -11.667 18.334 -9 23.001l-4 102
c2.66699 4.66699 5.66699 12 9 22c8.66699 2.66699 16.334 5.66699 23.001 9l99 -5c6.66699 3.33301 14 0.333008 22 -9c4.66699 -3.33301 7.66699 -11 9 -23l-2 -91c1.33301 -12 -1.66699 -19.667 -9 -23c-5.33301 -9.33301 -13 -12.333 -23 -9l-30 -5l-2 -91l178 -5
c2.66699 3.33301 6.33398 1.66602 11.001 -5.00098c1.33301 0 3 -3.66699 5 -11l-3 -140c10.667 -2.66699 18 -5.66699 22 -9c8.66699 -9.33301 11.667 -17 9 -23l4 -36c-2.66699 -6 -5.66699 -13.667 -9 -23c-9.33301 -3.33301 -17 -6.33301 -23 -9z" />
    <glyph glyph-name="uniE614" unicode="&#xe614;" 
d="M384 -32h-256c-17.333 0 -32.333 6.33301 -45 19c-12.667 12 -19 27 -19 45v383c0 18 6.33301 33 19 45c12 12.667 27 19 45 19h255c18 0 33 -6.33301 45 -19c12.667 -12 19 -27 19 -45v-384c0 -17.333 -6.33301 -32.333 -19 -45c-12 -12.667 -27 -19 -45 -19zM255 -1
c8.66699 0 16.332 3.00195 22.999 9.00195c5.33301 6 8.33301 13.667 9 23c-0.666992 8 -3.66699 15.333 -9 22c-6.66699 6 -14.334 9 -23.001 9c-9.33301 0 -16.666 -3 -21.999 -9c-7.33301 -6.66699 -10.666 -14.334 -9.99902 -23.001
c-0.666992 -8.66699 2.33301 -16.334 9 -23.001c6 -6 13.333 -9 22 -9zM413.998 414.002h-320v-320h320v320v0zM125.998 126.002v256h192z" />
    <glyph glyph-name="uniE615" unicode="&#xe615;" 
d="M296 -32h-80.001c-48 0 -85.333 5.33301 -112 16c-26.667 10 -40 26 -40 48v383c0 22 13.333 38 40 48c26.667 10.667 64 16 112 16h80c48 0 85.333 -5.33301 112 -16c26 -10 39.333 -26 40 -48l-1 -384c0.666992 -21.333 -12.666 -37.333 -39.999 -48
c-26 -10.667 -63.333 -16 -112 -16zM415.999 415h-321l1 -384h319l1 384v0zM126.999 63l1 320h191z" />
    <glyph glyph-name="uniE616" unicode="&#xe616;" 
d="M480 63l-191.999 0.00195312v-64h48c4 0 7.66699 -1.66699 11 -5c2.66699 -2.66699 4.33398 -6.33398 5.00098 -11.001c-0.666992 -4 -2.33398 -7.66699 -5.00098 -11c-3.33301 -3.33301 -7 -5 -11 -5h-161c-3.33301 0 -7 1.66699 -11 5
c-2.66699 2.66699 -4.33398 6.33398 -5.00098 11.001c0.666992 3.33301 2.33398 7 5.00098 11c3.33301 2 7 3.66699 11 5l48 -2v65l-192 -1c-8.66699 0 -16.334 3 -23.001 9c-6 6 -9 13.333 -9 22v351c0 9.33301 3 16.666 9 21.999c6 6.66699 13.667 10 23 10h447
c9.33301 0 17 -3.33301 23 -10c6 -6 9 -13.333 9 -22v-352c0 -8.66699 -3 -16.334 -9 -23.001c-6 -6 -13.667 -9 -23 -9zM478.001 442.002h-448v-288h448v287v1zM62.001 186.002v223l320 1z" />
    <glyph glyph-name="uniE617" unicode="&#xe617;" 
d="M448 32h-384c-17.333 0 -32.333 6.33301 -45 19c-12.667 12 -19 27 -19 45v255c-0 18 6.33301 33 19 45c12 12.667 27 19 45 19h383c18 0 33 -6.33301 45 -19c12.667 -12 19 -27 19 -45v-256c0 -17.333 -6.33301 -32.333 -19 -45c-12 -12.667 -27 -19 -45 -19zM447 351
h-384v-256h384v256v0zM95 127v192h256z" />
    <glyph glyph-name="uniE618" unicode="&#xe618;" 
d="M448 0l-159.998 -0.000976562v128h128c8.66699 0 16.334 3 23.001 9c5.33301 6 8.33301 13.667 9 23l-1 191c0.666992 9.33301 -2.33301 16.666 -9 21.999c-5.33301 7.33301 -13 10.333 -23 9l-287 2c-9.33301 -1.33301 -17 -4.33301 -23 -9
c-6.66699 -8 -9.66699 -15.667 -9 -23l-1 -194c0.666992 -7.33301 3.66699 -15 9 -23c7.33301 -4.66699 14.666 -7.66699 21.999 -9l130 2l-2 -130l-158 2c-18.667 -1.33301 -33.667 5 -45 19c-14 10.667 -20.333 25.667 -19 45l-2 317
c1.33301 19.333 7.66602 34.333 18.999 45c13.333 14 28.333 20.333 45 19l353 2c16.667 -1.33301 31.667 -7.66602 45 -18.999c11.333 -13.333 17.666 -28.333 18.999 -45l-2 -322c1.33301 -16 -5 -31 -19 -45c-10.667 -11.333 -25.667 -17.666 -45 -18.999z" />
    <glyph glyph-name="uniE619" unicode="&#xe619;" 
d="M448 -32h-384c-17.333 0 -32.333 6.33301 -45 19c-12.667 12 -19 27 -19 45v383c-0 18 6.33301 33 19 45c12 12.667 27 19 45 19h383c18 0 33 -6.33301 45 -19c12.667 -12 19 -27 19 -45v-384c0 -17.333 -6.33301 -32.333 -19 -45c-12 -12.667 -27 -19 -45 -19zM63 47
c0 -4 1.66602 -7.66699 4.99902 -11c2.66699 -3.33301 6.33398 -5 11.001 -5h175l1 224h-193l1 -208v0zM253.999 415l-174.999 0.000976562c-4.66699 0 -8.33398 -1.66699 -11.001 -5c-4 -2.66699 -5.66699 -6.33398 -5 -11.001l-1 -80h193l-1 96v0zM447 399.001
c-0.666992 4 -2.33398 7.66504 -5.00098 10.998c-3.33301 2.66699 -7 4.33398 -11 5.00098l-113 -1l1 -383l111 -1c4.66699 0.666992 8.33398 2.33398 11.001 5.00098c3.33301 3.33301 5 7 5 11v352z" />
    <glyph glyph-name="uniE61A" unicode="&#xe61a;" 
d="M448 -32h-384c-17.333 0 -32.333 6.33301 -45 19c-12.667 12 -19 27 -19 45v383c-0 18 6.33301 33 19 45c12 12.667 27 19 45 19h383c18 0 33 -6.33301 45 -19c12.667 -12 19 -27 19 -45v-384c0 -17.333 -6.33301 -32.333 -19 -45c-12 -12.667 -27 -19 -45 -19zM127 399
c0 4 -1.66797 7.66602 -5.00098 10.999c-2.66699 2.66699 -6.33398 4.33398 -11.001 5.00098l-32 -1c-4 0.666992 -7.66699 -1 -11 -5c-3.33301 -2 -5 -5.66699 -5 -11v-31c0 -4.66699 1.66699 -8.33398 5 -11.001c2.66699 -4 6.33398 -5.66699 11.001 -5l31 -1
c4.66699 0.666992 8.33398 2.33398 11.001 5.00098c3.33301 3.33301 5 7 5 11v32zM221.999 397.999c0 4 -1.66797 7.66602 -5.00098 10.999c-2.66699 2.66699 -6.33398 4.33398 -11.001 5.00098l-32 -1c-4 0.666992 -7.66699 -1 -11 -5c-3.33301 -2 -5 -5.66699 -5 -11v-31
c0 -4.66699 1.66699 -8.33398 5 -11.001c2.66699 -4 6.33398 -5.66699 11.001 -5l31 -1c4.66699 0.666992 8.33398 2.33398 11.001 5.00098c3.33301 3.33301 5 7 5 11v32zM444.998 396.998c0 4 -1.66797 7.66602 -5.00098 10.999
c-2.66699 2.66699 -6.33398 4.33398 -11.001 5.00098l-160 -1c-4 0.666992 -7.66699 -1 -11 -5c-3.33301 -2 -5 -5.66699 -5 -11v-31c0 -4.66699 1.66699 -8.33398 5 -11.001c2.66699 -4 6.33398 -5.66699 11.001 -5l159 -1
c4.66699 0.666992 8.33398 2.33398 11.001 5.00098c3.33301 3.33301 5 7 5 11v32zM443.997 299.997c0 4 -1.66797 7.66602 -5.00098 10.999c-2.66699 2.66699 -6.33398 4.33398 -11.001 5.00098l-352 -1c-4 0.666992 -7.66699 -1 -11 -5c-3.33301 -2 -5 -5.66699 -5 -11
v-255c0 -4.66699 1.66699 -8.33398 5 -11.001c2.66699 -4 6.33398 -5.66699 11.001 -5l351 -1c4.66699 0.666992 8.33398 2.33398 11.001 5.00098c3.33301 3.33301 5 7 5 11v256z" />
    <glyph glyph-name="uniE61B" unicode="&#xe61b;" horiz-adv-x="403" 
d="M141 340c3.33301 0 6 1 8 3c2.66699 2 3.66699 4.66699 3 8c0.666992 2.66699 -0.333008 5.33398 -3 8.00098c-2 2 -4.66699 3 -8 3c-2.66699 0 -5.33398 -1 -8.00098 -3c-1.33301 -2.66699 -2.33301 -5.33398 -3 -8.00098c0.666992 -3.33301 1.66699 -6 3 -8
c2.66699 -2 5.33398 -3 8.00098 -3v0zM262 340c2.66699 0 5.33398 1 8.00098 3c1.33301 2 2.33301 4.66699 3 8c-0.666992 2.66699 -1.66699 5.33398 -3 8.00098c-2.66699 2 -5.33398 3 -8.00098 3c-3.33301 0 -5.66602 -1 -6.99902 -3
c-3.33301 -2.66699 -4.66602 -5.33398 -3.99902 -8.00098c-0.666992 -3.33301 0.666016 -6 3.99902 -8c1.33301 -2 3.66602 -3 6.99902 -3v0zM29 287c8.66699 0 15.668 -2.66699 21.001 -8c6.66699 -6 9.66699 -13 9 -21l1 -123c-0.666992 -8 -3.66699 -15 -9 -21
c-6 -5.33301 -13 -8 -21 -8c-8.66699 0 -15.334 2.66699 -20.001 8c-6.66699 6 -9.66699 13 -9 21l-1 123c0.666992 8 3.66699 15 9 21c6 5.33301 12.667 8 20 8v0zM333.001 282l-1 -191c0.666992 -8.66699 -2.33301 -16 -9 -22c-5.33301 -6 -12.666 -9 -21.999 -9h-20
l-1 -65c0.666992 -8 -2.33301 -15 -9 -21c-4.66699 -5.33301 -11.667 -8 -21 -8c-7.33301 0 -14.333 2.66699 -21 8c-4.66699 6 -7.33398 13 -8.00098 21l1 65h-41l1 -65c-0.666992 -8 -3.33398 -15 -8.00098 -21c-6.66699 -5.33301 -13.667 -8 -21 -8
c-8.66699 0 -15.667 2.66699 -21 8c-6 6 -8.66699 13 -8 21l-1 65h-21c-9.33301 0 -16.666 3 -21.999 9c-6.66699 6 -9.66699 13.333 -9 22l-1 191h263v0zM266.001 397c21.333 -10 37.6699 -24.333 49.0029 -43c12.667 -19.333 18.667 -40 18 -62h-263
c-0.666992 22 5.33301 42.667 18 62c11.333 18.667 27.666 33 48.999 43l-21 38c-0.666992 2.66699 -0.333984 4.66699 0.999023 6c3.33301 0.666992 5.33301 0 6 -2l22 -38c17.333 8 36.333 12 57 12c19.333 0 38.666 -4 57.999 -12l19 38c2 2 4 2.66699 6 2
c2.66699 -1.33301 3 -3.33301 1 -6zM403.005 258l-1 -123c0.666992 -8 -2 -15 -8 -21c-5.33301 -5.33301 -12.333 -8 -21 -8c-7.33301 0 -14.333 2.66699 -21 8c-4.66699 6 -7.33398 13 -8.00098 21l1 123c-0.666992 8 2 15 8 21c5.33301 5.33301 12.333 8 21 8
c7.33301 0 14.333 -2.66699 21 -8c4.66699 -6 7.33398 -13 8.00098 -21v0z" />
    <glyph glyph-name="uniE61C" unicode="&#xe61c;" horiz-adv-x="476" 
d="M195 188v-186l-195 27v159h195v0zM195 400v-188h-195v161zM475 188v-225l-259 36v189h259v0zM475 439v-227h-259v191z" />
    <glyph glyph-name="uniE61D" unicode="&#xe61d;" horiz-adv-x="403" 
d="M398 128c-7.33301 -24 -19 -47.6709 -35 -71.0039c-24.667 -38 -49.334 -56.667 -74.001 -56c-9.33301 -0.666992 -22.666 2.33301 -39.999 9c-16 5.33301 -30.333 8.33301 -43 9c-11.333 -0.666992 -24.666 -3.66699 -39.999 -9
c-15.333 -7.33301 -28 -10.666 -38 -9.99902c-28.667 -0.666992 -57.334 24 -86.001 74c-28 49.333 -42 97.333 -42 144c0 42.667 10.667 78.334 32 107.001c21.333 26.667 48.333 40.334 81 41.001c14 -0.666992 31 -3.66699 51 -9c20 -6 33 -8.66699 39 -8
c8.66699 -0.666992 22.334 2.33301 41.001 9c19.333 6 36 9.33301 50 10c22.667 -0.666992 43 -7 61 -19c9.33301 -7.33301 19 -16.666 29 -27.999c-14.667 -13.333 -25.334 -24.666 -32.001 -33.999c-12.667 -18.667 -19 -38.334 -19 -59.001c0 -24 6.66699 -45.333 20 -64
c13.333 -19.333 28.333 -31.333 45 -36v0zM291 461.996c0 -10.667 -3 -23.333 -9 -38c-5.33301 -14 -14 -27.333 -26 -40c-10.667 -9.33301 -21 -16 -31 -20c-7.33301 -2 -17.333 -3.66699 -30 -5c0.666992 28.667 8 53 22 73c14.667 21.333 38.667 35.333 72 42
c0 0.666992 0.333008 -0.333008 1 -3v-3v-3c0.666992 0 1 -1 1 -3v0z" />
    <glyph glyph-name="uniE61E" unicode="&#xe61e;" horiz-adv-x="439" 
d="M189 358c-2 0 -3.33203 -1 -3.99902 -3s-1.33398 -3 -2.00098 -3c-1.33301 0 -2 0.666992 -2 2c0 2 2 3.33301 6 4h2v0zM214.001 354c-0.666992 0 -1.66797 0.667969 -3.00098 2.00098s-3 1.66602 -5 0.999023c4.66699 2 7.66699 2 9 0
c0.666992 -1.33301 0.333984 -2.33301 -0.999023 -3v0zM114 232.001c-0.666992 0 -1.33301 -0.334961 -2 -1.00195c0 -0.666992 -0.333008 -1.66699 -1 -3c-0.666992 -2 -1.33398 -3.33301 -2.00098 -4c0 -1.33301 -0.666992 -2.66602 -2 -3.99902
c-1.33301 -2 -1.66602 -3 -0.999023 -3c0.666992 -0.666992 2 0 4 2c1.33301 1.33301 2.33301 3 3 5c0.666992 0.666992 1 1.33398 1 2.00098s0.333008 1 1 1v2v1v1v0v0c0 0.666992 -0.333008 1 -1 1v0zM358.001 128.999c0 4 -5.00488 8.00977 -15.0049 12.0098
c0.666992 3.33301 1.33398 6 2.00098 8c0.666992 2.66699 1 5.33398 1 8.00098c0.666992 2.66699 1 4.66699 1 6v6v6c0 0.666992 -0.333008 2.66699 -1 6s-1 5.33301 -1 6s-0.666992 3 -2 7c-0.666992 4 -1 6.66699 -1 8c-2 8.66699 -6.66699 18.334 -14 29.001
c-6.66699 10.667 -13.334 18 -20.001 22c4.66699 -4 10 -12 16 -24c16.667 -30.667 21.667 -57.334 15 -80.001c-2 -7.33301 -6.66699 -11.333 -14 -12c-6 -0.666992 -9.66699 1.33301 -11 6c-1.33301 4 -2 12 -2 24c0 11.333 -1 21.333 -3 30c-2 7.33301 -4 14 -6 20
c-2 5.33301 -4 9.66602 -6 12.999c-1.33301 2.66699 -2.66602 5 -3.99902 7l-4 4l-2 2c-2.66699 12 -5.66699 22 -9 30c-3.33301 7.33301 -6 12.666 -8 15.999c-2.66699 2.66699 -5 5.66699 -7 9s-3.33301 7 -4 11s0 9.33301 2 16c1.33301 6 1.66602 10.667 0.999023 14
c-1.33301 3.33301 -5.66602 5.66602 -12.999 6.99902c-2.66699 0.666992 -7 2.33398 -13 5.00098l-10 5c-1.33301 0 -2.33301 2.33301 -3 7s0 9.66699 2 15c2.66699 4.66699 6.33398 7 11.001 7c6.66699 0.666992 11.334 -2 14.001 -8c2.66699 -6.66699 3 -12.334 1 -17.001
c-2 -3.33301 -2 -5.66602 0 -6.99902c1.33301 -1.33301 4 -1.33301 8 0c2.66699 0.666992 4 4 4 10v10c-0.666992 6 -2 11 -4 15c-1.33301 3.33301 -3.33301 6 -6 8c-2 2 -4 3.66699 -6 5l-8 2c-20.667 -1.33301 -29.334 -14 -26.001 -38v-5c-1.33301 2 -4 3 -8 3
c-4 0.666992 -7.33301 0.666992 -10 0c-2 0 -3.33301 0.666992 -4 2c0 10.667 -1.66699 19 -5 25c-3.33301 6.66699 -7.66602 10 -12.999 10c-4.66699 0 -8.33398 -2.66699 -11.001 -8c-3.33301 -5.33301 -5 -11 -5 -17c0 -2.66699 0.333008 -6 1 -10
c0.666992 -4.66699 2 -8.33398 4 -11.001c1.33301 -3.33301 2.66602 -4.66602 3.99902 -3.99902c2 0.666992 3.66699 2 5 4c0.666992 2 0 2.66699 -2 2c-1.33301 0 -3 1.33301 -5 4c-1.33301 3.33301 -2.33301 6.66602 -3 9.99902c0 4 1 7.66699 3 11
c2 2.66699 5.33301 4 10 4c3.33301 0 5.66602 -2 6.99902 -6c2 -4 3 -8 3 -12v-6c-4.66699 -2.66699 -7.66699 -5.33398 -9 -8.00098s-4 -5 -8 -7l-6 -3c-2.66699 -2.66699 -4 -5.33398 -4 -8.00098c-0.666992 -2.66699 0 -4.33398 2 -5.00098c2.66699 -2 5 -4 7 -6l5 -5
c0.666992 -1.33301 2.33398 -2.66602 5.00098 -3.99902s6 -2 10 -2c8.66699 0 18.334 1.33301 29.001 4c0.666992 0.666992 3 1.33398 7 2.00098c4 1.33301 7.33301 2.33301 10 3c2 1.33301 4.66699 2.66602 8 3.99902c3.33301 2 5.33301 3.66699 6 5
c2 2.66699 4 3.33398 6 2.00098c0.666992 0 1.33398 -0.666992 2.00098 -2c0 -1.33301 -0.333008 -2.33301 -1 -3c-1.33301 -1.33301 -3 -2.33301 -5 -3c-4 -1.33301 -9.33301 -3.33301 -16 -6c-7.33301 -3.33301 -11.666 -5.33301 -12.999 -6
c-8.66699 -3.33301 -15.334 -5.33301 -20.001 -6c-4.66699 -1.33301 -12.334 -1.33301 -23.001 0c-2 0.666992 -2.66699 0.666992 -2 0c0 -1.33301 1.66699 -3.33301 5 -6c4.66699 -4 11 -6 19 -6c3.33301 0 6.66602 0.666992 9.99902 2l10 4
c3.33301 1.33301 6.66602 3 9.99902 5s6 3.66699 8 5c2.66699 1.33301 5 2.33301 7 3c2.66699 0.666992 4.33398 1 5.00098 1c1.33301 -0.666992 2.33301 -1.66699 3 -3v-2c-0.666992 0 -1.33398 -0.333008 -2.00098 -1c0 -0.666992 -0.333008 -1 -1 -1
c-0.666992 -0.666992 -1.66699 -1.33398 -3 -2.00098c-0.666992 -0.666992 -1.33398 -1 -2.00098 -1s-1.66699 -0.333008 -3 -1s-2.33301 -1.33398 -3 -2.00098c-5.33301 -2.66699 -11.666 -6.66699 -18.999 -12c-7.33301 -6 -13.666 -10.333 -18.999 -13
c-5.33301 -2 -10 -2 -14 0s-10 9 -18 21c-4 6 -6.33301 8 -7 6c-0.666992 -0.666992 -1 -1.66699 -1 -3c0 -4.66699 -1.33301 -10 -4 -16s-5.33398 -11.333 -8.00098 -16c-2.66699 -4 -4.66699 -9.33301 -6 -16s-0.333008 -12.667 3 -18
c-4.66699 -1.33301 -10.667 -10 -18 -26s-11.666 -29.333 -12.999 -40c-0.666992 -3.33301 -1 -10 -1 -20c0 -9.33301 -0.333008 -15 -1 -17c-2 -4.66699 -5 -5 -9 -1c-6 6 -9.33301 15 -10 27c-0.666992 5.33301 -0.333984 10.666 0.999023 15.999
c0.666992 4 0.666992 5.66699 0 5l-1 -1c-7.33301 -12.667 -6.33301 -28.334 3 -47.001c0.666992 -2.66699 3 -5.33398 7 -8.00098c3.33301 -3.33301 5.66602 -5.33301 6.99902 -6c3.33301 -4.66699 13 -13.334 29 -26.001s25 -20 27 -22
c2.66699 -2.66699 4.33398 -6.33398 5.00098 -11.001c0 -4 -1.33301 -8 -4 -12c-3.33301 -4 -7.66602 -6.33301 -12.999 -7c1.33301 -2.66699 4 -6.66699 8 -12c4 -6 6.66699 -11.333 8 -16s2 -11.334 2 -20.001c8.66699 4.66699 9.33398 13.334 2.00098 26.001
c-0.666992 2 -1.66699 3.66699 -3 5l-3 3v2c0.666992 1.33301 2 2.33301 4 3c1.33301 0.666992 3 0.333984 5 -0.999023c8.66699 -10 24.667 -13.333 48 -10c25.333 2.66699 42 11 50 25c4.66699 7.33301 8 10 10 8c2 -0.666992 3 -5.66699 3 -15
c0 -4.66699 -2.33301 -13.334 -7 -26.001c-1.33301 -4 -1.66602 -7.66699 -0.999023 -11c0 -2.66699 2 -4 6 -4c0.666992 3.33301 2.33398 10.666 5.00098 21.999c2 11.333 3 20 3 26c0.666992 4 0.333984 11 -0.999023 21c-2 10 -3 19 -3 27
c0.666992 8.66699 3 15.667 7 21c2.66699 3.33301 7.66699 5 15 5c0 6.66699 3 11.667 9 15c6.66699 2.66699 13.667 3.66699 21 3c7.33301 -1.33301 13 -3.66602 17 -6.99902v0zM178.996 366.009c0.666992 3.33301 0.332031 5.99902 -1.00098 7.99902
c-0.666992 2.66699 -1.66699 4.33398 -3 5.00098c-2 0 -3 -0.666992 -3 -2c0.666992 -1.33301 1.33398 -2 2.00098 -2c2 0 2.66699 -1.33301 2 -4c-0.666992 -4 0 -6 2 -6c0.666992 0 1 0.333008 1 1v0zM298.994 309.008c-0.666992 2 -1.33301 3.33008 -2 3.99707
c-1.33301 0.666992 -2.66602 1 -3.99902 1l-4 2c-1.33301 0.666992 -2.33301 1.33398 -3 2.00098l-2 2c-0.666992 0.666992 -1 1.33398 -1 2.00098c-0.666992 0.666992 -1.33398 1 -2.00098 1h-1c-2.66699 -3.33301 -2 -7.66602 2 -12.999
c4 -4.66699 7.66699 -7.66699 11 -9c2 0 3.66699 1 5 3c0.666992 1.33301 1 3 1 5v0zM247.995 370.005c0 2 -0.666992 4.00098 -2 6.00098c-0.666992 1.33301 -1.66699 2.33301 -3 3c-1.33301 1.33301 -2 1.66602 -2 0.999023c-2.66699 0 -3.33398 -0.666992 -2.00098 -2h1
c2.66699 -0.666992 4.33398 -3.66699 5.00098 -9c0 -0.666992 0.666992 -0.666992 2 0zM262.995 437.006l-1 0.996094c0 0.666992 -0.666992 1.33398 -2 2.00098s-2.33301 1.33398 -3 2.00098c-2.66699 2.66699 -5 4 -7 4c-1.33301 0 -2.33301 -0.666992 -3 -2
s-0.666992 -2.66602 0 -3.99902v-3c-0.666992 -0.666992 -1.33398 -1.66699 -2.00098 -3c-1.33301 -1.33301 -2 -2.33301 -2 -3l1 -2c0.666992 -0.666992 1.33398 -0.666992 2.00098 0s1.66699 1.33398 3 2.00098c1.33301 1.33301 3 2.33301 5 3h2c2 0 3.66699 0.333008 5 1
c1.33301 0 2 0.666992 2 2v0zM424.995 54.002c3.33301 -2.66699 5.99023 -4.99707 7.99023 -6.99707c2.66699 -2.66699 4 -5 4 -7s-0.333008 -4.33301 -1 -7c-0.666992 -2 -2 -4 -4 -6c-2.66699 -2 -5 -3.66699 -7 -5c-2 -2 -5 -4 -9 -6
c-3.33301 -2 -6.33301 -3.33301 -9 -4c-2 -1.33301 -5 -3 -9 -5c-3.33301 -1.33301 -5.66602 -2.66602 -6.99902 -3.99902c-7.33301 -3.33301 -15.666 -8.66602 -24.999 -15.999c-8.66699 -6.66699 -15.667 -12.667 -21 -18c-3.33301 -2.66699 -10 -4.33398 -20 -5.00098
c-9.33301 -0.666992 -17.666 0.666016 -24.999 3.99902c-3.33301 1.33301 -6.33301 3.33301 -9 6c-2 3.33301 -3.33301 6 -4 8c-1.33301 2 -3.66602 3.66699 -6.99902 5c-3.33301 2 -7.66602 3 -12.999 3h-37h-17c-6.66699 -0.666992 -12 -1 -16 -1
c-8.66699 0 -16.334 -1.33301 -23.001 -4s-11.667 -5.66699 -15 -9c-3.33301 -2.66699 -7.66602 -5.33398 -12.999 -8.00098c-4.66699 -2 -9.66699 -3 -15 -3s-16 3 -32 9c-15.333 5.33301 -29 9.33301 -41 12c-4 0.666992 -9 1.66699 -15 3
c-6 0.666992 -10.667 1.33398 -14 2.00098s-7 1.66699 -11 3c-4.66699 1.33301 -8 2.66602 -10 3.99902c-2 2 -3.66699 4 -5 6c-2 4 -1.33301 10.333 2 19c3.33301 8 5 13 5 15c0.666992 3.33301 0.333984 7.33301 -0.999023 12c-0.666992 4.66699 -1.66699 8.66699 -3 12
c-0.666992 3.33301 -1 6.66602 -1 9.99902s1 6 3 8c2.66699 2 8 3.33301 16 4c8.66699 0.666992 14.334 1.66699 17.001 3c6 4 10 7.33301 12 10c2.66699 3.33301 4 8.33301 4 15c4 -14 1 -24 -9 -30c-6 -4 -14 -5.66699 -24 -5c-6.66699 0.666992 -10.667 0 -12 -2
c-2.66699 -3.33301 -2.33398 -9 0.999023 -17c0.666992 -0.666992 1.33398 -2.33398 2.00098 -5.00098c1.33301 -2 2.33301 -3.66699 3 -5s1 -3 1 -5c0.666992 -2 0.666992 -4 0 -6c0 -2.66699 -1.33301 -7.33398 -4 -14.001
c-3.33301 -6.66699 -4.66602 -11.334 -3.99902 -14.001c0 -3.33301 3.33301 -5.66602 10 -6.99902c4 -1.33301 12 -3.33301 24 -6c12.667 -2 22.334 -3.66699 29.001 -5c4.66699 -1.33301 11.667 -3.66602 21 -6.99902c9.33301 -2.66699 17 -4.66699 23 -6
c6.66699 -1.33301 12 -1.66602 16 -0.999023c8.66699 0.666992 15 3.33398 19 8.00098c4 4 6 8.33301 6 13c0.666992 5.33301 0 11 -2 17c-1.33301 6 -3 11 -5 15l-6 10c-23.333 36.667 -39.333 59.667 -48 69c-13.333 14.667 -24.333 18.667 -33 12
c-2 -2 -3.33301 -0.666992 -4 4c-0.666992 3.33301 -0.666992 7 0 11c0 5.33301 0.666992 10.333 2 15c2 4 4.33301 8.33301 7 13c3.33301 4.66699 5.66602 8.66699 6.99902 12l7 21c3.33301 9.33301 6.33301 16.666 9 21.999c2 5.33301 4.66699 11.333 8 18
c4 6 7.66699 11 11 15c21.333 27.333 33.333 46 36 56c-2.66699 21.333 -4.33398 50.666 -5.00098 87.999c0 17.333 2.33301 32 7 44c4.66699 11.333 14.667 21 30 29c7.33301 4 17.333 6 30 6c10 0.666992 20 -0.333008 30 -3c10 -3.33301 18.667 -7.33301 26 -12
c10.667 -8 19.334 -19.667 26.001 -35s9.33398 -29.333 8.00098 -42c-0.666992 -18 2.33301 -38.333 9 -61c6.66699 -22 19.334 -43 38.001 -63c10.667 -10.667 20 -26 28 -46c8.66699 -20 14.334 -38.333 17.001 -55c2 -9.33301 2.66699 -17.333 2 -24s-2 -12 -4 -16
c-1.33301 -3.33301 -3 -5.33301 -5 -6s-4.33301 -2.33398 -7 -5.00098c-2.66699 -3.33301 -5.33398 -7 -8.00098 -11c-2.66699 -3.33301 -6.33398 -6.33301 -11.001 -9c-5.33301 -2.66699 -11.333 -4 -18 -4c-3.33301 0 -6.33301 0.333008 -9 1s-4.66699 2 -6 4
c-2 2 -3.33301 3.66699 -4 5c-0.666992 0.666992 -1.66699 2.33398 -3 5.00098c-1.33301 3.33301 -2.33301 5.33301 -3 6c-4 7.33301 -8 10.333 -12 9c-3.33301 -1.33301 -6 -6 -8 -14c-1.33301 -8 -0.666016 -17.333 2.00098 -28c4 -13.333 4.33301 -32 1 -56
c-2 -12 -0.333008 -21.667 5 -29c5.33301 -6.66699 12.333 -9.66699 21 -9c8 0.666992 16 4 24 10c11.333 9.33301 19.666 15.666 24.999 18.999c6 3.33301 16 7.33301 30 12c10 3.33301 17.333 7 22 11c4.66699 3.33301 6.33398 6.66602 5.00098 9.99902
c-0.666992 2.66699 -3 5.33398 -7 8.00098c-3.33301 2 -8.33301 4 -15 6c-6 2.66699 -10.667 7.33398 -14 14.001c-2.66699 7.33301 -4 14.333 -4 21s1.33301 11 4 13c0.666992 -5.33301 1.66699 -10.666 3 -15.999c1.33301 -4.66699 2.66602 -8.33398 3.99902 -11.001
c1.33301 -3.33301 3.33301 -6 6 -8c2 -2.66699 4 -4.66699 6 -6c1.33301 -0.666992 3.33301 -2 6 -4c2.66699 -1.33301 4.33398 -2 5.00098 -2v0z" />
    <glyph glyph-name="uniE61F" unicode="&#xe61f;" horiz-adv-x="549" 
d="M256 219c0 20 -7 37.333 -21 52c-14.667 14 -32 21.333 -52 22c-20 -0.666992 -37.333 -8 -52 -22c-14 -14.667 -21 -32 -21 -52c0 -20.667 7 -37.667 21 -51c14.667 -15.333 32 -22.666 52 -21.999c20 -0.666992 37.333 6.66602 52 21.999c14 13.333 21 30.333 21 51v0z
M475 72c0 10.667 -3.33301 19.334 -10 26.001c-7.33301 8 -16 11.667 -26 11c-10 0.666992 -18.667 -3 -26 -11c-7.33301 -6.66699 -11 -15.334 -11 -26.001c0 -9.33301 3.66699 -18 11 -26c7.33301 -6 16 -9.33301 26 -10c10 0.666992 18.667 4 26 10
c6.66699 8 10 16.667 10 26v0zM475 366c0 9.33301 -3.33301 17.666 -10 24.999c-7.33301 6.66699 -16 10.334 -26 11.001c-10 -0.666992 -18.667 -4.33398 -26 -11.001c-7.33301 -7.33301 -11 -15.666 -11 -24.999c0 -10.667 3.66699 -19.334 11 -26.001
c7.33301 -8 16 -11.667 26 -11c10 -0.666992 18.667 3 26 11c6.66699 6.66699 10 15.334 10 26.001v0zM366 244v-50.998c0 -2.66699 -0.666992 -4.66699 -2 -6c-1.33301 -2.66699 -3 -3.66699 -5 -3l-44 -8c-2 -6 -5 -13.333 -9 -22l25 -32
c1.33301 -1.33301 2 -3.33301 2 -6c0 -2 -0.666992 -4 -2 -6c-4 -4.66699 -11.667 -13 -23 -25c-11.333 -10.667 -19 -16.334 -23 -17.001l-6 2l-32 27c-7.33301 -4.66699 -14.666 -7.66699 -21.999 -9c-2.66699 -21.333 -5 -36.333 -7 -45
c-1.33301 -4.66699 -4.33301 -6.66699 -9 -6l-53 -1c-2 0.666992 -3.66699 1.33398 -5 2.00098c-2 2 -3 3.66699 -3 5l-7 44c-6.66699 1.33301 -13.667 4.33301 -21 9l-34 -26c-1.33301 -0.666992 -3.33301 -1.33398 -6 -2.00098l-6 2c-27.333 26 -41 41.333 -41 46
c0 2 0.666992 3.66699 2 5c2 3.33301 6 8.33301 12 15c6 8.66699 10.333 14.667 13 18c-4 8.66699 -7.33301 16.334 -10 23.001l-43 8c-2 -0.666992 -3.66699 0.333008 -5 3c-1.33301 0.666992 -2 2.33398 -2 5.00098v52c0 2.66699 0.666992 4.66699 2 6
c1.33301 2.66699 3 3.66699 5 3l44 8c2 6 5 13 9 21l-26 33c-1.33301 1.33301 -2 3.33301 -2 6c0 1.33301 0.666992 3.33301 2 6l24 25c11.333 10.667 18.666 16.334 21.999 17.001l6 -2l33 -27c6.66699 4 14 7 22 9c2 21.333 4.33301 36 7 44
c1.33301 5.33301 4 7.66602 8 6.99902l53 1c2.66699 -0.666992 4.66699 -1.33398 6 -2.00098c2 -2 3 -3.66699 3 -5l7 -45c6 -0.666992 13 -3.33398 21 -8.00098l34 26c1.33301 0.666992 3 1.33398 5 2.00098c2.66699 -0.666992 4.66699 -1.33398 6 -2.00098
c28 -26 42 -41.333 42 -46c0 -2.66699 -0.666992 -4.33398 -2 -5.00098c-2.66699 -4 -6.66699 -9.33301 -12 -16l-13 -17l9 -23l44 -8c2 0 3.66699 -1 5 -3c1.33301 -0.666992 2 -2.66699 2 -6v0zM549 93.002l-0.000976562 -41.001c0 -2 -14.333 -5 -43 -9
c-2 -4 -5 -9 -9 -15c10 -20.667 15 -33.667 15 -39l-1 -2c-23.333 -12.667 -35.333 -19.334 -36 -20.001c-1.33301 0.666992 -5.66602 5 -12.999 13c-7.33301 10 -12.333 16.667 -15 20c-3.33301 0 -6 -0.333008 -8 -1c-2 0.666992 -5 1 -9 1
c-2.66699 -3.33301 -7.66699 -10 -15 -20c-6.66699 -8 -11 -12.333 -13 -13c0 0.666992 -11.667 7.33398 -35 20.001l-1 2c0 5.33301 4.66699 18.333 14 39c-3.33301 6 -6 11 -8 15c-28.667 4 -43 7 -43 9v41c0 2.66699 14.333 5.66699 43 9c2 4.66699 4.66699 9.66699 8 15
c-9.33301 20.667 -14 33.667 -14 39l1 2c0.666992 0 4 2 10 6c6 2.66699 11.667 6 17 10c5.33301 2 8 3.33301 8 4c2 -0.666992 6.33301 -5 13 -13l15 -19c4 -0.666992 7 -0.666992 9 0c2 -0.666992 4.66699 -0.666992 8 0c10 12.667 19 23.334 27 32.001l1 -1
c1.33301 0.666992 13.333 -6 36 -20c0.666992 0 1 -0.666992 1 -2c0 -4 -5 -17 -15 -39c3.33301 -4 6.33301 -9 9 -15c28.667 -2 43 -5 43 -9v1zM548.999 386.001l-0.000976562 -41.001c0 -2.66699 -14.333 -5.66699 -43 -9c-2 -4.66699 -5 -9.66699 -9 -15
c10 -20.667 15 -33.667 15 -39c0 -0.666992 -0.333008 -1.33398 -1 -2.00098c-23.333 -13.333 -35.333 -20.333 -36 -21c-1.33301 0.666992 -5.66602 5.33398 -12.999 14.001l-15 19c-3.33301 0.666992 -6 0.666992 -8 0c-2 0.666992 -5 0.666992 -9 0l-15 -19
c-6.66699 -8.66699 -11 -13.334 -13 -14.001c0 0.666992 -11.667 7.66699 -35 21c-0.666992 0.666992 -1 1.33398 -1 2.00098c0 5.33301 4.66699 18.333 14 39c-3.33301 5.33301 -6 10.333 -8 15c-28.667 3.33301 -43 6.33301 -43 9v41c0 2 14.333 5 43 9
c2 4.66699 4.66699 9.33398 8 14.001c-9.33301 21.333 -14 34.666 -14 39.999l1 2c0.666992 -0.666992 4 1.33301 10 6c6 2.66699 11.667 5.66699 17 9c5.33301 2.66699 8 4.33398 8 5.00098c2 -0.666992 6.33301 -5 13 -13c7.33301 -10 12.333 -16.667 15 -20
c4 0 7 0.333008 9 1c2 -0.666992 4.66699 -1 8 -1c10 13.333 19 24 27 32h1c1.33301 0.666992 13.333 -6 36 -20c0.666992 0 1 -0.666992 1 -2c0 -4 -5 -17.333 -15 -40c3.33301 -3.33301 6.33301 -8 9 -14c28.667 -2.66699 43 -5.66699 43 -9v1z" />
  </font>
</defs>
</svg>
