<svg version="1.1" width="250" height="250" viewBox="0 0 250 250" xmlns="http://www.w3.org/2000/svg" xmlns:xlink="http://www.w3.org/1999/xlink" id="Layer_1" overflow="hidden"><defs><linearGradient x1="175" y1="111.872" x2="175" y2="-135.081" gradientUnits="userSpaceOnUse" id="bottom_1_" gradientTransform="matrix(1,0,0,-1,-50,111)"><stop offset="0" stop-color="#002E3B"/><stop offset="1" stop-color="#002639"/></linearGradient><radialGradient cx="63.3041" cy="235.613" r="219.798" gradientUnits="userSpaceOnUse" id="right_2_"><stop offset="0" stop-color="#00BC85"/><stop offset="1" stop-color="#149D91"/></radialGradient><radialGradient cx="186.827" cy="123.781" r="265.557" gradientUnits="userSpaceOnUse" id="right-2_1_" gradientTransform="matrix(1,0,0,-1,-50,111)"><stop offset="0" stop-color="#00BC85"/><stop offset="1" stop-color="#149D91"/></radialGradient><radialGradient cx="118.056" cy="143.238" r="507.591" gradientUnits="userSpaceOnUse" id="left_2_" gradientTransform="matrix(1,0,0,-1,-50,111)"><stop offset="0" stop-color="#004473"/><stop offset="1" stop-color="#00345F"/></radialGradient><linearGradient x1="174.922" y1="110.614" x2="174.922" y2="-135.09" gradientUnits="userSpaceOnUse" id="top_1_" gradientTransform="matrix(1,0,0,-1,-50,111)"><stop offset="0" stop-color="#002E3B"/><stop offset="1" stop-color="#002639"/></linearGradient></defs><path d=" M 124.913 210.751 L 89.063 193.264 L 89.103 193.245 L 89.093 193.24 L 51 211.82 L 124.941 247.884 L 199 211.9 L 160.771 192.962 Z" id="bottom" stroke="url(#bottom_1_)" fill="url(#bottom_1_)"/><path d=" M 51.091 211.945 L 51.091 174.781 L 87.749 156.903 L 125.455 175.5 Z" id="right_1_" stroke="url(#right_2_)" fill="url(#right_2_)"/><path d=" M 165.596 58.995 L 165.596 117.758 L 165.596 117.758 L 165.596 117.758 L 124.611 137.737 L 162.301 156.506 L 198.996 138.632 L 198.996 38.123 Z" id="right-2" stroke="url(#right-2_1_)" fill="url(#right-2_1_)"/><path d=" M 199 211.912 L 199 211.912 L 199 174.746 L 84.498 117.723 L 84.498 58.96 L 51.096 38.088 L 51.096 138.597 Z" id="left_1_" stroke="url(#left_2_)" fill="url(#left_2_)"/><path d=" M 84.396 58.904 L 84.396 58.892 L 124.939 39.118 L 165.485 58.892 L 198.844 38.046 L 124.912 1.985 L 51 38.035 L 51 38.067 L 84.368 58.918 Z" id="top" stroke="url(#top_1_)" fill="url(#top_1_)"/></svg>