<?xml version="1.0" encoding="UTF-8" standalone="no"?>
<!DOCTYPE svg PUBLIC "-//W3C//DTD SVG 1.1//EN"
 "http://www.w3.org/Graphics/SVG/1.1/DTD/svg11.dtd">
<!-- Generated by graphviz version 2.28.0 (20110507.0327)
 -->
<!-- Title: Frameworks Pages: 1 -->
<svg width="922pt" height="867pt"
 viewBox="0.00 0.00 922.30 866.73" xmlns="http://www.w3.org/2000/svg" xmlns:xlink="http://www.w3.org/1999/xlink">
<g id="graph1" class="graph" transform="scale(1 1) rotate(0) translate(4 862.73)">
<title>Frameworks</title>
<polygon fill="white" stroke="white" points="-4,5 -4,-862.73 919.3,-862.73 919.3,5 -4,5"/>
<text text-anchor="middle" x="457.15" y="-7.4" font-family="Times New Roman,serif" font-size="12.00">Frameworks</text>
<!-- mobile -->
<g id="node1" class="node"><title>mobile</title>
<polygon fill="lightblue" stroke="lightblue" points="257.451,-178.827 203.451,-178.827 203.451,-142.827 257.451,-142.827 257.451,-178.827"/>
<text text-anchor="middle" x="230.451" y="-157.127" font-family="Times New Roman,serif" font-size="14.00">mobile</text>
</g>
<!-- ios -->
<g id="node6" class="node"><title>ios</title>
<polygon fill="lightblue" stroke="lightblue" points="103.59,-140.1 49.5904,-140.1 49.5904,-104.1 103.59,-104.1 103.59,-140.1"/>
<text text-anchor="middle" x="76.5904" y="-118.4" font-family="Times New Roman,serif" font-size="14.00">ios</text>
</g>
<!-- mobile&#45;&gt;ios -->
<g id="edge5" class="edge"><title>mobile&#45;&gt;ios</title>
<path fill="none" stroke="black" d="M203.298,-153.992C178.327,-147.707 141.093,-138.335 113.443,-131.376"/>
<polygon fill="black" stroke="black" points="114.282,-127.978 103.73,-128.931 112.573,-134.766 114.282,-127.978"/>
</g>
<!-- winphone -->
<g id="node7" class="node"><title>winphone</title>
<polygon fill="lightblue" stroke="lightblue" points="230.106,-77.3679 159.606,-77.3679 159.606,-41.3679 230.106,-41.3679 230.106,-77.3679"/>
<text text-anchor="middle" x="194.856" y="-55.6679" font-family="Times New Roman,serif" font-size="14.00">winphone</text>
</g>
<!-- mobile&#45;&gt;winphone -->
<g id="edge6" class="edge"><title>mobile&#45;&gt;winphone</title>
<path fill="none" stroke="black" d="M224.087,-142.688C218.705,-127.345 210.902,-105.106 204.712,-87.4623"/>
<polygon fill="black" stroke="black" points="207.898,-85.9692 201.285,-77.6917 201.293,-88.2866 207.898,-85.9692"/>
</g>
<!-- android -->
<g id="node8" class="node"><title>android</title>
<polygon fill="lightblue" stroke="lightblue" points="358.914,-57 300.414,-57 300.414,-21 358.914,-21 358.914,-57"/>
<text text-anchor="middle" x="329.664" y="-35.3" font-family="Times New Roman,serif" font-size="14.00">android</text>
</g>
<!-- mobile&#45;&gt;android -->
<g id="edge7" class="edge"><title>mobile&#45;&gt;android</title>
<path fill="none" stroke="black" d="M245.304,-142.588C262.035,-122.043 289.366,-88.4834 308.367,-65.1515"/>
<polygon fill="black" stroke="black" points="311.108,-67.3275 314.709,-57.3633 305.681,-62.9072 311.108,-67.3275"/>
</g>
<!-- desktop -->
<g id="node2" class="node"><title>desktop</title>
<polygon fill="lightblue" stroke="lightblue" points="261.451,-738.878 199.451,-738.878 199.451,-702.878 261.451,-702.878 261.451,-738.878"/>
<text text-anchor="middle" x="230.451" y="-717.178" font-family="Times New Roman,serif" font-size="14.00">desktop</text>
</g>
<!-- linux -->
<g id="node9" class="node"><title>linux</title>
<polygon fill="lightblue" stroke="lightblue" points="355.293,-858.73 301.293,-858.73 301.293,-822.73 355.293,-822.73 355.293,-858.73"/>
<text text-anchor="middle" x="328.293" y="-837.03" font-family="Times New Roman,serif" font-size="14.00">linux</text>
</g>
<!-- desktop&#45;&gt;linux -->
<g id="edge54" class="edge"><title>desktop&#45;&gt;linux</title>
<path fill="none" stroke="black" d="M245.311,-739.081C261.689,-759.144 288.18,-791.594 306.815,-814.422"/>
<polygon fill="black" stroke="black" points="304.257,-816.823 313.293,-822.356 309.68,-812.396 304.257,-816.823"/>
</g>
<!-- windows -->
<g id="node10" class="node"><title>windows</title>
<polygon fill="lightblue" stroke="lightblue" points="231.099,-839.215 164.599,-839.215 164.599,-803.215 231.099,-803.215 231.099,-839.215"/>
<text text-anchor="middle" x="197.849" y="-817.515" font-family="Times New Roman,serif" font-size="14.00">windows</text>
</g>
<!-- desktop&#45;&gt;windows -->
<g id="edge55" class="edge"><title>desktop&#45;&gt;windows</title>
<path fill="none" stroke="black" d="M224.471,-739.282C219.554,-754.415 212.508,-776.1 206.9,-793.36"/>
<polygon fill="black" stroke="black" points="203.553,-792.336 203.791,-802.928 210.21,-794.499 203.553,-792.336"/>
</g>
<!-- mac -->
<g id="node11" class="node"><title>mac</title>
<polygon fill="lightblue" stroke="lightblue" points="107.848,-778.331 53.8478,-778.331 53.8478,-742.331 107.848,-742.331 107.848,-778.331"/>
<text text-anchor="middle" x="80.8478" y="-756.631" font-family="Times New Roman,serif" font-size="14.00">mac</text>
</g>
<!-- desktop&#45;&gt;mac -->
<g id="edge56" class="edge"><title>desktop&#45;&gt;mac</title>
<path fill="none" stroke="black" d="M199.089,-729.149C175.443,-735.385 142.935,-743.957 117.988,-750.536"/>
<polygon fill="black" stroke="black" points="116.927,-747.196 108.15,-753.131 118.712,-753.965 116.927,-747.196"/>
</g>
<!-- platform -->
<g id="node3" class="node"><title>platform</title>
<polygon fill="lightblue" stroke="lightblue" points="671.437,-311.852 607.437,-311.852 607.437,-275.852 671.437,-275.852 671.437,-311.852"/>
<text text-anchor="middle" x="639.437" y="-290.152" font-family="Times New Roman,serif" font-size="14.00">platform</text>
</g>
<!-- web -->
<g id="node4" class="node"><title>web</title>
<polygon fill="lightblue" stroke="lightblue" points="747.413,-188.518 693.413,-188.518 693.413,-152.518 747.413,-152.518 747.413,-188.518"/>
<text text-anchor="middle" x="720.413" y="-166.818" font-family="Times New Roman,serif" font-size="14.00">web</text>
</g>
<!-- device -->
<g id="node5" class="node"><title>device</title>
<polygon fill="lightblue" stroke="lightblue" points="54,-458.852 0,-458.852 0,-422.852 54,-422.852 54,-458.852"/>
<text text-anchor="middle" x="27" y="-437.152" font-family="Times New Roman,serif" font-size="14.00">device</text>
</g>
<!-- device&#45;&gt;mobile -->
<g id="edge12" class="edge"><title>device&#45;&gt;mobile</title>
<path fill="none" stroke="black" d="M40.349,-422.479C75.4249,-374.201 170.301,-243.615 211.229,-187.283"/>
<polygon fill="black" stroke="black" points="214.271,-189.051 217.317,-178.903 208.608,-184.936 214.271,-189.051"/>
</g>
<!-- device&#45;&gt;desktop -->
<g id="edge13" class="edge"><title>device&#45;&gt;desktop</title>
<path fill="none" stroke="black" d="M40.349,-459.226C75.4249,-507.504 170.301,-638.09 211.229,-694.422"/>
<polygon fill="black" stroke="black" points="208.608,-696.769 217.317,-702.801 214.271,-692.654 208.608,-696.769"/>
</g>
<!-- html5 -->
<g id="node20" class="node"><title>html5</title>
<polygon fill="green" stroke="green" points="642.873,-458.852 588.873,-458.852 588.873,-422.852 642.873,-422.852 642.873,-458.852"/>
<text text-anchor="middle" x="615.873" y="-437.152" font-family="Times New Roman,serif" font-size="14.00">html5</text>
</g>
<!-- html5&#45;&gt;web -->
<g id="edge16" class="edge"><title>html5&#45;&gt;web</title>
<path fill="none" stroke="black" d="M622.895,-422.695C640.823,-376.333 688.379,-253.356 709.749,-198.093"/>
<polygon fill="black" stroke="black" points="713.08,-199.185 713.422,-188.596 706.551,-196.66 713.08,-199.185"/>
</g>
<!-- cordovaSDK -->
<g id="node23" class="node"><title>cordovaSDK</title>
<polygon fill="green" stroke="green" points="128.482,-285.787 37.9824,-285.787 37.9824,-249.787 128.482,-249.787 128.482,-285.787"/>
<text text-anchor="middle" x="83.2324" y="-264.087" font-family="Times New Roman,serif" font-size="14.00">cordovaSDK</text>
</g>
<!-- html5&#45;&gt;cordovaSDK -->
<g id="edge17" class="edge"><title>html5&#45;&gt;cordovaSDK</title>
<path fill="none" stroke="black" d="M588.727,-432.032C505.301,-404.925 251.49,-322.457 138.5,-285.744"/>
<polygon fill="black" stroke="black" points="139.579,-282.415 128.987,-282.653 137.416,-289.072 139.579,-282.415"/>
</g>
<!-- nodeWebkitSDK -->
<g id="node24" class="node"><title>nodeWebkitSDK</title>
<polygon fill="green" stroke="green" points="139.482,-631.918 26.9824,-631.918 26.9824,-595.918 139.482,-595.918 139.482,-631.918"/>
<text text-anchor="middle" x="83.2324" y="-610.218" font-family="Times New Roman,serif" font-size="14.00">nodeWebkitSDK</text>
</g>
<!-- html5&#45;&gt;nodeWebkitSDK -->
<g id="edge18" class="edge"><title>html5&#45;&gt;nodeWebkitSDK</title>
<path fill="none" stroke="black" d="M588.727,-449.673C507.691,-476.003 265.896,-554.567 148.552,-592.694"/>
<polygon fill="black" stroke="black" points="147.386,-589.393 138.957,-595.812 149.55,-596.05 147.386,-589.393"/>
</g>
<!-- phonegapSDK -->
<g id="node25" class="node"><title>phonegapSDK</title>
<polygon fill="green" stroke="green" points="608.891,-285.787 510.391,-285.787 510.391,-249.787 608.891,-249.787 608.891,-285.787"/>
<text text-anchor="middle" x="559.641" y="-264.087" font-family="Times New Roman,serif" font-size="14.00">phonegapSDK</text>
</g>
<!-- html5&#45;&gt;phonegapSDK -->
<g id="edge19" class="edge"><title>html5&#45;&gt;phonegapSDK</title>
<path fill="none" stroke="black" d="M609.962,-422.658C600.132,-392.406 580.361,-331.558 568.743,-295.799"/>
<polygon fill="black" stroke="black" points="571.977,-294.426 565.558,-285.997 565.319,-296.589 571.977,-294.426"/>
</g>
<!-- titaniumSDK -->
<g id="node26" class="node"><title>titaniumSDK</title>
<polygon fill="green" stroke="green" points="456.423,-178.827 368.423,-178.827 368.423,-142.827 456.423,-142.827 456.423,-178.827"/>
<text text-anchor="middle" x="412.423" y="-157.127" font-family="Times New Roman,serif" font-size="14.00">titaniumSDK</text>
</g>
<!-- html5&#45;&gt;titaniumSDK -->
<g id="edge20" class="edge"><title>html5&#45;&gt;titaniumSDK</title>
<path fill="none" stroke="black" d="M602.524,-422.479C567.448,-374.201 472.572,-243.615 431.644,-187.283"/>
<polygon fill="black" stroke="black" points="434.266,-184.936 425.556,-178.903 428.603,-189.051 434.266,-184.936"/>
</g>
<!-- tideSDK -->
<g id="node27" class="node"><title>tideSDK</title>
<polygon fill="green" stroke="green" points="444.673,-738.878 380.173,-738.878 380.173,-702.878 444.673,-702.878 444.673,-738.878"/>
<text text-anchor="middle" x="412.423" y="-717.178" font-family="Times New Roman,serif" font-size="14.00">tideSDK</text>
</g>
<!-- html5&#45;&gt;tideSDK -->
<g id="edge21" class="edge"><title>html5&#45;&gt;tideSDK</title>
<path fill="none" stroke="black" d="M602.524,-459.226C567.448,-507.504 472.572,-638.09 431.644,-694.422"/>
<polygon fill="black" stroke="black" points="428.603,-692.654 425.556,-702.801 434.266,-696.769 428.603,-692.654"/>
</g>
<!-- deskshellSDK -->
<g id="node28" class="node"><title>deskshellSDK</title>
<polygon fill="green" stroke="green" points="606.891,-631.918 512.391,-631.918 512.391,-595.918 606.891,-595.918 606.891,-631.918"/>
<text text-anchor="middle" x="559.641" y="-610.218" font-family="Times New Roman,serif" font-size="14.00">deskshellSDK</text>
</g>
<!-- html5&#45;&gt;deskshellSDK -->
<g id="edge22" class="edge"><title>html5&#45;&gt;deskshellSDK</title>
<path fill="none" stroke="black" d="M609.962,-459.046C600.132,-489.299 580.361,-550.147 568.743,-585.906"/>
<polygon fill="black" stroke="black" points="565.319,-585.116 565.558,-595.708 571.977,-587.279 565.319,-585.116"/>
</g>
<!-- cordovaSDK&#45;&gt;mobile -->
<g id="edge59" class="edge"><title>cordovaSDK&#45;&gt;mobile</title>
<path fill="none" stroke="black" d="M108.206,-249.643C132.634,-231.895 169.997,-204.749 196.986,-185.14"/>
<polygon fill="black" stroke="black" points="199.322,-187.769 205.355,-179.06 195.207,-182.106 199.322,-187.769"/>
</g>
<!-- cordovaSDK&#45;&gt;desktop -->
<g id="edge60" class="edge"><title>cordovaSDK&#45;&gt;desktop</title>
<path fill="none" stroke="black" d="M89.0944,-285.828C111.785,-355.664 193.947,-608.531 221.427,-693.107"/>
<polygon fill="black" stroke="black" points="218.153,-694.356 224.572,-702.785 224.81,-692.193 218.153,-694.356"/>
</g>
<!-- nodeWebkitSDK&#45;&gt;desktop -->
<g id="edge66" class="edge"><title>nodeWebkitSDK&#45;&gt;desktop</title>
<path fill="none" stroke="black" d="M108.206,-632.062C132.634,-649.81 169.997,-676.956 196.986,-696.565"/>
<polygon fill="black" stroke="black" points="195.207,-699.599 205.355,-702.645 199.322,-693.935 195.207,-699.599"/>
</g>
<!-- phonegapSDK&#45;&gt;mobile -->
<g id="edge34" class="edge"><title>phonegapSDK&#45;&gt;mobile</title>
<path fill="none" stroke="black" d="M510.358,-251.774C443.893,-230.178 327.016,-192.202 267.514,-172.869"/>
<polygon fill="black" stroke="black" points="268.376,-169.469 257.784,-169.708 266.213,-176.127 268.376,-169.469"/>
</g>
<!-- titaniumSDK&#45;&gt;mobile -->
<g id="edge31" class="edge"><title>titaniumSDK&#45;&gt;mobile</title>
<path fill="none" stroke="black" d="M368.372,-160.827C337.551,-160.827 296.835,-160.827 267.645,-160.827"/>
<polygon fill="black" stroke="black" points="267.451,-157.327 257.451,-160.827 267.451,-164.327 267.451,-157.327"/>
</g>
<!-- tideSDK&#45;&gt;desktop -->
<g id="edge25" class="edge"><title>tideSDK&#45;&gt;desktop</title>
<path fill="none" stroke="black" d="M379.89,-720.878C349.633,-720.878 304.421,-720.878 271.654,-720.878"/>
<polygon fill="black" stroke="black" points="271.487,-717.378 261.487,-720.878 271.487,-724.378 271.487,-717.378"/>
</g>
<!-- deskshellSDK&#45;&gt;desktop -->
<g id="edge63" class="edge"><title>deskshellSDK&#45;&gt;desktop</title>
<path fill="none" stroke="black" d="M512.125,-629.357C447.359,-650.401 332.447,-687.738 271.331,-707.595"/>
<polygon fill="black" stroke="black" points="270.072,-704.325 261.643,-710.743 272.235,-710.982 270.072,-704.325"/>
</g>
<!-- rapSDK -->
<g id="node31" class="node"><title>rapSDK</title>
<polygon fill="green" stroke="green" points="809.026,-304.615 747.026,-304.615 747.026,-268.615 809.026,-268.615 809.026,-304.615"/>
<text text-anchor="middle" x="778.026" y="-282.915" font-family="Times New Roman,serif" font-size="14.00">rapSDK</text>
</g>
<!-- rapSDK&#45;&gt;html5 -->
<g id="edge28" class="edge"><title>rapSDK&#45;&gt;html5</title>
<path fill="none" stroke="black" d="M758.788,-304.913C729.819,-332.469 674.917,-384.69 642.241,-415.772"/>
<polygon fill="black" stroke="black" points="639.669,-413.388 634.835,-422.816 644.493,-418.46 639.669,-413.388"/>
</g>
<!-- openFLSDK -->
<g id="node38" class="node"><title>openFLSDK</title>
<polygon fill="green" stroke="green" points="773.282,-511.15 684.782,-511.15 684.782,-475.15 773.282,-475.15 773.282,-511.15"/>
<text text-anchor="middle" x="729.032" y="-489.45" font-family="Times New Roman,serif" font-size="14.00">openFLSDK</text>
</g>
<!-- openFLSDK&#45;&gt;html5 -->
<g id="edge37" class="edge"><title>openFLSDK&#45;&gt;html5</title>
<path fill="none" stroke="black" d="M689.772,-475.006C677.583,-469.372 664.207,-463.19 652.224,-457.652"/>
<polygon fill="black" stroke="black" points="653.509,-454.39 642.963,-453.372 650.572,-460.745 653.509,-454.39"/>
</g>
<!-- haxeSDK -->
<g id="node41" class="node"><title>haxeSDK</title>
<polygon fill="green" stroke="green" points="914.3,-530.43 844.3,-530.43 844.3,-494.43 914.3,-494.43 914.3,-530.43"/>
<text text-anchor="middle" x="879.3" y="-508.73" font-family="Times New Roman,serif" font-size="14.00">haxeSDK</text>
</g>
<!-- haxeSDK&#45;&gt;openFLSDK -->
<g id="edge40" class="edge"><title>haxeSDK&#45;&gt;openFLSDK</title>
<path fill="none" stroke="black" d="M844.069,-507.91C826.036,-505.596 803.683,-502.728 783.49,-500.137"/>
<polygon fill="black" stroke="black" points="783.836,-496.653 773.472,-498.852 782.945,-503.596 783.836,-496.653"/>
</g>
<!-- nodejsSDK -->
<g id="node44" class="node"><title>nodejsSDK</title>
<polygon fill="green" stroke="green" points="424.937,-464.852 343.937,-464.852 343.937,-428.852 424.937,-428.852 424.937,-464.852"/>
<text text-anchor="middle" x="384.437" y="-443.152" font-family="Times New Roman,serif" font-size="14.00">nodejsSDK</text>
</g>
<!-- gwtSDK -->
<g id="node47" class="node"><title>gwtSDK</title>
<polygon fill="green" stroke="green" points="755.722,-724.616 691.222,-724.616 691.222,-688.616 755.722,-688.616 755.722,-724.616"/>
<text text-anchor="middle" x="723.472" y="-702.916" font-family="Times New Roman,serif" font-size="14.00">gwtSDK</text>
</g>
<!-- gwtSDK&#45;&gt;html5 -->
<g id="edge45" class="edge"><title>gwtSDK&#45;&gt;html5</title>
<path fill="none" stroke="black" d="M716.076,-688.349C697.527,-642.533 648.942,-522.532 626.96,-468.237"/>
<polygon fill="black" stroke="black" points="630.175,-466.852 623.178,-458.896 623.687,-469.479 630.175,-466.852"/>
</g>
</g>
</svg>
