<?xml version="1.0" encoding="UTF-8" standalone="no"?>
<!DOCTYPE svg PUBLIC "-//W3C//DTD SVG 1.1//EN"
 "http://www.w3.org/Graphics/SVG/1.1/DTD/svg11.dtd">
<!-- Generated by graphviz version 2.28.0 (20110507.0327)
 -->
<!-- Title: Frameworks Pages: 1 -->
<svg width="794pt" height="425pt"
 viewBox="0.00 0.00 794.00 425.00" xmlns="http://www.w3.org/2000/svg" xmlns:xlink="http://www.w3.org/1999/xlink">
<g id="graph1" class="graph" transform="scale(1 1) rotate(0) translate(4 421)">
<title>Frameworks</title>
<polygon fill="white" stroke="white" points="-4,5 -4,-421 791,-421 791,5 -4,5"/>
<text text-anchor="middle" x="393" y="-7.4" font-family="Times New Roman,serif" font-size="12.00">Frameworks</text>
<!-- mobile -->
<g id="node1" class="node"><title>mobile</title>
<polygon fill="lightblue" stroke="lightblue" points="239,-129 185,-129 185,-93 239,-93 239,-129"/>
<text text-anchor="middle" x="212" y="-107.3" font-family="Times New Roman,serif" font-size="14.00">mobile</text>
</g>
<!-- ios -->
<g id="node6" class="node"><title>ios</title>
<polygon fill="lightblue" stroke="lightblue" points="158,-57 104,-57 104,-21 158,-21 158,-57"/>
<text text-anchor="middle" x="131" y="-35.3" font-family="Times New Roman,serif" font-size="14.00">ios</text>
</g>
<!-- mobile&#45;&gt;ios -->
<g id="edge5" class="edge"><title>mobile&#45;&gt;ios</title>
<path fill="none" stroke="black" d="M191.978,-92.6966C181.874,-83.9655 169.464,-73.2405 158.482,-63.7503"/>
<polygon fill="black" stroke="black" points="160.647,-60.9948 150.792,-57.1043 156.07,-66.2912 160.647,-60.9948"/>
</g>
<!-- winphone -->
<g id="node7" class="node"><title>winphone</title>
<polygon fill="lightblue" stroke="lightblue" points="247.25,-57 176.75,-57 176.75,-21 247.25,-21 247.25,-57"/>
<text text-anchor="middle" x="212" y="-35.3" font-family="Times New Roman,serif" font-size="14.00">winphone</text>
</g>
<!-- mobile&#45;&gt;winphone -->
<g id="edge6" class="edge"><title>mobile&#45;&gt;winphone</title>
<path fill="none" stroke="black" d="M212,-92.6966C212,-84.9827 212,-75.7125 212,-67.1124"/>
<polygon fill="black" stroke="black" points="215.5,-67.1043 212,-57.1043 208.5,-67.1044 215.5,-67.1043"/>
</g>
<!-- android -->
<g id="node8" class="node"><title>android</title>
<polygon fill="lightblue" stroke="lightblue" points="324.25,-57 265.75,-57 265.75,-21 324.25,-21 324.25,-57"/>
<text text-anchor="middle" x="295" y="-35.3" font-family="Times New Roman,serif" font-size="14.00">android</text>
</g>
<!-- mobile&#45;&gt;android -->
<g id="edge7" class="edge"><title>mobile&#45;&gt;android</title>
<path fill="none" stroke="black" d="M232.517,-92.6966C242.869,-83.9655 255.586,-73.2405 266.839,-63.7503"/>
<polygon fill="black" stroke="black" points="269.331,-66.2269 274.719,-57.1043 264.818,-60.8759 269.331,-66.2269"/>
</g>
<!-- desktop -->
<g id="node2" class="node"><title>desktop</title>
<polygon fill="lightblue" stroke="lightblue" points="565,-129 503,-129 503,-93 565,-93 565,-129"/>
<text text-anchor="middle" x="534" y="-107.3" font-family="Times New Roman,serif" font-size="14.00">desktop</text>
</g>
<!-- linux -->
<g id="node9" class="node"><title>linux</title>
<polygon fill="lightblue" stroke="lightblue" points="482,-57 428,-57 428,-21 482,-21 482,-57"/>
<text text-anchor="middle" x="455" y="-35.3" font-family="Times New Roman,serif" font-size="14.00">linux</text>
</g>
<!-- desktop&#45;&gt;linux -->
<g id="edge54" class="edge"><title>desktop&#45;&gt;linux</title>
<path fill="none" stroke="black" d="M514.472,-92.6966C504.618,-83.9655 492.514,-73.2405 481.804,-63.7503"/>
<polygon fill="black" stroke="black" points="484.109,-61.1166 474.303,-57.1043 479.467,-66.3558 484.109,-61.1166"/>
</g>
<!-- windows -->
<g id="node10" class="node"><title>windows</title>
<polygon fill="lightblue" stroke="lightblue" points="567.25,-57 500.75,-57 500.75,-21 567.25,-21 567.25,-57"/>
<text text-anchor="middle" x="534" y="-35.3" font-family="Times New Roman,serif" font-size="14.00">windows</text>
</g>
<!-- desktop&#45;&gt;windows -->
<g id="edge55" class="edge"><title>desktop&#45;&gt;windows</title>
<path fill="none" stroke="black" d="M534,-92.6966C534,-84.9827 534,-75.7125 534,-67.1124"/>
<polygon fill="black" stroke="black" points="537.5,-67.1043 534,-57.1043 530.5,-67.1044 537.5,-67.1043"/>
</g>
<!-- mac -->
<g id="node11" class="node"><title>mac</title>
<polygon fill="lightblue" stroke="lightblue" points="640,-57 586,-57 586,-21 640,-21 640,-57"/>
<text text-anchor="middle" x="613" y="-35.3" font-family="Times New Roman,serif" font-size="14.00">mac</text>
</g>
<!-- desktop&#45;&gt;mac -->
<g id="edge56" class="edge"><title>desktop&#45;&gt;mac</title>
<path fill="none" stroke="black" d="M553.528,-92.6966C563.382,-83.9655 575.486,-73.2405 586.196,-63.7503"/>
<polygon fill="black" stroke="black" points="588.533,-66.3558 593.697,-57.1043 583.891,-61.1166 588.533,-66.3558"/>
</g>
<!-- platform -->
<g id="node3" class="node"><title>platform</title>
<polygon fill="lightblue" stroke="lightblue" points="549,-417 485,-417 485,-381 549,-381 549,-417"/>
<text text-anchor="middle" x="517" y="-395.3" font-family="Times New Roman,serif" font-size="14.00">platform</text>
</g>
<!-- web -->
<g id="node4" class="node"><title>web</title>
<polygon fill="lightblue" stroke="lightblue" points="459,-201 405,-201 405,-165 459,-165 459,-201"/>
<text text-anchor="middle" x="432" y="-179.3" font-family="Times New Roman,serif" font-size="14.00">web</text>
</g>
<!-- device -->
<g id="node5" class="node"><title>device</title>
<polygon fill="lightblue" stroke="lightblue" points="387,-201 333,-201 333,-165 387,-165 387,-201"/>
<text text-anchor="middle" x="360" y="-179.3" font-family="Times New Roman,serif" font-size="14.00">device</text>
</g>
<!-- device&#45;&gt;mobile -->
<g id="edge12" class="edge"><title>device&#45;&gt;mobile</title>
<path fill="none" stroke="black" d="M332.855,-169.161C309.146,-157.947 274.536,-141.578 248.424,-129.227"/>
<polygon fill="black" stroke="black" points="249.76,-125.988 239.224,-124.876 246.767,-132.316 249.76,-125.988"/>
</g>
<!-- device&#45;&gt;desktop -->
<g id="edge13" class="edge"><title>device&#45;&gt;desktop</title>
<path fill="none" stroke="black" d="M387.029,-168.972C390.041,-167.599 393.076,-166.25 396,-165 428.263,-151.21 465.422,-137.033 493.048,-126.816"/>
<polygon fill="black" stroke="black" points="494.592,-129.978 502.768,-123.239 492.175,-123.408 494.592,-129.978"/>
</g>
<!-- html5 -->
<g id="node20" class="node"><title>html5</title>
<polygon fill="green" stroke="green" points="459,-273 405,-273 405,-237 459,-237 459,-273"/>
<text text-anchor="middle" x="432" y="-251.3" font-family="Times New Roman,serif" font-size="14.00">html5</text>
</g>
<!-- html5&#45;&gt;web -->
<g id="edge16" class="edge"><title>html5&#45;&gt;web</title>
<path fill="none" stroke="black" d="M432,-236.697C432,-228.983 432,-219.712 432,-211.112"/>
<polygon fill="black" stroke="black" points="435.5,-211.104 432,-201.104 428.5,-211.104 435.5,-211.104"/>
</g>
<!-- cordovaSDK -->
<g id="node23" class="node"><title>cordovaSDK</title>
<polygon fill="green" stroke="green" points="314.25,-201 223.75,-201 223.75,-165 314.25,-165 314.25,-201"/>
<text text-anchor="middle" x="269" y="-179.3" font-family="Times New Roman,serif" font-size="14.00">cordovaSDK</text>
</g>
<!-- html5&#45;&gt;cordovaSDK -->
<g id="edge17" class="edge"><title>html5&#45;&gt;cordovaSDK</title>
<path fill="none" stroke="black" d="M404.717,-242.284C381.104,-232.143 346.378,-217.23 317.965,-205.028"/>
<polygon fill="black" stroke="black" points="319.166,-201.734 308.596,-201.004 316.403,-208.166 319.166,-201.734"/>
</g>
<!-- nodeWebkitSDK -->
<g id="node24" class="node"><title>nodeWebkitSDK</title>
<polygon fill="green" stroke="green" points="590.25,-201 477.75,-201 477.75,-165 590.25,-165 590.25,-201"/>
<text text-anchor="middle" x="534" y="-179.3" font-family="Times New Roman,serif" font-size="14.00">nodeWebkitSDK</text>
</g>
<!-- html5&#45;&gt;nodeWebkitSDK -->
<g id="edge18" class="edge"><title>html5&#45;&gt;nodeWebkitSDK</title>
<path fill="none" stroke="black" d="M456.952,-236.876C470.042,-227.893 486.26,-216.763 500.436,-207.034"/>
<polygon fill="black" stroke="black" points="502.687,-209.734 508.952,-201.19 498.726,-203.962 502.687,-209.734"/>
</g>
<!-- phonegapSDK -->
<g id="node25" class="node"><title>phonegapSDK</title>
<polygon fill="green" stroke="green" points="205.25,-201 106.75,-201 106.75,-165 205.25,-165 205.25,-201"/>
<text text-anchor="middle" x="156" y="-179.3" font-family="Times New Roman,serif" font-size="14.00">phonegapSDK</text>
</g>
<!-- html5&#45;&gt;phonegapSDK -->
<g id="edge19" class="edge"><title>html5&#45;&gt;phonegapSDK</title>
<path fill="none" stroke="black" d="M404.708,-247.796C365.102,-238.699 289.176,-220.912 215.258,-201.28"/>
<polygon fill="black" stroke="black" points="215.881,-197.824 205.317,-198.625 214.075,-204.587 215.881,-197.824"/>
</g>
<!-- titaniumSDK -->
<g id="node26" class="node"><title>titaniumSDK</title>
<polygon fill="green" stroke="green" points="88,-201 0,-201 0,-165 88,-165 88,-201"/>
<text text-anchor="middle" x="44" y="-179.3" font-family="Times New Roman,serif" font-size="14.00">titaniumSDK</text>
</g>
<!-- html5&#45;&gt;titaniumSDK -->
<g id="edge20" class="edge"><title>html5&#45;&gt;titaniumSDK</title>
<path fill="none" stroke="black" d="M404.802,-251.132C348.965,-244.939 217.31,-228.774 98.1236,-201.069"/>
<polygon fill="black" stroke="black" points="98.6398,-197.595 88.1033,-198.705 97.0325,-204.408 98.6398,-197.595"/>
</g>
<!-- tideSDK -->
<g id="node27" class="node"><title>tideSDK</title>
<polygon fill="green" stroke="green" points="673.25,-201 608.75,-201 608.75,-165 673.25,-165 673.25,-201"/>
<text text-anchor="middle" x="641" y="-179.3" font-family="Times New Roman,serif" font-size="14.00">tideSDK</text>
</g>
<!-- html5&#45;&gt;tideSDK -->
<g id="edge21" class="edge"><title>html5&#45;&gt;tideSDK</title>
<path fill="none" stroke="black" d="M459.114,-246.098C492.332,-236.257 550.21,-218.587 599,-201 599.097,-200.965 599.194,-200.93 599.292,-200.895"/>
<polygon fill="black" stroke="black" points="600.401,-204.217 608.536,-197.429 597.944,-197.662 600.401,-204.217"/>
</g>
<!-- deskshellSDK -->
<g id="node28" class="node"><title>deskshellSDK</title>
<polygon fill="green" stroke="green" points="786.25,-201 691.75,-201 691.75,-165 786.25,-165 786.25,-201"/>
<text text-anchor="middle" x="739" y="-179.3" font-family="Times New Roman,serif" font-size="14.00">deskshellSDK</text>
</g>
<!-- html5&#45;&gt;deskshellSDK -->
<g id="edge22" class="edge"><title>html5&#45;&gt;deskshellSDK</title>
<path fill="none" stroke="black" d="M459.172,-248.987C503.598,-240.631 594.703,-222.825 681.727,-200.958"/>
<polygon fill="black" stroke="black" points="682.661,-204.332 691.494,-198.482 680.941,-197.546 682.661,-204.332"/>
</g>
<!-- cordovaSDK&#45;&gt;mobile -->
<g id="edge59" class="edge"><title>cordovaSDK&#45;&gt;mobile</title>
<path fill="none" stroke="black" d="M254.91,-164.697C248.077,-156.305 239.743,-146.07 232.244,-136.861"/>
<polygon fill="black" stroke="black" points="234.956,-134.649 225.928,-129.104 229.528,-139.069 234.956,-134.649"/>
</g>
<!-- cordovaSDK&#45;&gt;desktop -->
<g id="edge60" class="edge"><title>cordovaSDK&#45;&gt;desktop</title>
<path fill="none" stroke="black" d="M314.265,-167.803C317.554,-166.834 320.824,-165.891 324,-165 382.364,-148.627 450.497,-131.858 492.951,-121.684"/>
<polygon fill="black" stroke="black" points="493.995,-125.033 502.909,-119.306 492.369,-118.225 493.995,-125.033"/>
</g>
<!-- nodeWebkitSDK&#45;&gt;desktop -->
<g id="edge66" class="edge"><title>nodeWebkitSDK&#45;&gt;desktop</title>
<path fill="none" stroke="black" d="M534,-164.697C534,-156.983 534,-147.712 534,-139.112"/>
<polygon fill="black" stroke="black" points="537.5,-139.104 534,-129.104 530.5,-139.104 537.5,-139.104"/>
</g>
<!-- phonegapSDK&#45;&gt;mobile -->
<g id="edge34" class="edge"><title>phonegapSDK&#45;&gt;mobile</title>
<path fill="none" stroke="black" d="M169.843,-164.697C176.489,-156.389 184.578,-146.277 191.887,-137.141"/>
<polygon fill="black" stroke="black" points="194.803,-139.099 198.317,-129.104 189.336,-134.727 194.803,-139.099"/>
</g>
<!-- titaniumSDK&#45;&gt;mobile -->
<g id="edge31" class="edge"><title>titaniumSDK&#45;&gt;mobile</title>
<path fill="none" stroke="black" d="M85.0974,-164.876C112.783,-153.341 148.967,-138.264 175.61,-127.162"/>
<polygon fill="black" stroke="black" points="177.077,-130.343 184.961,-123.266 174.384,-123.882 177.077,-130.343"/>
</g>
<!-- tideSDK&#45;&gt;desktop -->
<g id="edge25" class="edge"><title>tideSDK&#45;&gt;desktop</title>
<path fill="none" stroke="black" d="M614.825,-164.876C600.964,-155.808 583.759,-144.552 568.789,-134.759"/>
<polygon fill="black" stroke="black" points="570.56,-131.735 560.276,-129.19 566.728,-137.593 570.56,-131.735"/>
</g>
<!-- deskshellSDK&#45;&gt;desktop -->
<g id="edge63" class="edge"><title>deskshellSDK&#45;&gt;desktop</title>
<path fill="none" stroke="black" d="M691.711,-165.853C656.304,-153.762 608.368,-137.394 574.669,-125.887"/>
<polygon fill="black" stroke="black" points="575.726,-122.549 565.131,-122.63 573.464,-129.174 575.726,-122.549"/>
</g>
<!-- rapSDK -->
<g id="node31" class="node"><title>rapSDK</title>
<polygon fill="green" stroke="green" points="369,-345 307,-345 307,-309 369,-309 369,-345"/>
<text text-anchor="middle" x="338" y="-323.3" font-family="Times New Roman,serif" font-size="14.00">rapSDK</text>
</g>
<!-- rapSDK&#45;&gt;html5 -->
<g id="edge28" class="edge"><title>rapSDK&#45;&gt;html5</title>
<path fill="none" stroke="black" d="M361.236,-308.697C373.188,-299.796 387.923,-288.823 400.847,-279.199"/>
<polygon fill="black" stroke="black" points="403.101,-281.884 409.031,-273.104 398.92,-276.27 403.101,-281.884"/>
</g>
<!-- openFLSDK -->
<g id="node38" class="node"><title>openFLSDK</title>
<polygon fill="green" stroke="green" points="476.25,-345 387.75,-345 387.75,-309 476.25,-309 476.25,-345"/>
<text text-anchor="middle" x="432" y="-323.3" font-family="Times New Roman,serif" font-size="14.00">openFLSDK</text>
</g>
<!-- openFLSDK&#45;&gt;html5 -->
<g id="edge37" class="edge"><title>openFLSDK&#45;&gt;html5</title>
<path fill="none" stroke="black" d="M432,-308.697C432,-300.983 432,-291.712 432,-283.112"/>
<polygon fill="black" stroke="black" points="435.5,-283.104 432,-273.104 428.5,-283.104 435.5,-283.104"/>
</g>
<!-- haxeSDK -->
<g id="node41" class="node"><title>haxeSDK</title>
<polygon fill="green" stroke="green" points="467,-417 397,-417 397,-381 467,-381 467,-417"/>
<text text-anchor="middle" x="432" y="-395.3" font-family="Times New Roman,serif" font-size="14.00">haxeSDK</text>
</g>
<!-- haxeSDK&#45;&gt;openFLSDK -->
<g id="edge40" class="edge"><title>haxeSDK&#45;&gt;openFLSDK</title>
<path fill="none" stroke="black" d="M432,-380.697C432,-372.983 432,-363.712 432,-355.112"/>
<polygon fill="black" stroke="black" points="435.5,-355.104 432,-345.104 428.5,-355.104 435.5,-355.104"/>
</g>
<!-- nodejsSDK -->
<g id="node44" class="node"><title>nodejsSDK</title>
<polygon fill="green" stroke="green" points="648.25,-417 567.75,-417 567.75,-381 648.25,-381 648.25,-417"/>
<text text-anchor="middle" x="608" y="-395.3" font-family="Times New Roman,serif" font-size="14.00">nodejsSDK</text>
</g>
<!-- gwtSDK -->
<g id="node47" class="node"><title>gwtSDK</title>
<polygon fill="green" stroke="green" points="559.25,-345 494.75,-345 494.75,-309 559.25,-309 559.25,-345"/>
<text text-anchor="middle" x="527" y="-323.3" font-family="Times New Roman,serif" font-size="14.00">gwtSDK</text>
</g>
<!-- gwtSDK&#45;&gt;html5 -->
<g id="edge45" class="edge"><title>gwtSDK&#45;&gt;html5</title>
<path fill="none" stroke="black" d="M503.517,-308.697C491.437,-299.796 476.546,-288.823 463.484,-279.199"/>
<polygon fill="black" stroke="black" points="465.34,-276.219 455.213,-273.104 461.187,-281.854 465.34,-276.219"/>
</g>
</g>
</svg>
