<?xml version="1.0" encoding="UTF-8" standalone="no"?>
<!DOCTYPE svg PUBLIC "-//W3C//DTD SVG 1.1//EN"
 "http://www.w3.org/Graphics/SVG/1.1/DTD/svg11.dtd">
<!-- Generated by graphviz version 2.28.0 (20110507.0327)
 -->
<!-- Title: Frameworks Pages: 1 -->
<svg width="1017pt" height="679pt"
 viewBox="0.00 0.00 1017.00 679.00" xmlns="http://www.w3.org/2000/svg" xmlns:xlink="http://www.w3.org/1999/xlink">
<g id="graph1" class="graph" transform="scale(1 1) rotate(0) translate(4 675)">
<title>Frameworks</title>
<polygon fill="white" stroke="white" points="-4,5 -4,-675 1014,-675 1014,5 -4,5"/>
<text text-anchor="middle" x="504.5" y="-7.4" font-family="Times New Roman,serif" font-size="12.00">Frameworks</text>
<!-- mobile -->
<g id="node1" class="node"><title>mobile</title>
<polygon fill="lightblue" stroke="lightblue" points="477.232,-522.747 423.232,-522.747 423.232,-486.747 477.232,-486.747 477.232,-522.747"/>
<text text-anchor="middle" x="450.232" y="-501.047" font-family="Times New Roman,serif" font-size="14.00">mobile</text>
</g>
<!-- ios -->
<g id="node6" class="node"><title>ios</title>
<polygon fill="lightblue" stroke="lightblue" points="709.692,-442.118 655.692,-442.118 655.692,-406.118 709.692,-406.118 709.692,-442.118"/>
<text text-anchor="middle" x="682.692" y="-420.418" font-family="Times New Roman,serif" font-size="14.00">ios</text>
</g>
<!-- mobile&#45;&gt;ios -->
<g id="edge5" class="edge"><title>mobile&#45;&gt;ios</title>
<path fill="none" stroke="black" d="M477.353,-495.34C519.059,-480.874 599.021,-453.139 645.907,-436.877"/>
<polygon fill="black" stroke="black" points="647.084,-440.173 655.385,-433.59 644.79,-433.56 647.084,-440.173"/>
</g>
<!-- winphone -->
<g id="node7" class="node"><title>winphone</title>
<polygon fill="lightblue" stroke="lightblue" points="338.251,-656.023 267.751,-656.023 267.751,-620.023 338.251,-620.023 338.251,-656.023"/>
<text text-anchor="middle" x="303.001" y="-634.323" font-family="Times New Roman,serif" font-size="14.00">winphone</text>
</g>
<!-- mobile&#45;&gt;winphone -->
<g id="edge6" class="edge"><title>mobile&#45;&gt;winphone</title>
<path fill="none" stroke="black" d="M430.069,-522.999C404.297,-546.328 359.563,-586.822 330.633,-613.01"/>
<polygon fill="black" stroke="black" points="327.986,-610.685 322.921,-619.991 332.683,-615.875 327.986,-610.685"/>
</g>
<!-- android -->
<g id="node8" class="node"><title>android</title>
<polygon fill="lightblue" stroke="lightblue" points="644.9,-301.299 586.4,-301.299 586.4,-265.299 644.9,-265.299 644.9,-301.299"/>
<text text-anchor="middle" x="615.65" y="-279.599" font-family="Times New Roman,serif" font-size="14.00">android</text>
</g>
<!-- mobile&#45;&gt;android -->
<g id="edge7" class="edge"><title>mobile&#45;&gt;android</title>
<path fill="none" stroke="black" d="M463.769,-486.625C492.982,-447.517 562.039,-355.069 596.041,-309.55"/>
<polygon fill="black" stroke="black" points="598.978,-311.467 602.158,-301.361 593.369,-307.278 598.978,-311.467"/>
</g>
<!-- desktop -->
<g id="node2" class="node"><title>desktop</title>
<polygon fill="lightblue" stroke="lightblue" points="287.293,-225.881 225.293,-225.881 225.293,-189.881 287.293,-189.881 287.293,-225.881"/>
<text text-anchor="middle" x="256.293" y="-204.181" font-family="Times New Roman,serif" font-size="14.00">desktop</text>
</g>
<!-- linux -->
<g id="node9" class="node"><title>linux</title>
<polygon fill="lightblue" stroke="lightblue" points="140.331,-107.864 86.3311,-107.864 86.3311,-71.8639 140.331,-71.8639 140.331,-107.864"/>
<text text-anchor="middle" x="113.331" y="-86.1639" font-family="Times New Roman,serif" font-size="14.00">linux</text>
</g>
<!-- desktop&#45;&gt;linux -->
<g id="edge54" class="edge"><title>desktop&#45;&gt;linux</title>
<path fill="none" stroke="black" d="M234.269,-189.699C209.851,-169.542 170.332,-136.919 143.154,-114.483"/>
<polygon fill="black" stroke="black" points="145.086,-111.539 135.146,-107.872 140.63,-116.938 145.086,-111.539"/>
</g>
<!-- windows -->
<g id="node10" class="node"><title>windows</title>
<polygon fill="lightblue" stroke="lightblue" points="333.644,-57.335 267.144,-57.335 267.144,-21.335 333.644,-21.335 333.644,-57.335"/>
<text text-anchor="middle" x="300.394" y="-35.635" font-family="Times New Roman,serif" font-size="14.00">windows</text>
</g>
<!-- desktop&#45;&gt;windows -->
<g id="edge55" class="edge"><title>desktop&#45;&gt;windows</title>
<path fill="none" stroke="black" d="M261.013,-189.844C268.685,-160.521 283.919,-102.299 293.027,-67.4904"/>
<polygon fill="black" stroke="black" points="296.496,-68.0577 295.642,-57.4974 289.724,-66.2858 296.496,-68.0577"/>
</g>
<!-- mac -->
<g id="node11" class="node"><title>mac</title>
<polygon fill="lightblue" stroke="lightblue" points="53.7695,-295.077 -0.23052,-295.077 -0.23052,-259.077 53.7695,-259.077 53.7695,-295.077"/>
<text text-anchor="middle" x="26.7695" y="-273.377" font-family="Times New Roman,serif" font-size="14.00">mac</text>
</g>
<!-- desktop&#45;&gt;mac -->
<g id="edge56" class="edge"><title>desktop&#45;&gt;mac</title>
<path fill="none" stroke="black" d="M224.86,-217.357C182.742,-230.055 108.134,-252.547 63.4829,-266.009"/>
<polygon fill="black" stroke="black" points="62.4571,-262.662 53.893,-268.9 64.4777,-269.364 62.4571,-262.662"/>
</g>
<!-- platform -->
<g id="node3" class="node"><title>platform</title>
<polygon fill="lightblue" stroke="lightblue" points="564.145,-107.296 500.145,-107.296 500.145,-71.2963 564.145,-71.2963 564.145,-107.296"/>
<text text-anchor="middle" x="532.145" y="-85.5963" font-family="Times New Roman,serif" font-size="14.00">platform</text>
</g>
<!-- web -->
<g id="node4" class="node"><title>web</title>
<polygon fill="lightblue" stroke="lightblue" points="695.479,-188.195 641.479,-188.195 641.479,-152.195 695.479,-152.195 695.479,-188.195"/>
<text text-anchor="middle" x="668.479" y="-166.495" font-family="Times New Roman,serif" font-size="14.00">web</text>
</g>
<!-- device -->
<g id="node5" class="node"><title>device</title>
<polygon fill="lightblue" stroke="lightblue" points="222.046,-472.25 168.046,-472.25 168.046,-436.25 222.046,-436.25 222.046,-472.25"/>
<text text-anchor="middle" x="195.046" y="-450.55" font-family="Times New Roman,serif" font-size="14.00">device</text>
</g>
<!-- device&#45;&gt;mobile -->
<g id="edge12" class="edge"><title>device&#45;&gt;mobile</title>
<path fill="none" stroke="black" d="M222.355,-459.654C268.306,-468.747 361.133,-487.116 413.009,-497.381"/>
<polygon fill="black" stroke="black" points="412.629,-500.874 423.119,-499.382 413.988,-494.007 412.629,-500.874"/>
</g>
<!-- device&#45;&gt;desktop -->
<g id="edge13" class="edge"><title>device&#45;&gt;desktop</title>
<path fill="none" stroke="black" d="M199.549,-436.133C210.124,-393.598 236.602,-287.089 249.294,-236.034"/>
<polygon fill="black" stroke="black" points="252.767,-236.573 251.783,-226.024 245.974,-234.884 252.767,-236.573"/>
</g>
<!-- html5 -->
<g id="node20" class="node"><title>html5</title>
<polygon fill="green" stroke="green" points="607.029,-441.744 553.029,-441.744 553.029,-405.744 607.029,-405.744 607.029,-441.744"/>
<text text-anchor="middle" x="580.029" y="-420.044" font-family="Times New Roman,serif" font-size="14.00">html5</text>
</g>
<!-- html5&#45;&gt;web -->
<g id="edge16" class="edge"><title>html5&#45;&gt;web</title>
<path fill="none" stroke="black" d="M586.39,-405.509C601.69,-361.651 640.623,-250.046 658.825,-197.87"/>
<polygon fill="black" stroke="black" points="662.186,-198.859 662.176,-188.264 655.577,-196.554 662.186,-198.859"/>
</g>
<!-- cordovaSDK -->
<g id="node23" class="node"><title>cordovaSDK</title>
<polygon fill="green" stroke="green" points="496.987,-324.813 406.487,-324.813 406.487,-288.813 496.987,-288.813 496.987,-324.813"/>
<text text-anchor="middle" x="451.737" y="-303.113" font-family="Times New Roman,serif" font-size="14.00">cordovaSDK</text>
</g>
<!-- html5&#45;&gt;cordovaSDK -->
<g id="edge17" class="edge"><title>html5&#45;&gt;cordovaSDK</title>
<path fill="none" stroke="black" d="M560.265,-405.73C538.574,-385.96 503.604,-354.086 479.242,-331.882"/>
<polygon fill="black" stroke="black" points="481.484,-329.19 471.735,-325.04 476.768,-334.363 481.484,-329.19"/>
</g>
<!-- nodeWebkitSDK -->
<g id="node24" class="node"><title>nodeWebkitSDK</title>
<polygon fill="green" stroke="green" points="397.987,-329.267 285.487,-329.267 285.487,-293.267 397.987,-293.267 397.987,-329.267"/>
<text text-anchor="middle" x="341.737" y="-307.567" font-family="Times New Roman,serif" font-size="14.00">nodeWebkitSDK</text>
</g>
<!-- html5&#45;&gt;nodeWebkitSDK -->
<g id="edge18" class="edge"><title>html5&#45;&gt;nodeWebkitSDK</title>
<path fill="none" stroke="black" d="M552.694,-410.841C512.842,-392.031 438.218,-356.808 389.257,-333.697"/>
<polygon fill="black" stroke="black" points="390.663,-330.491 380.126,-329.387 387.675,-336.821 390.663,-330.491"/>
</g>
<!-- phonegapSDK -->
<g id="node25" class="node"><title>phonegapSDK</title>
<polygon fill="green" stroke="green" points="520.241,-654.897 421.741,-654.897 421.741,-618.897 520.241,-618.897 520.241,-654.897"/>
<text text-anchor="middle" x="470.991" y="-633.197" font-family="Times New Roman,serif" font-size="14.00">phonegapSDK</text>
</g>
<!-- html5&#45;&gt;phonegapSDK -->
<g id="edge19" class="edge"><title>html5&#45;&gt;phonegapSDK</title>
<path fill="none" stroke="black" d="M570.733,-441.917C551.541,-479.435 507.448,-565.631 484.869,-609.769"/>
<polygon fill="black" stroke="black" points="481.703,-608.273 480.264,-618.77 487.934,-611.461 481.703,-608.273"/>
</g>
<!-- titaniumSDK -->
<g id="node26" class="node"><title>titaniumSDK</title>
<polygon fill="green" stroke="green" points="648.232,-552.821 560.232,-552.821 560.232,-516.821 648.232,-516.821 648.232,-552.821"/>
<text text-anchor="middle" x="604.232" y="-531.121" font-family="Times New Roman,serif" font-size="14.00">titaniumSDK</text>
</g>
<!-- html5&#45;&gt;titaniumSDK -->
<g id="edge20" class="edge"><title>html5&#45;&gt;titaniumSDK</title>
<path fill="none" stroke="black" d="M584.026,-442.086C587.868,-459.717 593.726,-486.603 598.147,-506.894"/>
<polygon fill="black" stroke="black" points="594.761,-507.795 600.31,-516.82 601.601,-506.304 594.761,-507.795"/>
</g>
<!-- tideSDK -->
<g id="node27" class="node"><title>tideSDK</title>
<polygon fill="green" stroke="green" points="368.986,-495.731 304.486,-495.731 304.486,-459.731 368.986,-459.731 368.986,-495.731"/>
<text text-anchor="middle" x="336.736" y="-474.031" font-family="Times New Roman,serif" font-size="14.00">tideSDK</text>
</g>
<!-- html5&#45;&gt;tideSDK -->
<g id="edge21" class="edge"><title>html5&#45;&gt;tideSDK</title>
<path fill="none" stroke="black" d="M552.594,-429.832C510.39,-439.197 429.206,-457.212 379.32,-468.282"/>
<polygon fill="black" stroke="black" points="378.482,-464.883 369.478,-470.466 379.999,-471.716 378.482,-464.883"/>
</g>
<!-- deskshellSDK -->
<g id="node28" class="node"><title>deskshellSDK</title>
<polygon fill="green" stroke="green" points="483.008,-187.791 388.508,-187.791 388.508,-151.791 483.008,-151.791 483.008,-187.791"/>
<text text-anchor="middle" x="435.758" y="-166.091" font-family="Times New Roman,serif" font-size="14.00">deskshellSDK</text>
</g>
<!-- html5&#45;&gt;deskshellSDK -->
<g id="edge22" class="edge"><title>html5&#45;&gt;deskshellSDK</title>
<path fill="none" stroke="black" d="M569.654,-405.48C544.594,-361.369 480.664,-248.836 451.135,-196.859"/>
<polygon fill="black" stroke="black" points="454.022,-194.855 446.039,-187.889 447.936,-198.313 454.022,-194.855"/>
</g>
<!-- cordovaSDK&#45;&gt;mobile -->
<g id="edge59" class="edge"><title>cordovaSDK&#45;&gt;mobile</title>
<path fill="none" stroke="black" d="M451.598,-325.079C451.335,-359.694 450.762,-435.06 450.448,-476.331"/>
<polygon fill="black" stroke="black" points="446.947,-476.499 450.37,-486.525 453.946,-476.552 446.947,-476.499"/>
</g>
<!-- cordovaSDK&#45;&gt;desktop -->
<g id="edge60" class="edge"><title>cordovaSDK&#45;&gt;desktop</title>
<path fill="none" stroke="black" d="M415.89,-288.667C382.102,-271.564 331.549,-245.975 296.427,-228.196"/>
<polygon fill="black" stroke="black" points="297.906,-225.022 287.404,-223.629 294.745,-231.268 297.906,-225.022"/>
</g>
<!-- nodeWebkitSDK&#45;&gt;desktop -->
<g id="edge66" class="edge"><title>nodeWebkitSDK&#45;&gt;desktop</title>
<path fill="none" stroke="black" d="M326.854,-293.259C313.276,-276.83 293.053,-252.361 277.734,-233.824"/>
<polygon fill="black" stroke="black" points="280.361,-231.509 271.292,-226.03 274.965,-235.968 280.361,-231.509"/>
</g>
<!-- phonegapSDK&#45;&gt;mobile -->
<g id="edge34" class="edge"><title>phonegapSDK&#45;&gt;mobile</title>
<path fill="none" stroke="black" d="M468.148,-618.799C464.674,-596.682 458.755,-559.003 454.677,-533.042"/>
<polygon fill="black" stroke="black" points="458.117,-532.386 453.107,-523.051 451.201,-533.473 458.117,-532.386"/>
</g>
<!-- titaniumSDK&#45;&gt;mobile -->
<g id="edge31" class="edge"><title>titaniumSDK&#45;&gt;mobile</title>
<path fill="none" stroke="black" d="M560.102,-526.203C537.083,-521.708 509.24,-516.271 487.342,-511.994"/>
<polygon fill="black" stroke="black" points="487.914,-508.54 477.429,-510.058 486.572,-515.41 487.914,-508.54"/>
</g>
<!-- tideSDK&#45;&gt;desktop -->
<g id="edge25" class="edge"><title>tideSDK&#45;&gt;desktop</title>
<path fill="none" stroke="black" d="M331.333,-459.607C317.566,-413.424 281.095,-291.08 264.601,-235.751"/>
<polygon fill="black" stroke="black" points="267.884,-234.51 261.673,-225.927 261.175,-236.51 267.884,-234.51"/>
</g>
<!-- deskshellSDK&#45;&gt;desktop -->
<g id="edge63" class="edge"><title>deskshellSDK&#45;&gt;desktop</title>
<path fill="none" stroke="black" d="M388.136,-179.898C359.867,-185.898 324.388,-193.428 297.357,-199.165"/>
<polygon fill="black" stroke="black" points="296.499,-195.769 287.444,-201.269 297.953,-202.617 296.499,-195.769"/>
</g>
<!-- rapSDK -->
<g id="node31" class="node"><title>rapSDK</title>
<polygon fill="green" stroke="green" points="724.677,-670.517 662.677,-670.517 662.677,-634.517 724.677,-634.517 724.677,-670.517"/>
<text text-anchor="middle" x="693.677" y="-648.817" font-family="Times New Roman,serif" font-size="14.00">rapSDK</text>
</g>
<!-- rapSDK&#45;&gt;html5 -->
<g id="edge28" class="edge"><title>rapSDK&#45;&gt;html5</title>
<path fill="none" stroke="black" d="M684.569,-634.182C664.612,-594.008 616.942,-498.048 593.505,-450.87"/>
<polygon fill="black" stroke="black" points="596.607,-449.247 589.023,-441.848 590.338,-452.361 596.607,-449.247"/>
</g>
<!-- openFLSDK -->
<g id="node38" class="node"><title>openFLSDK</title>
<polygon fill="green" stroke="green" points="820.881,-546.094 732.381,-546.094 732.381,-510.094 820.881,-510.094 820.881,-546.094"/>
<text text-anchor="middle" x="776.631" y="-524.394" font-family="Times New Roman,serif" font-size="14.00">openFLSDK</text>
</g>
<!-- openFLSDK&#45;&gt;html5 -->
<g id="edge37" class="edge"><title>openFLSDK&#45;&gt;html5</title>
<path fill="none" stroke="black" d="M742.386,-509.918C707.14,-491.21 652.435,-462.175 616.423,-443.06"/>
<polygon fill="black" stroke="black" points="617.717,-439.785 607.243,-438.188 614.435,-445.968 617.717,-439.785"/>
</g>
<!-- haxeSDK -->
<g id="node41" class="node"><title>haxeSDK</title>
<polygon fill="green" stroke="green" points="1009.23,-533.315 939.226,-533.315 939.226,-497.315 1009.23,-497.315 1009.23,-533.315"/>
<text text-anchor="middle" x="974.226" y="-511.615" font-family="Times New Roman,serif" font-size="14.00">haxeSDK</text>
</g>
<!-- haxeSDK&#45;&gt;openFLSDK -->
<g id="edge40" class="edge"><title>haxeSDK&#45;&gt;openFLSDK</title>
<path fill="none" stroke="black" d="M938.9,-517.6C909.022,-519.532 865.713,-522.333 831.352,-524.555"/>
<polygon fill="black" stroke="black" points="830.753,-521.087 821,-525.225 831.205,-528.072 830.753,-521.087"/>
</g>
<!-- nodejsSDK -->
<g id="node44" class="node"><title>nodejsSDK</title>
<polygon fill="green" stroke="green" points="830.645,-157.296 749.645,-157.296 749.645,-121.296 830.645,-121.296 830.645,-157.296"/>
<text text-anchor="middle" x="790.145" y="-135.596" font-family="Times New Roman,serif" font-size="14.00">nodejsSDK</text>
</g>
<!-- gwtSDK -->
<g id="node47" class="node"><title>gwtSDK</title>
<polygon fill="green" stroke="green" points="830.801,-302.508 766.301,-302.508 766.301,-266.508 830.801,-266.508 830.801,-302.508"/>
<text text-anchor="middle" x="798.551" y="-280.808" font-family="Times New Roman,serif" font-size="14.00">gwtSDK</text>
</g>
<!-- gwtSDK&#45;&gt;html5 -->
<g id="edge45" class="edge"><title>gwtSDK&#45;&gt;html5</title>
<path fill="none" stroke="black" d="M769.983,-302.711C730.37,-327.951 658.783,-373.564 615.706,-401.011"/>
<polygon fill="black" stroke="black" points="613.782,-398.087 607.229,-406.413 617.543,-403.991 613.782,-398.087"/>
</g>
</g>
</svg>
