<?xml version="1.0" encoding="UTF-8" standalone="no"?>
<!DOCTYPE svg PUBLIC "-//W3C//DTD SVG 1.1//EN"
 "http://www.w3.org/Graphics/SVG/1.1/DTD/svg11.dtd">
<!-- Generated by graphviz version 2.28.0 (20110507.0327)
 -->
<!-- Title: Frameworks Pages: 1 -->
<svg width="833pt" height="717pt"
 viewBox="0.00 0.00 832.60 716.82" xmlns="http://www.w3.org/2000/svg" xmlns:xlink="http://www.w3.org/1999/xlink">
<g id="graph1" class="graph" transform="scale(1 1) rotate(0) translate(4 712.818)">
<title>Frameworks</title>
<polygon fill="white" stroke="white" points="-4,5 -4,-712.818 829.603,-712.818 829.603,5 -4,5"/>
<text text-anchor="middle" x="412.301" y="-7.4" font-family="Times New Roman,serif" font-size="12.00">Frameworks</text>
<!-- mobile -->
<g id="node1" class="node"><title>mobile</title>
<polygon fill="lightblue" stroke="lightblue" points="370.115,-540.728 316.115,-540.728 316.115,-504.728 370.115,-504.728 370.115,-540.728"/>
<text text-anchor="middle" x="343.115" y="-519.028" font-family="Times New Roman,serif" font-size="14.00">mobile</text>
</g>
<!-- ios -->
<g id="node6" class="node"><title>ios</title>
<polygon fill="lightblue" stroke="lightblue" points="350.391,-708.818 296.391,-708.818 296.391,-672.818 350.391,-672.818 350.391,-708.818"/>
<text text-anchor="middle" x="323.391" y="-687.118" font-family="Times New Roman,serif" font-size="14.00">ios</text>
</g>
<!-- mobile&#45;&gt;ios -->
<g id="edge5" class="edge"><title>mobile&#45;&gt;ios</title>
<path fill="none" stroke="black" d="M340.967,-541.037C337.534,-570.289 330.787,-627.79 326.724,-662.414"/>
<polygon fill="black" stroke="black" points="323.196,-662.447 325.506,-672.786 330.148,-663.263 323.196,-662.447"/>
</g>
<!-- winphone -->
<g id="node7" class="node"><title>winphone</title>
<polygon fill="lightblue" stroke="lightblue" points="240.048,-651.777 169.548,-651.777 169.548,-615.777 240.048,-615.777 240.048,-651.777"/>
<text text-anchor="middle" x="204.798" y="-630.077" font-family="Times New Roman,serif" font-size="14.00">winphone</text>
</g>
<!-- mobile&#45;&gt;winphone -->
<g id="edge6" class="edge"><title>mobile&#45;&gt;winphone</title>
<path fill="none" stroke="black" d="M320.584,-540.817C297.375,-559.451 261.052,-588.613 235.285,-609.301"/>
<polygon fill="black" stroke="black" points="232.926,-606.706 227.32,-615.696 237.309,-612.164 232.926,-606.706"/>
</g>
<!-- android -->
<g id="node8" class="node"><title>android</title>
<polygon fill="lightblue" stroke="lightblue" points="481.742,-689.042 423.242,-689.042 423.242,-653.042 481.742,-653.042 481.742,-689.042"/>
<text text-anchor="middle" x="452.492" y="-667.342" font-family="Times New Roman,serif" font-size="14.00">android</text>
</g>
<!-- mobile&#45;&gt;android -->
<g id="edge7" class="edge"><title>mobile&#45;&gt;android</title>
<path fill="none" stroke="black" d="M356.527,-540.914C375.633,-566.822 410.81,-614.521 432.854,-644.414"/>
<polygon fill="black" stroke="black" points="430.218,-646.736 438.971,-652.707 435.852,-642.582 430.218,-646.736"/>
</g>
<!-- desktop -->
<g id="node2" class="node"><title>desktop</title>
<polygon fill="lightblue" stroke="lightblue" points="232.24,-240.172 170.24,-240.172 170.24,-204.172 232.24,-204.172 232.24,-240.172"/>
<text text-anchor="middle" x="201.24" y="-218.472" font-family="Times New Roman,serif" font-size="14.00">desktop</text>
</g>
<!-- linux -->
<g id="node9" class="node"><title>linux</title>
<polygon fill="lightblue" stroke="lightblue" points="152.873,-70.6984 98.8731,-70.6984 98.8731,-34.6984 152.873,-34.6984 152.873,-70.6984"/>
<text text-anchor="middle" x="125.873" y="-48.9984" font-family="Times New Roman,serif" font-size="14.00">linux</text>
</g>
<!-- desktop&#45;&gt;linux -->
<g id="edge54" class="edge"><title>desktop&#45;&gt;linux</title>
<path fill="none" stroke="black" d="M193.175,-204.035C179.972,-174.347 153.666,-115.194 138.14,-80.2828"/>
<polygon fill="black" stroke="black" points="141.142,-78.4196 133.881,-70.7046 134.746,-81.264 141.142,-78.4196"/>
</g>
<!-- windows -->
<g id="node10" class="node"><title>windows</title>
<polygon fill="lightblue" stroke="lightblue" points="66.5,-290.072 0,-290.072 0,-254.072 66.5,-254.072 66.5,-290.072"/>
<text text-anchor="middle" x="33.25" y="-268.372" font-family="Times New Roman,serif" font-size="14.00">windows</text>
</g>
<!-- desktop&#45;&gt;windows -->
<g id="edge55" class="edge"><title>desktop&#45;&gt;windows</title>
<path fill="none" stroke="black" d="M170.036,-231.441C143.809,-239.231 106.033,-250.453 76.8222,-259.129"/>
<polygon fill="black" stroke="black" points="75.4695,-255.88 66.8801,-262.083 77.4628,-262.59 75.4695,-255.88"/>
</g>
<!-- mac -->
<g id="node11" class="node"><title>mac</title>
<polygon fill="lightblue" stroke="lightblue" points="74.0391,-167.469 20.0391,-167.469 20.0391,-131.469 74.0391,-131.469 74.0391,-167.469"/>
<text text-anchor="middle" x="47.0391" y="-145.769" font-family="Times New Roman,serif" font-size="14.00">mac</text>
</g>
<!-- desktop&#45;&gt;mac -->
<g id="edge56" class="edge"><title>desktop&#45;&gt;mac</title>
<path fill="none" stroke="black" d="M170.035,-207.459C144.954,-195.634 109.685,-179.006 83.3417,-166.585"/>
<polygon fill="black" stroke="black" points="84.6131,-163.315 74.0754,-162.216 81.6279,-169.647 84.6131,-163.315"/>
</g>
<!-- platform -->
<g id="node3" class="node"><title>platform</title>
<polygon fill="lightblue" stroke="lightblue" points="721.75,-480 657.75,-480 657.75,-444 721.75,-444 721.75,-480"/>
<text text-anchor="middle" x="689.75" y="-458.3" font-family="Times New Roman,serif" font-size="14.00">platform</text>
</g>
<!-- web -->
<g id="node4" class="node"><title>web</title>
<polygon fill="lightblue" stroke="lightblue" points="570.581,-89.6998 516.581,-89.6998 516.581,-53.6998 570.581,-53.6998 570.581,-89.6998"/>
<text text-anchor="middle" x="543.581" y="-67.9998" font-family="Times New Roman,serif" font-size="14.00">web</text>
</g>
<!-- device -->
<g id="node5" class="node"><title>device</title>
<polygon fill="lightblue" stroke="lightblue" points="212.599,-432.71 158.599,-432.71 158.599,-396.71 212.599,-396.71 212.599,-432.71"/>
<text text-anchor="middle" x="185.599" y="-411.01" font-family="Times New Roman,serif" font-size="14.00">device</text>
</g>
<!-- device&#45;&gt;mobile -->
<g id="edge12" class="edge"><title>device&#45;&gt;mobile</title>
<path fill="none" stroke="black" d="M211.964,-432.789C238.314,-450.86 278.986,-478.751 308.047,-498.68"/>
<polygon fill="black" stroke="black" points="306.438,-501.82 316.665,-504.589 310.397,-496.047 306.438,-501.82"/>
</g>
<!-- device&#45;&gt;desktop -->
<g id="edge13" class="edge"><title>device&#45;&gt;desktop</title>
<path fill="none" stroke="black" d="M187.071,-396.596C189.801,-362.982 195.671,-290.725 198.934,-250.561"/>
<polygon fill="black" stroke="black" points="202.44,-250.628 199.761,-240.377 195.463,-250.061 202.44,-250.628"/>
</g>
<!-- html5 -->
<g id="node20" class="node"><title>html5</title>
<polygon fill="green" stroke="green" points="526.863,-263.368 472.863,-263.368 472.863,-227.368 526.863,-227.368 526.863,-263.368"/>
<text text-anchor="middle" x="499.863" y="-241.668" font-family="Times New Roman,serif" font-size="14.00">html5</text>
</g>
<!-- html5&#45;&gt;web -->
<g id="edge16" class="edge"><title>html5&#45;&gt;web</title>
<path fill="none" stroke="black" d="M504.459,-227.11C512.121,-196.673 527.552,-135.374 536.575,-99.5291"/>
<polygon fill="black" stroke="black" points="539.999,-100.264 539.046,-89.7124 533.211,-98.5554 539.999,-100.264"/>
</g>
<!-- cordovaSDK -->
<g id="node23" class="node"><title>cordovaSDK</title>
<polygon fill="green" stroke="green" points="382.854,-363.37 292.354,-363.37 292.354,-327.37 382.854,-327.37 382.854,-363.37"/>
<text text-anchor="middle" x="337.604" y="-341.67" font-family="Times New Roman,serif" font-size="14.00">cordovaSDK</text>
</g>
<!-- html5&#45;&gt;cordovaSDK -->
<g id="edge17" class="edge"><title>html5&#45;&gt;cordovaSDK</title>
<path fill="none" stroke="black" d="M472.704,-262.106C446.214,-278.432 405.675,-303.417 375.913,-321.76"/>
<polygon fill="black" stroke="black" points="373.726,-318.996 367.05,-327.222 377.399,-324.955 373.726,-318.996"/>
</g>
<!-- nodeWebkitSDK -->
<g id="node24" class="node"><title>nodeWebkitSDK</title>
<polygon fill="green" stroke="green" points="392.405,-166.558 279.905,-166.558 279.905,-130.558 392.405,-130.558 392.405,-166.558"/>
<text text-anchor="middle" x="336.155" y="-144.858" font-family="Times New Roman,serif" font-size="14.00">nodeWebkitSDK</text>
</g>
<!-- html5&#45;&gt;nodeWebkitSDK -->
<g id="edge18" class="edge"><title>html5&#45;&gt;nodeWebkitSDK</title>
<path fill="none" stroke="black" d="M472.83,-229.382C446.411,-213.759 405.891,-189.797 375.823,-172.016"/>
<polygon fill="black" stroke="black" points="377.243,-168.79 366.854,-166.712 373.68,-174.815 377.243,-168.79"/>
</g>
<!-- phonegapSDK -->
<g id="node25" class="node"><title>phonegapSDK</title>
<polygon fill="green" stroke="green" points="494.88,-423.391 396.38,-423.391 396.38,-387.391 494.88,-387.391 494.88,-423.391"/>
<text text-anchor="middle" x="445.63" y="-401.691" font-family="Times New Roman,serif" font-size="14.00">phonegapSDK</text>
</g>
<!-- html5&#45;&gt;phonegapSDK -->
<g id="edge19" class="edge"><title>html5&#45;&gt;phonegapSDK</title>
<path fill="none" stroke="black" d="M493.747,-263.413C484.348,-291.146 466.277,-344.468 455.154,-377.288"/>
<polygon fill="black" stroke="black" points="451.702,-376.571 451.807,-387.165 458.331,-378.818 451.702,-376.571"/>
</g>
<!-- titaniumSDK -->
<g id="node26" class="node"><title>titaniumSDK</title>
<polygon fill="green" stroke="green" points="575.188,-467.391 487.188,-467.391 487.188,-431.391 575.188,-431.391 575.188,-467.391"/>
<text text-anchor="middle" x="531.188" y="-445.691" font-family="Times New Roman,serif" font-size="14.00">titaniumSDK</text>
</g>
<!-- html5&#45;&gt;titaniumSDK -->
<g id="edge20" class="edge"><title>html5&#45;&gt;titaniumSDK</title>
<path fill="none" stroke="black" d="M502.643,-263.473C508.123,-299.165 520.354,-378.827 526.884,-421.361"/>
<polygon fill="black" stroke="black" points="523.437,-421.972 528.414,-431.325 530.356,-420.91 523.437,-421.972"/>
</g>
<!-- tideSDK -->
<g id="node27" class="node"><title>tideSDK</title>
<polygon fill="green" stroke="green" points="384.249,-235.349 319.749,-235.349 319.749,-199.349 384.249,-199.349 384.249,-235.349"/>
<text text-anchor="middle" x="351.999" y="-213.649" font-family="Times New Roman,serif" font-size="14.00">tideSDK</text>
</g>
<!-- html5&#45;&gt;tideSDK -->
<g id="edge21" class="edge"><title>html5&#45;&gt;tideSDK</title>
<path fill="none" stroke="black" d="M472.742,-240.229C450.906,-236.091 419.813,-230.199 394.649,-225.431"/>
<polygon fill="black" stroke="black" points="395.102,-221.955 384.626,-223.532 393.799,-228.832 395.102,-221.955"/>
</g>
<!-- deskshellSDK -->
<g id="node28" class="node"><title>deskshellSDK</title>
<polygon fill="green" stroke="green" points="420.877,-122.555 326.377,-122.555 326.377,-86.555 420.877,-86.555 420.877,-122.555"/>
<text text-anchor="middle" x="373.627" y="-100.855" font-family="Times New Roman,serif" font-size="14.00">deskshellSDK</text>
</g>
<!-- html5&#45;&gt;deskshellSDK -->
<g id="edge22" class="edge"><title>html5&#45;&gt;deskshellSDK</title>
<path fill="none" stroke="black" d="M483.618,-227.247C461.462,-202.533 421.653,-158.127 396.491,-130.059"/>
<polygon fill="black" stroke="black" points="399.091,-127.716 389.809,-122.606 393.878,-132.388 399.091,-127.716"/>
</g>
<!-- cordovaSDK&#45;&gt;mobile -->
<g id="edge59" class="edge"><title>cordovaSDK&#45;&gt;mobile</title>
<path fill="none" stroke="black" d="M338.173,-363.683C339.137,-394.696 341.096,-457.755 342.237,-494.469"/>
<polygon fill="black" stroke="black" points="338.74,-494.629 342.549,-504.515 345.737,-494.411 338.74,-494.629"/>
</g>
<!-- cordovaSDK&#45;&gt;desktop -->
<g id="edge60" class="edge"><title>cordovaSDK&#45;&gt;desktop</title>
<path fill="none" stroke="black" d="M317.483,-327.192C294.118,-306.083 255.433,-271.133 229.166,-247.402"/>
<polygon fill="black" stroke="black" points="231.21,-244.531 221.444,-240.425 226.518,-249.726 231.21,-244.531"/>
</g>
<!-- nodeWebkitSDK&#45;&gt;desktop -->
<g id="edge66" class="edge"><title>nodeWebkitSDK&#45;&gt;desktop</title>
<path fill="none" stroke="black" d="M303.151,-166.566C284.564,-176.708 261.206,-189.453 241.543,-200.181"/>
<polygon fill="black" stroke="black" points="239.615,-197.246 232.513,-205.109 242.968,-203.391 239.615,-197.246"/>
</g>
<!-- phonegapSDK&#45;&gt;mobile -->
<g id="edge34" class="edge"><title>phonegapSDK&#45;&gt;mobile</title>
<path fill="none" stroke="black" d="M429.837,-423.467C412.729,-443.048 385.284,-474.462 365.856,-496.699"/>
<polygon fill="black" stroke="black" points="363.039,-494.604 359.095,-504.437 368.311,-499.209 363.039,-494.604"/>
</g>
<!-- titaniumSDK&#45;&gt;mobile -->
<g id="edge31" class="edge"><title>titaniumSDK&#45;&gt;mobile</title>
<path fill="none" stroke="black" d="M487.093,-466.585C454.47,-479.306 410.549,-496.433 379.827,-508.413"/>
<polygon fill="black" stroke="black" points="378.392,-505.215 370.347,-512.109 380.936,-511.737 378.392,-505.215"/>
</g>
<!-- tideSDK&#45;&gt;desktop -->
<g id="edge25" class="edge"><title>tideSDK&#45;&gt;desktop</title>
<path fill="none" stroke="black" d="M319.657,-218.384C297.098,-219.106 266.803,-220.075 242.503,-220.852"/>
<polygon fill="black" stroke="black" points="242.379,-217.354 232.496,-221.172 242.603,-224.35 242.379,-217.354"/>
</g>
<!-- deskshellSDK&#45;&gt;desktop -->
<g id="edge63" class="edge"><title>deskshellSDK&#45;&gt;desktop</title>
<path fill="none" stroke="black" d="M347.069,-122.675C317.332,-142.964 269.019,-175.927 236.224,-198.303"/>
<polygon fill="black" stroke="black" points="234.116,-195.504 227.828,-204.031 238.061,-201.286 234.116,-195.504"/>
</g>
<!-- rapSDK -->
<g id="node31" class="node"><title>rapSDK</title>
<polygon fill="green" stroke="green" points="687.611,-356.777 625.611,-356.777 625.611,-320.777 687.611,-320.777 687.611,-356.777"/>
<text text-anchor="middle" x="656.611" y="-335.077" font-family="Times New Roman,serif" font-size="14.00">rapSDK</text>
</g>
<!-- rapSDK&#45;&gt;html5 -->
<g id="edge28" class="edge"><title>rapSDK&#45;&gt;html5</title>
<path fill="none" stroke="black" d="M626.388,-320.766C600.572,-305.382 563.374,-283.215 535.99,-266.897"/>
<polygon fill="black" stroke="black" points="537.492,-263.717 527.11,-261.605 533.909,-269.731 537.492,-263.717"/>
</g>
<!-- openFLSDK -->
<g id="node38" class="node"><title>openFLSDK</title>
<polygon fill="green" stroke="green" points="691.006,-148.232 602.506,-148.232 602.506,-112.232 691.006,-112.232 691.006,-148.232"/>
<text text-anchor="middle" x="646.756" y="-126.532" font-family="Times New Roman,serif" font-size="14.00">openFLSDK</text>
</g>
<!-- openFLSDK&#45;&gt;html5 -->
<g id="edge37" class="edge"><title>openFLSDK&#45;&gt;html5</title>
<path fill="none" stroke="black" d="M623.48,-148.475C598.554,-168.013 558.858,-199.126 531.198,-220.807"/>
<polygon fill="black" stroke="black" points="528.741,-218.286 523.03,-227.209 533.059,-223.795 528.741,-218.286"/>
</g>
<!-- haxeSDK -->
<g id="node41" class="node"><title>haxeSDK</title>
<polygon fill="green" stroke="green" points="824.603,-57 754.603,-57 754.603,-21 824.603,-21 824.603,-57"/>
<text text-anchor="middle" x="789.603" y="-35.3" font-family="Times New Roman,serif" font-size="14.00">haxeSDK</text>
</g>
<!-- haxeSDK&#45;&gt;openFLSDK -->
<g id="edge40" class="edge"><title>haxeSDK&#45;&gt;openFLSDK</title>
<path fill="none" stroke="black" d="M761.381,-57.0244C739.222,-71.1767 708.176,-91.0046 683.983,-106.456"/>
<polygon fill="black" stroke="black" points="681.952,-103.6 675.408,-111.932 685.72,-109.499 681.952,-103.6"/>
</g>
<!-- nodejsSDK -->
<g id="node44" class="node"><title>nodejsSDK</title>
<polygon fill="green" stroke="green" points="691.75,-574 610.75,-574 610.75,-538 691.75,-538 691.75,-574"/>
<text text-anchor="middle" x="651.25" y="-552.3" font-family="Times New Roman,serif" font-size="14.00">nodejsSDK</text>
</g>
<!-- gwtSDK -->
<g id="node47" class="node"><title>gwtSDK</title>
<polygon fill="green" stroke="green" points="697.859,-264.663 633.359,-264.663 633.359,-228.663 697.859,-228.663 697.859,-264.663"/>
<text text-anchor="middle" x="665.609" y="-242.963" font-family="Times New Roman,serif" font-size="14.00">gwtSDK</text>
</g>
<!-- gwtSDK&#45;&gt;html5 -->
<g id="edge45" class="edge"><title>gwtSDK&#45;&gt;html5</title>
<path fill="none" stroke="black" d="M632.863,-246.407C605.303,-246.192 565.896,-245.884 537.132,-245.659"/>
<polygon fill="black" stroke="black" points="537.085,-242.159 527.058,-245.58 537.031,-249.158 537.085,-242.159"/>
</g>
</g>
</svg>
