<?xml version="1.0" encoding="UTF-8" standalone="no"?>
<!DOCTYPE svg PUBLIC "-//W3C//DTD SVG 1.1//EN"
 "http://www.w3.org/Graphics/SVG/1.1/DTD/svg11.dtd">
<!-- Generated by graphviz version 2.28.0 (20110507.0327)
 -->
<!-- Title: Frameworks Pages: 1 -->
<svg width="865pt" height="724pt"
 viewBox="0.00 0.00 864.95 724.14" xmlns="http://www.w3.org/2000/svg" xmlns:xlink="http://www.w3.org/1999/xlink">
<g id="graph1" class="graph" transform="scale(1 1) rotate(0) translate(4 720.144)">
<title>Frameworks</title>
<polygon fill="white" stroke="white" points="-4,5 -4,-720.144 861.947,-720.144 861.947,5 -4,5"/>
<text text-anchor="middle" x="428.473" y="-7.4" font-family="Times New Roman,serif" font-size="12.00">Frameworks</text>
<!-- mobile -->
<g id="node1" class="node"><title>mobile</title>
<polygon fill="lightblue" stroke="lightblue" points="260.234,-226.535 206.234,-226.535 206.234,-190.535 260.234,-190.535 260.234,-226.535"/>
<text text-anchor="middle" x="233.234" y="-204.835" font-family="Times New Roman,serif" font-size="14.00">mobile</text>
</g>
<!-- ios -->
<g id="node6" class="node"><title>ios</title>
<polygon fill="lightblue" stroke="lightblue" points="309.776,-81.1189 255.776,-81.1189 255.776,-45.1189 309.776,-45.1189 309.776,-81.1189"/>
<text text-anchor="middle" x="282.776" y="-59.4189" font-family="Times New Roman,serif" font-size="14.00">ios</text>
</g>
<!-- mobile&#45;&gt;ios -->
<g id="edge5" class="edge"><title>mobile&#45;&gt;ios</title>
<path fill="none" stroke="black" d="M239.408,-190.412C247.901,-165.485 263.265,-120.388 273.241,-91.1082"/>
<polygon fill="black" stroke="black" points="276.612,-92.0648 276.524,-81.4703 269.986,-89.8073 276.612,-92.0648"/>
</g>
<!-- winphone -->
<g id="node7" class="node"><title>winphone</title>
<polygon fill="lightblue" stroke="lightblue" points="176.725,-57 106.225,-57 106.225,-21 176.725,-21 176.725,-57"/>
<text text-anchor="middle" x="141.475" y="-35.3" font-family="Times New Roman,serif" font-size="14.00">winphone</text>
</g>
<!-- mobile&#45;&gt;winphone -->
<g id="edge6" class="edge"><title>mobile&#45;&gt;winphone</title>
<path fill="none" stroke="black" d="M223.414,-190.392C207.271,-160.565 175.037,-101.01 156.168,-66.1461"/>
<polygon fill="black" stroke="black" points="159.062,-64.1413 151.224,-57.0128 152.906,-67.4733 159.062,-64.1413"/>
</g>
<!-- android -->
<g id="node8" class="node"><title>android</title>
<polygon fill="lightblue" stroke="lightblue" points="86.472,-181.101 27.972,-181.101 27.972,-145.101 86.472,-145.101 86.472,-181.101"/>
<text text-anchor="middle" x="57.222" y="-159.401" font-family="Times New Roman,serif" font-size="14.00">android</text>
</g>
<!-- mobile&#45;&gt;android -->
<g id="edge7" class="edge"><title>mobile&#45;&gt;android</title>
<path fill="none" stroke="black" d="M206.118,-201.536C176.929,-194.001 130.213,-181.942 96.8951,-173.342"/>
<polygon fill="black" stroke="black" points="97.5768,-169.903 87.0194,-170.793 95.8272,-176.681 97.5768,-169.903"/>
</g>
<!-- desktop -->
<g id="node2" class="node"><title>desktop</title>
<polygon fill="lightblue" stroke="lightblue" points="243.713,-567.644 181.713,-567.644 181.713,-531.644 243.713,-531.644 243.713,-567.644"/>
<text text-anchor="middle" x="212.713" y="-545.944" font-family="Times New Roman,serif" font-size="14.00">desktop</text>
</g>
<!-- linux -->
<g id="node9" class="node"><title>linux</title>
<polygon fill="lightblue" stroke="lightblue" points="54,-578.504 0,-578.504 0,-542.504 54,-542.504 54,-578.504"/>
<text text-anchor="middle" x="27" y="-556.804" font-family="Times New Roman,serif" font-size="14.00">linux</text>
</g>
<!-- desktop&#45;&gt;linux -->
<g id="edge54" class="edge"><title>desktop&#45;&gt;linux</title>
<path fill="none" stroke="black" d="M181.629,-551.462C149.345,-553.35 98.8282,-556.304 64.3857,-558.318"/>
<polygon fill="black" stroke="black" points="64.0292,-554.833 54.2506,-558.911 64.4379,-561.821 64.0292,-554.833"/>
</g>
<!-- windows -->
<g id="node10" class="node"><title>windows</title>
<polygon fill="lightblue" stroke="lightblue" points="116.252,-716.144 49.7524,-716.144 49.7524,-680.144 116.252,-680.144 116.252,-716.144"/>
<text text-anchor="middle" x="83.0024" y="-694.444" font-family="Times New Roman,serif" font-size="14.00">windows</text>
</g>
<!-- desktop&#45;&gt;windows -->
<g id="edge55" class="edge"><title>desktop&#45;&gt;windows</title>
<path fill="none" stroke="black" d="M196.808,-567.853C173.955,-594.016 131.716,-642.373 105.621,-672.248"/>
<polygon fill="black" stroke="black" points="102.98,-669.952 99.0376,-679.786 108.252,-674.557 102.98,-669.952"/>
</g>
<!-- mac -->
<g id="node11" class="node"><title>mac</title>
<polygon fill="lightblue" stroke="lightblue" points="247.544,-714.535 193.544,-714.535 193.544,-678.535 247.544,-678.535 247.544,-714.535"/>
<text text-anchor="middle" x="220.544" y="-692.835" font-family="Times New Roman,serif" font-size="14.00">mac</text>
</g>
<!-- desktop&#45;&gt;mac -->
<g id="edge56" class="edge"><title>desktop&#45;&gt;mac</title>
<path fill="none" stroke="black" d="M213.673,-567.656C215.012,-592.765 217.452,-638.539 219.035,-668.232"/>
<polygon fill="black" stroke="black" points="215.548,-668.577 219.576,-678.376 222.538,-668.204 215.548,-668.577"/>
</g>
<!-- platform -->
<g id="node3" class="node"><title>platform</title>
<polygon fill="lightblue" stroke="lightblue" points="505,-155 441,-155 441,-119 505,-119 505,-155"/>
<text text-anchor="middle" x="473" y="-133.3" font-family="Times New Roman,serif" font-size="14.00">platform</text>
</g>
<!-- web -->
<g id="node4" class="node"><title>web</title>
<polygon fill="lightblue" stroke="lightblue" points="722.562,-520.459 668.562,-520.459 668.562,-484.459 722.562,-484.459 722.562,-520.459"/>
<text text-anchor="middle" x="695.562" y="-498.759" font-family="Times New Roman,serif" font-size="14.00">web</text>
</g>
<!-- device -->
<g id="node5" class="node"><title>device</title>
<polygon fill="lightblue" stroke="lightblue" points="163.88,-388.374 109.88,-388.374 109.88,-352.374 163.88,-352.374 163.88,-388.374"/>
<text text-anchor="middle" x="136.88" y="-366.674" font-family="Times New Roman,serif" font-size="14.00">device</text>
</g>
<!-- device&#45;&gt;mobile -->
<g id="edge12" class="edge"><title>device&#45;&gt;mobile</title>
<path fill="none" stroke="black" d="M147.746,-352.124C164.661,-323.713 197.388,-268.744 217.077,-235.674"/>
<polygon fill="black" stroke="black" points="220.152,-237.35 222.26,-226.967 214.137,-233.769 220.152,-237.35"/>
</g>
<!-- device&#45;&gt;desktop -->
<g id="edge13" class="edge"><title>device&#45;&gt;desktop</title>
<path fill="none" stroke="black" d="M144.569,-388.55C157.911,-420.091 185.424,-485.132 201.103,-522.197"/>
<polygon fill="black" stroke="black" points="197.885,-523.574 205.004,-531.42 204.332,-520.846 197.885,-523.574"/>
</g>
<!-- html5 -->
<g id="node20" class="node"><title>html5</title>
<polygon fill="green" stroke="green" points="518.018,-448.911 464.018,-448.911 464.018,-412.911 518.018,-412.911 518.018,-448.911"/>
<text text-anchor="middle" x="491.018" y="-427.211" font-family="Times New Roman,serif" font-size="14.00">html5</text>
</g>
<!-- html5&#45;&gt;web -->
<g id="edge16" class="edge"><title>html5&#45;&gt;web</title>
<path fill="none" stroke="black" d="M518.18,-440.412C554.322,-453.054 618.355,-475.453 658.795,-489.598"/>
<polygon fill="black" stroke="black" points="657.693,-492.921 668.288,-492.919 660.004,-486.313 657.693,-492.921"/>
</g>
<!-- cordovaSDK -->
<g id="node23" class="node"><title>cordovaSDK</title>
<polygon fill="green" stroke="green" points="340.105,-395.772 249.605,-395.772 249.605,-359.772 340.105,-359.772 340.105,-395.772"/>
<text text-anchor="middle" x="294.855" y="-374.072" font-family="Times New Roman,serif" font-size="14.00">cordovaSDK</text>
</g>
<!-- html5&#45;&gt;cordovaSDK -->
<g id="edge17" class="edge"><title>html5&#45;&gt;cordovaSDK</title>
<path fill="none" stroke="black" d="M463.742,-423.522C434.461,-415.59 387.152,-402.774 350.043,-392.722"/>
<polygon fill="black" stroke="black" points="350.927,-389.335 340.359,-390.099 349.096,-396.092 350.927,-389.335"/>
</g>
<!-- nodeWebkitSDK -->
<g id="node24" class="node"><title>nodeWebkitSDK</title>
<polygon fill="green" stroke="green" points="385.392,-504.401 272.892,-504.401 272.892,-468.401 385.392,-468.401 385.392,-504.401"/>
<text text-anchor="middle" x="329.142" y="-482.701" font-family="Times New Roman,serif" font-size="14.00">nodeWebkitSDK</text>
</g>
<!-- html5&#45;&gt;nodeWebkitSDK -->
<g id="edge18" class="edge"><title>html5&#45;&gt;nodeWebkitSDK</title>
<path fill="none" stroke="black" d="M463.924,-440.199C444.131,-446.984 416.477,-456.463 391.365,-465.071"/>
<polygon fill="black" stroke="black" points="390.212,-461.767 381.887,-468.32 392.482,-468.388 390.212,-461.767"/>
</g>
<!-- phonegapSDK -->
<g id="node25" class="node"><title>phonegapSDK</title>
<polygon fill="green" stroke="green" points="405.327,-253.63 306.827,-253.63 306.827,-217.63 405.327,-217.63 405.327,-253.63"/>
<text text-anchor="middle" x="356.077" y="-231.93" font-family="Times New Roman,serif" font-size="14.00">phonegapSDK</text>
</g>
<!-- html5&#45;&gt;phonegapSDK -->
<g id="edge19" class="edge"><title>html5&#45;&gt;phonegapSDK</title>
<path fill="none" stroke="black" d="M478.565,-412.89C454.676,-378.319 402.316,-302.545 374.42,-262.176"/>
<polygon fill="black" stroke="black" points="377.26,-260.129 368.696,-253.892 371.501,-264.109 377.26,-260.129"/>
</g>
<!-- titaniumSDK -->
<g id="node26" class="node"><title>titaniumSDK</title>
<polygon fill="green" stroke="green" points="501.577,-294.824 413.577,-294.824 413.577,-258.824 501.577,-258.824 501.577,-294.824"/>
<text text-anchor="middle" x="457.577" y="-273.124" font-family="Times New Roman,serif" font-size="14.00">titaniumSDK</text>
</g>
<!-- html5&#45;&gt;titaniumSDK -->
<g id="edge20" class="edge"><title>html5&#45;&gt;titaniumSDK</title>
<path fill="none" stroke="black" d="M487.051,-412.63C481.268,-385.986 470.476,-336.259 463.678,-304.937"/>
<polygon fill="black" stroke="black" points="467.08,-304.111 461.539,-295.081 460.24,-305.596 467.08,-304.111"/>
</g>
<!-- tideSDK -->
<g id="node27" class="node"><title>tideSDK</title>
<polygon fill="green" stroke="green" points="442.376,-560.165 377.876,-560.165 377.876,-524.165 442.376,-524.165 442.376,-560.165"/>
<text text-anchor="middle" x="410.126" y="-538.465" font-family="Times New Roman,serif" font-size="14.00">tideSDK</text>
</g>
<!-- html5&#45;&gt;tideSDK -->
<g id="edge21" class="edge"><title>html5&#45;&gt;tideSDK</title>
<path fill="none" stroke="black" d="M477.66,-449.282C464.467,-467.427 444.158,-495.36 429.255,-515.857"/>
<polygon fill="black" stroke="black" points="426.285,-513.989 423.236,-524.136 431.947,-518.106 426.285,-513.989"/>
</g>
<!-- deskshellSDK -->
<g id="node28" class="node"><title>deskshellSDK</title>
<polygon fill="green" stroke="green" points="421.362,-641.347 326.862,-641.347 326.862,-605.347 421.362,-605.347 421.362,-641.347"/>
<text text-anchor="middle" x="374.112" y="-619.647" font-family="Times New Roman,serif" font-size="14.00">deskshellSDK</text>
</g>
<!-- html5&#45;&gt;deskshellSDK -->
<g id="edge22" class="edge"><title>html5&#45;&gt;deskshellSDK</title>
<path fill="none" stroke="black" d="M480.02,-449.015C459.349,-483.041 414.61,-556.684 390.423,-596.498"/>
<polygon fill="black" stroke="black" points="387.367,-594.787 385.166,-605.151 393.35,-598.422 387.367,-594.787"/>
</g>
<!-- cordovaSDK&#45;&gt;mobile -->
<g id="edge59" class="edge"><title>cordovaSDK&#45;&gt;mobile</title>
<path fill="none" stroke="black" d="M288.26,-359.661C277.494,-330.091 256.07,-271.252 243.364,-236.355"/>
<polygon fill="black" stroke="black" points="246.584,-234.971 239.874,-226.772 240.007,-237.366 246.584,-234.971"/>
</g>
<!-- cordovaSDK&#45;&gt;desktop -->
<g id="edge60" class="edge"><title>cordovaSDK&#45;&gt;desktop</title>
<path fill="none" stroke="black" d="M286.219,-395.84C271.799,-426.013 242.733,-486.832 225.791,-522.281"/>
<polygon fill="black" stroke="black" points="222.51,-521.028 221.356,-531.56 228.826,-524.046 222.51,-521.028"/>
</g>
<!-- nodeWebkitSDK&#45;&gt;desktop -->
<g id="edge66" class="edge"><title>nodeWebkitSDK&#45;&gt;desktop</title>
<path fill="none" stroke="black" d="M295.778,-504.524C282.438,-511.77 266.956,-520.18 252.997,-527.762"/>
<polygon fill="black" stroke="black" points="251.199,-524.756 244.083,-532.604 254.54,-530.907 251.199,-524.756"/>
</g>
<!-- phonegapSDK&#45;&gt;mobile -->
<g id="edge34" class="edge"><title>phonegapSDK&#45;&gt;mobile</title>
<path fill="none" stroke="black" d="M306.82,-224.766C294.657,-222.083 281.831,-219.254 270.354,-216.723"/>
<polygon fill="black" stroke="black" points="270.771,-213.23 260.252,-214.494 269.263,-220.066 270.771,-213.23"/>
</g>
<!-- titaniumSDK&#45;&gt;mobile -->
<g id="edge31" class="edge"><title>titaniumSDK&#45;&gt;mobile</title>
<path fill="none" stroke="black" d="M413.522,-263.413C371.614,-250.657 309.292,-231.687 269.986,-219.722"/>
<polygon fill="black" stroke="black" points="270.86,-216.329 260.274,-216.766 268.821,-223.026 270.86,-216.329"/>
</g>
<!-- tideSDK&#45;&gt;desktop -->
<g id="edge25" class="edge"><title>tideSDK&#45;&gt;desktop</title>
<path fill="none" stroke="black" d="M377.528,-543.4C343.738,-544.68 290.82,-546.685 254.099,-548.076"/>
<polygon fill="black" stroke="black" points="253.592,-544.593 243.732,-548.469 253.857,-551.588 253.592,-544.593"/>
</g>
<!-- deskshellSDK&#45;&gt;desktop -->
<g id="edge63" class="edge"><title>deskshellSDK&#45;&gt;desktop</title>
<path fill="none" stroke="black" d="M334.63,-605.317C309.887,-594.018 278.077,-579.493 253.155,-568.112"/>
<polygon fill="black" stroke="black" points="254.52,-564.887 243.969,-563.917 251.612,-571.255 254.52,-564.887"/>
</g>
<!-- rapSDK -->
<g id="node31" class="node"><title>rapSDK</title>
<polygon fill="green" stroke="green" points="658.252,-423.814 596.252,-423.814 596.252,-387.814 658.252,-387.814 658.252,-423.814"/>
<text text-anchor="middle" x="627.252" y="-402.114" font-family="Times New Roman,serif" font-size="14.00">rapSDK</text>
</g>
<!-- rapSDK&#45;&gt;html5 -->
<g id="edge28" class="edge"><title>rapSDK&#45;&gt;html5</title>
<path fill="none" stroke="black" d="M595.997,-411.572C575.879,-415.278 549.623,-420.115 528.401,-424.024"/>
<polygon fill="black" stroke="black" points="527.637,-420.606 518.437,-425.86 528.906,-427.49 527.637,-420.606"/>
</g>
<!-- openFLSDK -->
<g id="node38" class="node"><title>openFLSDK</title>
<polygon fill="green" stroke="green" points="721.205,-316.017 632.705,-316.017 632.705,-280.017 721.205,-280.017 721.205,-316.017"/>
<text text-anchor="middle" x="676.955" y="-294.317" font-family="Times New Roman,serif" font-size="14.00">openFLSDK</text>
</g>
<!-- openFLSDK&#45;&gt;html5 -->
<g id="edge37" class="edge"><title>openFLSDK&#45;&gt;html5</title>
<path fill="none" stroke="black" d="M651.491,-316.217C618.619,-339.711 561.319,-380.666 524.825,-406.749"/>
<polygon fill="black" stroke="black" points="522.573,-404.056 516.472,-412.718 526.643,-409.751 522.573,-404.056"/>
</g>
<!-- haxeSDK -->
<g id="node41" class="node"><title>haxeSDK</title>
<polygon fill="green" stroke="green" points="856.947,-291.595 786.947,-291.595 786.947,-255.595 856.947,-255.595 856.947,-291.595"/>
<text text-anchor="middle" x="821.947" y="-269.895" font-family="Times New Roman,serif" font-size="14.00">haxeSDK</text>
</g>
<!-- haxeSDK&#45;&gt;openFLSDK -->
<g id="edge40" class="edge"><title>haxeSDK&#45;&gt;openFLSDK</title>
<path fill="none" stroke="black" d="M786.848,-279.507C770.23,-282.306 750.002,-285.713 731.452,-288.838"/>
<polygon fill="black" stroke="black" points="730.633,-285.426 721.353,-290.539 731.796,-292.329 730.633,-285.426"/>
</g>
<!-- nodejsSDK -->
<g id="node44" class="node"><title>nodejsSDK</title>
<polygon fill="green" stroke="green" points="669,-253 588,-253 588,-217 669,-217 669,-253"/>
<text text-anchor="middle" x="628.5" y="-231.3" font-family="Times New Roman,serif" font-size="14.00">nodejsSDK</text>
</g>
<!-- gwtSDK -->
<g id="node47" class="node"><title>gwtSDK</title>
<polygon fill="green" stroke="green" points="621.409,-618.427 556.909,-618.427 556.909,-582.427 621.409,-582.427 621.409,-618.427"/>
<text text-anchor="middle" x="589.159" y="-596.727" font-family="Times New Roman,serif" font-size="14.00">gwtSDK</text>
</g>
<!-- gwtSDK&#45;&gt;html5 -->
<g id="edge45" class="edge"><title>gwtSDK&#45;&gt;html5</title>
<path fill="none" stroke="black" d="M578.656,-582.286C561.316,-552.335 526.619,-492.404 506.474,-457.609"/>
<polygon fill="black" stroke="black" points="509.485,-455.822 501.445,-448.922 503.427,-459.33 509.485,-455.822"/>
</g>
</g>
</svg>
