<?xml version="1.0" encoding="UTF-8" standalone="no"?>
<!DOCTYPE svg PUBLIC "-//W3C//DTD SVG 1.1//EN"
 "http://www.w3.org/Graphics/SVG/1.1/DTD/svg11.dtd">
<!-- Generated by graphviz version 2.28.0 (20110507.0327)
 -->
<!-- Title: Frameworks Pages: 1 -->
<svg width="612pt" height="605pt"
 viewBox="0.00 0.00 611.75 605.00" xmlns="http://www.w3.org/2000/svg" xmlns:xlink="http://www.w3.org/1999/xlink">
<g id="graph1" class="graph" transform="scale(1 1) rotate(0) translate(4 601)">
<title>Frameworks</title>
<polygon fill="white" stroke="white" points="-4,5 -4,-601 608.75,-601 608.75,5 -4,5"/>
<text text-anchor="middle" x="301.875" y="-7.4" font-family="Times New Roman,serif" font-size="12.00">Frameworks</text>
<!-- mobile -->
<g id="node1" class="node"><title>mobile</title>
<polygon fill="lightblue" stroke="lightblue" points="348.745,-315.975 294.745,-315.975 294.745,-279.975 348.745,-279.975 348.745,-315.975"/>
<text text-anchor="middle" x="321.745" y="-294.275" font-family="Times New Roman,serif" font-size="14.00">mobile</text>
</g>
<!-- ios -->
<g id="node6" class="node"><title>ios</title>
<polygon fill="lightblue" stroke="lightblue" points="544.603,-269.703 490.603,-269.703 490.603,-233.703 544.603,-233.703 544.603,-269.703"/>
<text text-anchor="middle" x="517.603" y="-248.003" font-family="Times New Roman,serif" font-size="14.00">ios</text>
</g>
<!-- mobile&#45;&gt;ios -->
<g id="edge5" class="edge"><title>mobile&#45;&gt;ios</title>
<path fill="none" stroke="black" d="M348.978,-291.541C383.328,-283.426 442.526,-269.44 480.858,-260.384"/>
<polygon fill="black" stroke="black" points="481.674,-263.788 490.601,-258.082 480.064,-256.975 481.674,-263.788"/>
</g>
<!-- winphone -->
<g id="node7" class="node"><title>winphone</title>
<polygon fill="lightblue" stroke="lightblue" points="523.598,-335.383 453.098,-335.383 453.098,-299.383 523.598,-299.383 523.598,-335.383"/>
<text text-anchor="middle" x="488.348" y="-313.683" font-family="Times New Roman,serif" font-size="14.00">winphone</text>
</g>
<!-- mobile&#45;&gt;winphone -->
<g id="edge6" class="edge"><title>mobile&#45;&gt;winphone</title>
<path fill="none" stroke="black" d="M348.883,-301.136C374.205,-304.086 412.486,-308.546 442.54,-312.047"/>
<polygon fill="black" stroke="black" points="442.454,-315.56 452.792,-313.241 443.264,-308.607 442.454,-315.56"/>
</g>
<!-- android -->
<g id="node8" class="node"><title>android</title>
<polygon fill="lightblue" stroke="lightblue" points="464.17,-383.491 405.67,-383.491 405.67,-347.491 464.17,-347.491 464.17,-383.491"/>
<text text-anchor="middle" x="434.92" y="-361.791" font-family="Times New Roman,serif" font-size="14.00">android</text>
</g>
<!-- mobile&#45;&gt;android -->
<g id="edge7" class="edge"><title>mobile&#45;&gt;android</title>
<path fill="none" stroke="black" d="M348.853,-314.147C363.066,-322.626 380.722,-333.158 396.335,-342.473"/>
<polygon fill="black" stroke="black" points="394.87,-345.674 405.251,-347.792 398.457,-339.663 394.87,-345.674"/>
</g>
<!-- desktop -->
<g id="node2" class="node"><title>desktop</title>
<polygon fill="lightblue" stroke="lightblue" points="407.56,-151.371 345.56,-151.371 345.56,-115.371 407.56,-115.371 407.56,-151.371"/>
<text text-anchor="middle" x="376.56" y="-129.671" font-family="Times New Roman,serif" font-size="14.00">desktop</text>
</g>
<!-- linux -->
<g id="node9" class="node"><title>linux</title>
<polygon fill="lightblue" stroke="lightblue" points="251.455,-107.962 197.455,-107.962 197.455,-71.9621 251.455,-71.9621 251.455,-107.962"/>
<text text-anchor="middle" x="224.455" y="-86.2621" font-family="Times New Roman,serif" font-size="14.00">linux</text>
</g>
<!-- desktop&#45;&gt;linux -->
<g id="edge54" class="edge"><title>desktop&#45;&gt;linux</title>
<path fill="none" stroke="black" d="M345.412,-124.482C321.012,-117.518 287.005,-107.813 261.261,-100.466"/>
<polygon fill="black" stroke="black" points="262.065,-97.0557 251.488,-97.6769 260.144,-103.787 262.065,-97.0557"/>
</g>
<!-- windows -->
<g id="node10" class="node"><title>windows</title>
<polygon fill="lightblue" stroke="lightblue" points="326.208,-68.3261 259.708,-68.3261 259.708,-32.3261 326.208,-32.3261 326.208,-68.3261"/>
<text text-anchor="middle" x="292.958" y="-46.6261" font-family="Times New Roman,serif" font-size="14.00">windows</text>
</g>
<!-- desktop&#45;&gt;windows -->
<g id="edge55" class="edge"><title>desktop&#45;&gt;windows</title>
<path fill="none" stroke="black" d="M358.42,-115.351C346.778,-103.787 331.485,-88.5961 318.608,-75.8053"/>
<polygon fill="black" stroke="black" points="320.913,-73.1614 311.351,-68.5972 315.98,-78.1277 320.913,-73.1614"/>
</g>
<!-- mac -->
<g id="node11" class="node"><title>mac</title>
<polygon fill="lightblue" stroke="lightblue" points="388.458,-57 334.458,-57 334.458,-21 388.458,-21 388.458,-57"/>
<text text-anchor="middle" x="361.458" y="-35.3" font-family="Times New Roman,serif" font-size="14.00">mac</text>
</g>
<!-- desktop&#45;&gt;mac -->
<g id="edge56" class="edge"><title>desktop&#45;&gt;mac</title>
<path fill="none" stroke="black" d="M373.648,-115.175C371.475,-101.598 368.466,-82.7913 365.981,-67.2624"/>
<polygon fill="black" stroke="black" points="369.397,-66.461 364.361,-57.1398 362.485,-67.5672 369.397,-66.461"/>
</g>
<!-- platform -->
<g id="node3" class="node"><title>platform</title>
<polygon fill="lightblue" stroke="lightblue" points="603.75,-597 539.75,-597 539.75,-561 603.75,-561 603.75,-597"/>
<text text-anchor="middle" x="571.75" y="-575.3" font-family="Times New Roman,serif" font-size="14.00">platform</text>
</g>
<!-- web -->
<g id="node4" class="node"><title>web</title>
<polygon fill="lightblue" stroke="lightblue" points="411.616,-577.662 357.616,-577.662 357.616,-541.662 411.616,-541.662 411.616,-577.662"/>
<text text-anchor="middle" x="384.616" y="-555.962" font-family="Times New Roman,serif" font-size="14.00">web</text>
</g>
<!-- device -->
<g id="node5" class="node"><title>device</title>
<polygon fill="lightblue" stroke="lightblue" points="375.219,-233.802 321.219,-233.802 321.219,-197.802 375.219,-197.802 375.219,-233.802"/>
<text text-anchor="middle" x="348.219" y="-212.102" font-family="Times New Roman,serif" font-size="14.00">device</text>
</g>
<!-- device&#45;&gt;mobile -->
<g id="edge12" class="edge"><title>device&#45;&gt;mobile</title>
<path fill="none" stroke="black" d="M342.343,-234.039C338.916,-244.678 334.523,-258.313 330.675,-270.257"/>
<polygon fill="black" stroke="black" points="327.339,-269.198 327.604,-279.789 334.002,-271.344 327.339,-269.198"/>
</g>
<!-- device&#45;&gt;desktop -->
<g id="edge13" class="edge"><title>device&#45;&gt;desktop</title>
<path fill="none" stroke="black" d="M354.509,-197.508C358.178,-186.836 362.881,-173.157 367,-161.176"/>
<polygon fill="black" stroke="black" points="370.346,-162.209 370.288,-151.614 363.727,-159.933 370.346,-162.209"/>
</g>
<!-- html5 -->
<g id="node20" class="node"><title>html5</title>
<polygon fill="green" stroke="green" points="245.793,-458.359 191.793,-458.359 191.793,-422.359 245.793,-422.359 245.793,-458.359"/>
<text text-anchor="middle" x="218.793" y="-436.659" font-family="Times New Roman,serif" font-size="14.00">html5</text>
</g>
<!-- html5&#45;&gt;web -->
<g id="edge16" class="edge"><title>html5&#45;&gt;web</title>
<path fill="none" stroke="black" d="M243.978,-458.479C272.549,-479.035 319.278,-512.654 350.958,-535.446"/>
<polygon fill="black" stroke="black" points="349.305,-538.569 359.466,-541.568 353.393,-532.886 349.305,-538.569"/>
</g>
<!-- cordovaSDK -->
<g id="node23" class="node"><title>cordovaSDK</title>
<polygon fill="green" stroke="green" points="307.264,-383.491 216.764,-383.491 216.764,-347.491 307.264,-347.491 307.264,-383.491"/>
<text text-anchor="middle" x="262.014" y="-361.791" font-family="Times New Roman,serif" font-size="14.00">cordovaSDK</text>
</g>
<!-- html5&#45;&gt;cordovaSDK -->
<g id="edge17" class="edge"><title>html5&#45;&gt;cordovaSDK</title>
<path fill="none" stroke="black" d="M229.255,-422.236C234.42,-413.29 240.754,-402.318 246.472,-392.414"/>
<polygon fill="black" stroke="black" points="249.529,-394.118 251.498,-383.707 243.467,-390.618 249.529,-394.118"/>
</g>
<!-- nodeWebkitSDK -->
<g id="node24" class="node"><title>nodeWebkitSDK</title>
<polygon fill="green" stroke="green" points="509.241,-86.8224 396.741,-86.8224 396.741,-50.8224 509.241,-50.8224 509.241,-86.8224"/>
<text text-anchor="middle" x="452.991" y="-65.1224" font-family="Times New Roman,serif" font-size="14.00">nodeWebkitSDK</text>
</g>
<!-- html5&#45;&gt;nodeWebkitSDK -->
<g id="edge18" class="edge"><title>html5&#45;&gt;nodeWebkitSDK</title>
<path fill="none" stroke="black" d="M230.247,-422.188C268.381,-361.691 391.169,-166.897 436.218,-95.4317"/>
<polygon fill="black" stroke="black" points="439.187,-97.285 441.558,-86.959 433.265,-93.5522 439.187,-97.285"/>
</g>
<!-- phonegapSDK -->
<g id="node25" class="node"><title>phonegapSDK</title>
<polygon fill="green" stroke="green" points="224.729,-233.772 126.229,-233.772 126.229,-197.772 224.729,-197.772 224.729,-233.772"/>
<text text-anchor="middle" x="175.479" y="-212.072" font-family="Times New Roman,serif" font-size="14.00">phonegapSDK</text>
</g>
<!-- html5&#45;&gt;phonegapSDK -->
<g id="edge19" class="edge"><title>html5&#45;&gt;phonegapSDK</title>
<path fill="none" stroke="black" d="M215.248,-421.98C207.675,-382.715 189.878,-290.434 180.884,-243.798"/>
<polygon fill="black" stroke="black" points="184.282,-242.934 178.951,-233.777 177.408,-244.259 184.282,-242.934"/>
</g>
<!-- titaniumSDK -->
<g id="node26" class="node"><title>titaniumSDK</title>
<polygon fill="green" stroke="green" points="231.905,-163.832 143.905,-163.832 143.905,-127.832 231.905,-127.832 231.905,-163.832"/>
<text text-anchor="middle" x="187.905" y="-142.132" font-family="Times New Roman,serif" font-size="14.00">titaniumSDK</text>
</g>
<!-- html5&#45;&gt;titaniumSDK -->
<g id="edge20" class="edge"><title>html5&#45;&gt;titaniumSDK</title>
<path fill="none" stroke="black" d="M216.861,-421.935C211.626,-372.023 197.145,-233.94 190.869,-174.098"/>
<polygon fill="black" stroke="black" points="194.321,-173.454 189.797,-163.873 187.359,-174.184 194.321,-173.454"/>
</g>
<!-- tideSDK -->
<g id="node27" class="node"><title>tideSDK</title>
<polygon fill="green" stroke="green" points="523.98,-131.773 459.48,-131.773 459.48,-95.7727 523.98,-95.7727 523.98,-131.773"/>
<text text-anchor="middle" x="491.73" y="-110.073" font-family="Times New Roman,serif" font-size="14.00">tideSDK</text>
</g>
<!-- html5&#45;&gt;tideSDK -->
<g id="edge21" class="edge"><title>html5&#45;&gt;tideSDK</title>
<path fill="none" stroke="black" d="M233.856,-422.335C279.417,-367.818 415.927,-204.475 469.656,-140.185"/>
<polygon fill="black" stroke="black" points="472.65,-142.061 476.377,-132.144 467.278,-137.572 472.65,-142.061"/>
</g>
<!-- deskshellSDK -->
<g id="node28" class="node"><title>deskshellSDK</title>
<polygon fill="green" stroke="green" points="565.002,-197.824 470.502,-197.824 470.502,-161.824 565.002,-161.824 565.002,-197.824"/>
<text text-anchor="middle" x="517.752" y="-176.124" font-family="Times New Roman,serif" font-size="14.00">deskshellSDK</text>
</g>
<!-- html5&#45;&gt;deskshellSDK -->
<g id="edge22" class="edge"><title>html5&#45;&gt;deskshellSDK</title>
<path fill="none" stroke="black" d="M239.815,-422.039C292.348,-376.258 429.409,-256.812 489.184,-204.72"/>
<polygon fill="black" stroke="black" points="491.513,-207.333 496.753,-198.124 486.914,-202.055 491.513,-207.333"/>
</g>
<!-- cordovaSDK&#45;&gt;mobile -->
<g id="edge59" class="edge"><title>cordovaSDK&#45;&gt;mobile</title>
<path fill="none" stroke="black" d="M278.021,-347.398C284.448,-340.133 291.976,-331.624 298.957,-323.733"/>
<polygon fill="black" stroke="black" points="301.689,-325.927 305.694,-316.118 296.447,-321.289 301.689,-325.927"/>
</g>
<!-- cordovaSDK&#45;&gt;desktop -->
<g id="edge60" class="edge"><title>cordovaSDK&#45;&gt;desktop</title>
<path fill="none" stroke="black" d="M271.002,-347.277C291.035,-306.682 339.439,-208.594 363.094,-160.658"/>
<polygon fill="black" stroke="black" points="366.327,-162.017 367.614,-151.5 360.05,-158.919 366.327,-162.017"/>
</g>
<!-- nodeWebkitSDK&#45;&gt;desktop -->
<g id="edge66" class="edge"><title>nodeWebkitSDK&#45;&gt;desktop</title>
<path fill="none" stroke="black" d="M431.293,-87.1467C423.4,-93.8126 414.343,-101.462 405.898,-108.594"/>
<polygon fill="black" stroke="black" points="403.429,-106.098 398.047,-115.224 407.946,-111.446 403.429,-106.098"/>
</g>
<!-- phonegapSDK&#45;&gt;mobile -->
<g id="edge34" class="edge"><title>phonegapSDK&#45;&gt;mobile</title>
<path fill="none" stroke="black" d="M207.577,-233.812C230.693,-246.803 261.896,-264.339 285.839,-277.796"/>
<polygon fill="black" stroke="black" points="284.196,-280.887 294.628,-282.735 287.626,-274.785 284.196,-280.887"/>
</g>
<!-- titaniumSDK&#45;&gt;mobile -->
<g id="edge31" class="edge"><title>titaniumSDK&#45;&gt;mobile</title>
<path fill="none" stroke="black" d="M203.784,-163.883C227.43,-190.762 272.007,-241.436 299.077,-272.207"/>
<polygon fill="black" stroke="black" points="296.654,-274.752 305.887,-279.948 301.91,-270.128 296.654,-274.752"/>
</g>
<!-- tideSDK&#45;&gt;desktop -->
<g id="edge25" class="edge"><title>tideSDK&#45;&gt;desktop</title>
<path fill="none" stroke="black" d="M459.342,-119.284C446.512,-121.467 431.603,-124.004 418.001,-126.319"/>
<polygon fill="black" stroke="black" points="417.182,-122.908 407.911,-128.036 418.356,-129.809 417.182,-122.908"/>
</g>
<!-- deskshellSDK&#45;&gt;desktop -->
<g id="edge63" class="edge"><title>deskshellSDK&#45;&gt;desktop</title>
<path fill="none" stroke="black" d="M470.344,-164.226C453.228,-158.595 434.065,-152.29 417.545,-146.855"/>
<polygon fill="black" stroke="black" points="418.235,-143.398 407.642,-143.597 416.047,-150.047 418.235,-143.398"/>
</g>
<!-- rapSDK -->
<g id="node31" class="node"><title>rapSDK</title>
<polygon fill="green" stroke="green" points="272.611,-562.631 210.611,-562.631 210.611,-526.631 272.611,-526.631 272.611,-562.631"/>
<text text-anchor="middle" x="241.611" y="-540.931" font-family="Times New Roman,serif" font-size="14.00">rapSDK</text>
</g>
<!-- rapSDK&#45;&gt;html5 -->
<g id="edge28" class="edge"><title>rapSDK&#45;&gt;html5</title>
<path fill="none" stroke="black" d="M237.636,-526.469C234.14,-510.493 228.995,-486.98 224.964,-468.559"/>
<polygon fill="black" stroke="black" points="228.355,-467.684 222.798,-458.664 221.517,-469.181 228.355,-467.684"/>
</g>
<!-- openFLSDK -->
<g id="node38" class="node"><title>openFLSDK</title>
<polygon fill="green" stroke="green" points="161.33,-490.736 72.8299,-490.736 72.8299,-454.736 161.33,-454.736 161.33,-490.736"/>
<text text-anchor="middle" x="117.08" y="-469.036" font-family="Times New Roman,serif" font-size="14.00">openFLSDK</text>
</g>
<!-- openFLSDK&#45;&gt;html5 -->
<g id="edge37" class="edge"><title>openFLSDK&#45;&gt;html5</title>
<path fill="none" stroke="black" d="M161.693,-458.535C168.418,-456.394 175.292,-454.206 181.833,-452.124"/>
<polygon fill="black" stroke="black" points="183.302,-455.33 191.769,-448.961 181.179,-448.659 183.302,-455.33"/>
</g>
<!-- haxeSDK -->
<g id="node41" class="node"><title>haxeSDK</title>
<polygon fill="green" stroke="green" points="94.2332,-554.981 24.2332,-554.981 24.2332,-518.981 94.2332,-518.981 94.2332,-554.981"/>
<text text-anchor="middle" x="59.2332" y="-533.281" font-family="Times New Roman,serif" font-size="14.00">haxeSDK</text>
</g>
<!-- haxeSDK&#45;&gt;openFLSDK -->
<g id="edge40" class="edge"><title>haxeSDK&#45;&gt;openFLSDK</title>
<path fill="none" stroke="black" d="M75.655,-518.743C81.3209,-512.45 87.7793,-505.277 93.8833,-498.498"/>
<polygon fill="black" stroke="black" points="96.7269,-500.571 100.817,-490.797 91.5249,-495.887 96.7269,-500.571"/>
</g>
<!-- nodejsSDK -->
<g id="node44" class="node"><title>nodejsSDK</title>
<polygon fill="green" stroke="green" points="512.75,-489 431.75,-489 431.75,-453 512.75,-453 512.75,-489"/>
<text text-anchor="middle" x="472.25" y="-467.3" font-family="Times New Roman,serif" font-size="14.00">nodejsSDK</text>
</g>
<!-- gwtSDK -->
<g id="node47" class="node"><title>gwtSDK</title>
<polygon fill="green" stroke="green" points="64.5,-374.453 -2.84217e-014,-374.453 -2.84217e-014,-338.453 64.5,-338.453 64.5,-374.453"/>
<text text-anchor="middle" x="32.25" y="-352.753" font-family="Times New Roman,serif" font-size="14.00">gwtSDK</text>
</g>
<!-- gwtSDK&#45;&gt;html5 -->
<g id="edge45" class="edge"><title>gwtSDK&#45;&gt;html5</title>
<path fill="none" stroke="black" d="M65.1707,-371.261C98.0593,-386.054 148.492,-408.738 182.516,-424.042"/>
<polygon fill="black" stroke="black" points="181.093,-427.24 191.649,-428.15 183.965,-420.856 181.093,-427.24"/>
</g>
</g>
</svg>
