<?xml version="1.0" encoding="utf-8"?>
<!-- Generated by IcoMoon.io -->
<!DOCTYPE svg PUBLIC "-//W3C//DTD SVG 1.1//EN" "http://www.w3.org/Graphics/SVG/1.1/DTD/svg11.dtd">
<svg version="1.1" xmlns="http://www.w3.org/2000/svg" xmlns:xlink="http://www.w3.org/1999/xlink" width="32" height="32" viewBox="0 0 32 32">
<g>
</g>
	<path d="M32 18.313q0 0.313-0.266 0.563t-0.813 0.422-1.125 0.297-1.469 0.203-1.563 0.109-1.703 0.063-1.578 0.031h-5.484v-4h-0.031q-0.031-1.438-0.563-2.5 0.844-0.219 1.594-0.313v-0.969q-3-1.813-3-7.5 0-2.344 1.672-3.531t4.328-1.188 4.328 1.188 1.672 3.531q0 5.906-3 7.594v0.875q3.156 0.438 5.063 1.75t1.938 3.375zM13 24.313v0.875q3.156 0.438 5.063 1.766t1.938 3.359q0 0.313-0.266 0.563t-0.813 0.422-1.125 0.297-1.469 0.203-1.563 0.125-1.703 0.063-1.578 0.016h-2.969t-1.578-0.016-1.703-0.063-1.563-0.125-1.469-0.203-1.125-0.297-0.813-0.422-0.266-0.563q0.031-2.031 1.938-3.359t5.063-1.766v-0.969q-3-1.813-3-7.5 0-2.344 1.672-3.531t4.328-1.188 4.328 1.188 1.672 3.531q0 5.906-3 7.594z" fill="#000000" />
</svg>
