<?xml version="1.0" encoding="utf-8"?>
<!-- Generated by IcoMoon.io -->
<!DOCTYPE svg PUBLIC "-//W3C//DTD SVG 1.1//EN" "http://www.w3.org/Graphics/SVG/1.1/DTD/svg11.dtd">
<svg version="1.1" xmlns="http://www.w3.org/2000/svg" xmlns:xlink="http://www.w3.org/1999/xlink" width="32" height="32" viewBox="0 0 32 32">
<g>
</g>
	<path d="M20 25.969v2.031h3q0.406 0 0.703 0.297t0.297 0.703-0.297 0.703-0.703 0.297h-14q-0.406 0-0.703-0.297t-0.297-0.703 0.297-0.703 0.703-0.297h3v-2.031q-12-0.219-12-2.969v-17q0-0.844 0.578-1.422t1.422-0.578h28q0.813 0 1.406 0.578t0.594 1.422v17q0 2.75-12 2.969zM30 6h-28v16h28v-16zM4 20v-12h18z" fill="#000000" />
</svg>
