<?xml version="1.0" encoding="utf-8"?>
<!-- Generated by IcoMoon.io -->
<!DOCTYPE svg PUBLIC "-//W3C//DTD SVG 1.1//EN" "http://www.w3.org/Graphics/SVG/1.1/DTD/svg11.dtd">
<svg version="1.1" xmlns="http://www.w3.org/2000/svg" xmlns:xlink="http://www.w3.org/1999/xlink" width="32" height="32" viewBox="0 0 32 32">
<g>
</g>
	<path d="M30 26.031h-12v3.969h3q0.406 0 0.703 0.297t0.297 0.703-0.297 0.703-0.703 0.297h-10q-0.406 0-0.703-0.297t-0.297-0.703 0.297-0.703 0.703-0.297h3v-3.969h-12q-0.844 0-1.422-0.594t-0.578-1.406v-22q0-0.844 0.578-1.422t1.422-0.578h28q0.844 0 1.422 0.578t0.578 1.422v22q0 0.813-0.578 1.406t-1.422 0.594zM30 2.031h-28v18h28v-18zM4 18v-14h20z" fill="#000000" />
</svg>
