<?xml version="1.0" encoding="utf-8"?>
<!-- Generated by IcoMoon.io -->
<!DOCTYPE svg PUBLIC "-//W3C//DTD SVG 1.1//EN" "http://www.w3.org/Graphics/SVG/1.1/DTD/svg11.dtd">
<svg version="1.1" xmlns="http://www.w3.org/2000/svg" xmlns:xlink="http://www.w3.org/1999/xlink" width="32" height="32" viewBox="0 0 32 32">
<g>
</g>
	<path d="M24 32h-16q-1.656 0-2.828-1.172t-1.172-2.828v-24q0-1.656 1.172-2.828t2.828-1.172h16q1.656 0 2.828 1.172t1.172 2.828v24q0 1.656-1.172 2.828t-2.828 1.172zM16.016 30q0.828 0 1.406-0.578t0.578-1.406-0.578-1.422-1.406-0.594-1.422 0.594-0.594 1.422 0.594 1.406 1.422 0.578zM26 4h-20v20h20v-20zM8 22v-16.031h12z" fill="#000000" />
</svg>
