<?xml version="1.0" encoding="utf-8"?>
<!-- Generated by IcoMoon.io -->
<!DOCTYPE svg PUBLIC "-//W3C//DTD SVG 1.1//EN" "http://www.w3.org/Graphics/SVG/1.1/DTD/svg11.dtd">
<svg version="1.1" xmlns="http://www.w3.org/2000/svg" xmlns:xlink="http://www.w3.org/1999/xlink" width="32" height="32" viewBox="0 0 32 32">
<g>
</g>
	<path d="M30 24h-12v4h2q1.656 0 2.828 1.172t1.172 2.828h-16q0-1.656 1.172-2.828t2.828-1.172h2v-4h-12q-0.844 0-1.422-0.578t-0.578-1.422v-20q0-0.813 0.578-1.406t1.422-0.594h28q0.813 0 1.406 0.594t0.594 1.406v20q0 0.844-0.578 1.422t-1.422 0.578zM28 4h-24v16h24v-16zM6 18v-12.031h16z" fill="#000000" />
</svg>
