<?xml version="1.0" encoding="utf-8"?>
<!-- Generated by IcoMoon.io -->
<!DOCTYPE svg PUBLIC "-//W3C//DTD SVG 1.1//EN" "http://www.w3.org/Graphics/SVG/1.1/DTD/svg11.dtd">
<svg version="1.1" xmlns="http://www.w3.org/2000/svg" xmlns:xlink="http://www.w3.org/1999/xlink" width="32" height="32" viewBox="0 0 32 32">
<g>
</g>
	<path d="M31 16h-5v8h2q0.813 0 1.406 0.594t0.594 1.406v4q0 0.844-0.594 1.422t-1.406 0.578h-6q-0.844 0-1.422-0.578t-0.578-1.422v-4q0-0.813 0.578-1.406t1.422-0.594h2v-8h-14v8h2q0.813 0 1.406 0.594t0.594 1.406v4q0 0.844-0.594 1.422t-1.406 0.578h-6q-0.844 0-1.422-0.578t-0.578-1.422v-4q0-0.813 0.578-1.406t1.422-0.594h2v-8h-7q-0.406 0-0.703-0.297t-0.297-0.703 0.297-0.703 0.703-0.297h15v-6h-2q-0.844 0-1.422-0.578t-0.578-1.422v-4q0-0.813 0.578-1.406t1.422-0.594h6q0.813 0 1.406 0.594t0.594 1.406v4q0 0.844-0.594 1.422t-1.406 0.578h-2v6h13q0.406 0 0.703 0.297t0.297 0.703-0.297 0.703-0.703 0.297z" fill="#000000" />
</svg>
