<?xml version="1.0" encoding="utf-8"?>
<!-- Generated by IcoMoon.io -->
<!DOCTYPE svg PUBLIC "-//W3C//DTD SVG 1.1//EN" "http://www.w3.org/Graphics/SVG/1.1/DTD/svg11.dtd">
<svg version="1.1" xmlns="http://www.w3.org/2000/svg" xmlns:xlink="http://www.w3.org/1999/xlink" width="32" height="32" viewBox="0 0 32 32">
<g>
</g>
	<path d="M30 32h-10q-0.844 0-1.422-0.594t-0.578-1.406v-28q0-0.813 0.578-1.406t1.422-0.594h10q0.813 0 1.406 0.594t0.594 1.406v28q0 0.844-0.578 1.422t-1.422 0.578zM20 26.016q0 0.828 0.578 1.406t1.406 0.578 1.422-0.578 0.594-1.406-0.594-1.422-1.406-0.594-1.406 0.594-0.594 1.422zM30 3q0-0.406-0.297-0.703t-0.703-0.297h-8q-0.406 0-0.703 0.297t-0.297 0.703v2q0 0.406 0.297 0.703t0.703 0.297h8q0.406 0 0.703-0.297t0.297-0.703v-2zM30 9q0-0.406-0.297-0.703t-0.703-0.297h-8q-0.406 0-0.703 0.297t-0.297 0.703v2q0 0.406 0.297 0.703t0.703 0.297h8q0.406 0 0.703-0.297t0.297-0.703v-2zM30 15q0-0.406-0.297-0.703t-0.703-0.297h-8q-0.406 0-0.703 0.297t-0.297 0.703v2q0 0.406 0.297 0.703t0.703 0.297h8q0.406 0 0.703-0.297t0.297-0.703v-2zM12 32h-10q-0.844 0-1.422-0.594t-0.578-1.406v-28q0-0.813 0.578-1.406t1.422-0.594h10q0.844 0 1.422 0.594t0.578 1.406v28q0 0.844-0.578 1.422t-1.422 0.578zM2 26.016q0 0.828 0.578 1.406t1.422 0.578 1.422-0.578 0.578-1.406-0.578-1.422-1.406-0.594-1.422 0.594-0.594 1.422zM12 3q0-0.406-0.297-0.703t-0.703-0.297h-8q-0.406 0-0.703 0.297t-0.297 0.703v2q0 0.406 0.297 0.703t0.703 0.297h8q0.406 0 0.703-0.297t0.297-0.703v-2zM12 9q0-0.406-0.297-0.703t-0.703-0.297h-8q-0.406 0-0.703 0.297t-0.297 0.703v2q0 0.406 0.297 0.703t0.703 0.297h8q0.406 0 0.703-0.297t0.297-0.703v-2zM12 15q0-0.406-0.297-0.703t-0.703-0.297h-8q-0.406 0-0.703 0.297t-0.297 0.703v2q0 0.406 0.297 0.703t0.703 0.297h8q0.406 0 0.703-0.297t0.297-0.703v-2z" fill="#000000" />
</svg>
