<?xml version="1.0" encoding="utf-8"?>
<!-- Generated by IcoMoon.io -->
<!DOCTYPE svg PUBLIC "-//W3C//DTD SVG 1.1//EN" "http://www.w3.org/Graphics/SVG/1.1/DTD/svg11.dtd">
<svg version="1.1" xmlns="http://www.w3.org/2000/svg" xmlns:xlink="http://www.w3.org/1999/xlink" width="32" height="32" viewBox="0 0 32 32">
<g>
</g>
	<path d="M28 30h-10v-8h8q0.844 0 1.422-0.578t0.578-1.422v-12q0-0.813-0.578-1.406t-1.422-0.594h-18q-0.844 0-1.422 0.594t-0.578 1.406v12q0 0.844 0.594 1.422t1.406 0.578h8v8h-10q-1.656 0-2.828-1.172t-1.172-2.828v-20q0-1.656 1.172-2.828t2.828-1.172h22q1.656 0 2.828 1.172t1.172 2.828v20q0 1.656-1.172 2.828t-2.828 1.172z" fill="#000000" />
</svg>
