<?xml version="1.0" encoding="utf-8"?>
<!-- Generated by IcoMoon.io -->
<!DOCTYPE svg PUBLIC "-//W3C//DTD SVG 1.1//EN" "http://www.w3.org/Graphics/SVG/1.1/DTD/svg11.dtd">
<svg version="1.1" xmlns="http://www.w3.org/2000/svg" xmlns:xlink="http://www.w3.org/1999/xlink" width="32" height="32" viewBox="0 0 32 32">
<g>
</g>
	<path d="M30 32h-2q-0.844 0-1.422-0.578t-0.578-1.422v-2q0-0.813 0.578-1.406t1.422-0.594v-8h-10v8q0.813 0 1.406 0.594t0.594 1.406v2q0 0.844-0.594 1.422t-1.406 0.578h-2q-0.844 0-1.422-0.578t-0.578-1.422v-2q0-0.813 0.578-1.406t1.422-0.594v-8h-10v8q0.813 0 1.406 0.594t0.594 1.406v2q0 0.844-0.594 1.422t-1.406 0.578h-2q-0.844 0-1.422-0.578t-0.578-1.422v-2q0-0.813 0.578-1.406t1.422-0.594v-9q0-0.406 0.297-0.703t0.703-0.297h11v-6h-2q-0.844 0-1.422-0.578t-0.578-1.422v-6q0-0.813 0.578-1.406t1.422-0.594h6q0.813 0 1.406 0.594t0.594 1.406v6q0 0.844-0.594 1.422t-1.406 0.578h-2v6h11q0.406 0 0.703 0.297t0.297 0.703v9q0.813 0 1.406 0.594t0.594 1.406v2q0 0.844-0.594 1.422t-1.406 0.578z" fill="#000000" />
</svg>
