<?xml version="1.0" encoding="utf-8"?>
<!-- Generated by IcoMoon.io -->
<!DOCTYPE svg PUBLIC "-//W3C//DTD SVG 1.1//EN" "http://www.w3.org/Graphics/SVG/1.1/DTD/svg11.dtd">
<svg version="1.1" xmlns="http://www.w3.org/2000/svg" xmlns:xlink="http://www.w3.org/1999/xlink" width="32" height="32" viewBox="0 0 32 32">
<g>
</g>
	<path d="M30 30h-8q0 0.844-0.578 1.422t-1.422 0.578h-8q-0.813 0-1.406-0.594t-0.594-1.406h-8q-0.813 0-1.406-0.594t-0.594-1.406v-4q0-0.844 0.594-1.422t1.406-0.578h8q0-0.844 0.594-1.422t1.406-0.578v-2h-6q-0.813 0-1.406-0.594t-0.594-1.406v-14q0-0.844 0.594-1.422t1.406-0.578h20q0.844 0 1.422 0.578t0.578 1.422v14q0 0.844-0.578 1.422t-1.422 0.578h-6v2q0.844 0 1.422 0.578t0.578 1.422h8q0.844 0 1.422 0.594t0.578 1.406v4q0 0.813-0.578 1.406t-1.422 0.594zM10 24h-7q-0.406 0-0.703 0.297t-0.297 0.703 0.297 0.703 0.703 0.297h7v-2zM26 14v-12h-20v12h20zM14 18v2h2v-2h-2zM20 22h-8v8h8v-8zM29 24h-7v2h7q0.406 0 0.703-0.297t0.297-0.703-0.297-0.703-0.703-0.297z" fill="#000000" />
</svg>
