<?xml version="1.0" encoding="utf-8"?>
<!-- Generated by IcoMoon.io -->
<!DOCTYPE svg PUBLIC "-//W3C//DTD SVG 1.1//EN" "http://www.w3.org/Graphics/SVG/1.1/DTD/svg11.dtd">
<svg version="1.1" xmlns="http://www.w3.org/2000/svg" xmlns:xlink="http://www.w3.org/1999/xlink" width="32" height="32" viewBox="0 0 32 32">
<g>
</g>
	<path d="M30 26h-8q0 0.844-0.578 1.422t-1.422 0.578h-8q-0.844 0-1.422-0.578t-0.578-1.422h-8q-0.844 0-1.422-0.594t-0.578-1.406v-4q0-0.844 0.578-1.422t1.422-0.578h8q0-0.844 0.578-1.422t1.422-0.578v-10q0-0.844 0.578-1.422t1.422-0.578h4q0.844 0 1.422 0.578t0.578 1.422v10q0.844 0 1.422 0.578t0.578 1.422h8q0.844 0 1.422 0.578t0.578 1.422v4q0 0.813-0.578 1.406t-1.422 0.594zM10 20h-7q-0.406 0-0.703 0.297t-0.297 0.703 0.297 0.703 0.703 0.297h7v-2zM16 7q0-0.406-0.297-0.703t-0.703-0.297-0.703 0.297-0.297 0.703v9h2v-9zM20 18h-8v8h8v-8zM29 20h-7v2h7q0.406 0 0.703-0.297t0.297-0.703-0.297-0.703-0.703-0.297z" fill="#000000" />
</svg>
