<?xml version="1.0" encoding="utf-8"?>
<!-- Generated by IcoMoon.io -->
<!DOCTYPE svg PUBLIC "-//W3C//DTD SVG 1.1//EN" "http://www.w3.org/Graphics/SVG/1.1/DTD/svg11.dtd">
<svg version="1.1" xmlns="http://www.w3.org/2000/svg" xmlns:xlink="http://www.w3.org/1999/xlink" width="32" height="32" viewBox="0 0 32 32">
<g>
</g>
	<path d="M32 29.906q0 0.375-0.422 0.688t-1.297 0.516-1.797 0.375-2.359 0.266-2.5 0.141-2.734 0.078-2.531 0.031h-4.719t-2.531-0.031-2.734-0.078-2.5-0.141-2.359-0.266-1.797-0.375-1.297-0.516-0.422-0.688q0.063-2.75 3.438-4.859t8.563-2.797v-1.031q-1.625-0.719-2.813-2.031t-1.875-3.078-1-3.781-0.313-4.359q0-2 0.781-3.563t2.156-2.516 3.156-1.438 3.906-0.484 3.906 0.484 3.156 1.438 2.156 2.516 0.781 3.563q0 10.938-6 13.313v0.969q5.188 0.688 8.563 2.797t3.438 4.859z" fill="#000000" />
</svg>
